<svg xmlns="http://www.w3.org/2000/svg" xmlns:xlink="http://www.w3.org/1999/xlink" width="900" zoomAndPan="magnify" viewBox="0 0 675 162.749997" height="217" preserveAspectRatio="xMidYMid meet" version="1.2"><defs/><g id="8579629b26"><g style="fill:#ff00ff;fill-opacity:1;"><g transform="translate(257.713332, 113.906296)"><path style="stroke:none" d="M 57.09375 -11.875 L 57.09375 0 L 7.578125 0 L 7.578125 -63.9375 L 55.90625 -63.9375 L 55.90625 -52.0625 L 22.28125 -52.0625 L 22.28125 -38.1875 L 51.96875 -38.1875 L 51.96875 -26.671875 L 22.28125 -26.671875 L 22.28125 -11.875 Z M 57.09375 -11.875 "/></g></g><g style="fill:#ff00ff;fill-opacity:1;"><g transform="translate(319.00495, 113.906296)"><path style="stroke:none" d="M 54.53125 -33.25 C 58.1875 -32.09375 61.046875 -30.160156 63.109375 -27.453125 C 65.179688 -24.742188 66.21875 -21.410156 66.21875 -17.453125 C 66.21875 -11.847656 64.039062 -7.535156 59.6875 -4.515625 C 55.332031 -1.503906 48.984375 0 40.640625 0 L 7.578125 0 L 7.578125 -63.9375 L 38.828125 -63.9375 C 46.617188 -63.9375 52.597656 -62.441406 56.765625 -59.453125 C 60.941406 -56.472656 63.03125 -52.425781 63.03125 -47.3125 C 63.03125 -44.207031 62.28125 -41.4375 60.78125 -39 C 59.289062 -36.5625 57.207031 -34.644531 54.53125 -33.25 Z M 22.28125 -52.796875 L 22.28125 -37.71875 L 37 -37.71875 C 40.644531 -37.71875 43.410156 -38.359375 45.296875 -39.640625 C 47.191406 -40.921875 48.140625 -42.8125 48.140625 -45.3125 C 48.140625 -47.800781 47.191406 -49.671875 45.296875 -50.921875 C 43.410156 -52.171875 40.644531 -52.796875 37 -52.796875 Z M 39.546875 -11.140625 C 43.441406 -11.140625 46.378906 -11.78125 48.359375 -13.0625 C 50.335938 -14.34375 51.328125 -16.320312 51.328125 -19 C 51.328125 -24.300781 47.398438 -26.953125 39.546875 -26.953125 L 22.28125 -26.953125 L 22.28125 -11.140625 Z M 39.546875 -11.140625 "/></g></g><g style="fill:#ff00ff;fill-opacity:1;"><g transform="translate(388.882878, 113.906296)"><path style="stroke:none" d="M 7.578125 -63.9375 L 22.375 -63.9375 L 22.375 0 L 7.578125 0 Z M 7.578125 -63.9375 "/></g></g><g style="fill:#ff00ff;fill-opacity:1;"><g transform="translate(418.84362, 113.906296)"><path style="stroke:none" d="M 7.578125 -63.9375 L 22.375 -63.9375 L 22.375 -12.0625 L 54.4375 -12.0625 L 54.4375 0 L 7.578125 0 Z M 7.578125 -63.9375 "/></g></g><g style="fill:#ff00ff;fill-opacity:1;"><g transform="translate(474.01521, 113.906296)"><path style="stroke:none" d="M 7.578125 -63.9375 L 22.375 -63.9375 L 22.375 0 L 7.578125 0 Z M 7.578125 -63.9375 "/></g></g><g style="fill:#ff00ff;fill-opacity:1;"><g transform="translate(503.975937, 113.906296)"><path style="stroke:none" d="M 20.828125 -51.890625 L 0.359375 -51.890625 L 0.359375 -63.9375 L 56.078125 -63.9375 L 56.078125 -51.890625 L 35.625 -51.890625 L 35.625 0 L 20.828125 0 Z M 20.828125 -51.890625 "/></g></g><g style="fill:#ff00ff;fill-opacity:1;"><g transform="translate(559.238835, 113.906296)"><path style="stroke:none" d="M 38.265625 -22.65625 L 38.265625 0 L 23.46875 0 L 23.46875 -22.828125 L -1.28125 -63.9375 L 14.4375 -63.9375 L 31.515625 -35.53125 L 48.59375 -63.9375 L 63.125 -63.9375 Z M 38.265625 -22.65625 "/></g></g><g style="fill:#00ffff;fill-opacity:1;"><g transform="translate(249.035219, 113.906296)"><path style="stroke:none" d="M 57.09375 -11.875 L 57.09375 0 L 7.578125 0 L 7.578125 -63.9375 L 55.90625 -63.9375 L 55.90625 -52.0625 L 22.28125 -52.0625 L 22.28125 -38.1875 L 51.96875 -38.1875 L 51.96875 -26.671875 L 22.28125 -26.671875 L 22.28125 -11.875 Z M 57.09375 -11.875 "/></g></g><g style="fill:#00ffff;fill-opacity:1;"><g transform="translate(310.326837, 113.906296)"><path style="stroke:none" d="M 54.53125 -33.25 C 58.1875 -32.09375 61.046875 -30.160156 63.109375 -27.453125 C 65.179688 -24.742188 66.21875 -21.410156 66.21875 -17.453125 C 66.21875 -11.847656 64.039062 -7.535156 59.6875 -4.515625 C 55.332031 -1.503906 48.984375 0 40.640625 0 L 7.578125 0 L 7.578125 -63.9375 L 38.828125 -63.9375 C 46.617188 -63.9375 52.597656 -62.441406 56.765625 -59.453125 C 60.941406 -56.472656 63.03125 -52.425781 63.03125 -47.3125 C 63.03125 -44.207031 62.28125 -41.4375 60.78125 -39 C 59.289062 -36.5625 57.207031 -34.644531 54.53125 -33.25 Z M 22.28125 -52.796875 L 22.28125 -37.71875 L 37 -37.71875 C 40.644531 -37.71875 43.410156 -38.359375 45.296875 -39.640625 C 47.191406 -40.921875 48.140625 -42.8125 48.140625 -45.3125 C 48.140625 -47.800781 47.191406 -49.671875 45.296875 -50.921875 C 43.410156 -52.171875 40.644531 -52.796875 37 -52.796875 Z M 39.546875 -11.140625 C 43.441406 -11.140625 46.378906 -11.78125 48.359375 -13.0625 C 50.335938 -14.34375 51.328125 -16.320312 51.328125 -19 C 51.328125 -24.300781 47.398438 -26.953125 39.546875 -26.953125 L 22.28125 -26.953125 L 22.28125 -11.140625 Z M 39.546875 -11.140625 "/></g></g><g style="fill:#00ffff;fill-opacity:1;"><g transform="translate(380.204765, 113.906296)"><path style="stroke:none" d="M 7.578125 -63.9375 L 22.375 -63.9375 L 22.375 0 L 7.578125 0 Z M 7.578125 -63.9375 "/></g></g><g style="fill:#00ffff;fill-opacity:1;"><g transform="translate(410.165507, 113.906296)"><path style="stroke:none" d="M 7.578125 -63.9375 L 22.375 -63.9375 L 22.375 -12.0625 L 54.4375 -12.0625 L 54.4375 0 L 7.578125 0 Z M 7.578125 -63.9375 "/></g></g><g style="fill:#00ffff;fill-opacity:1;"><g transform="translate(465.337096, 113.906296)"><path style="stroke:none" d="M 7.578125 -63.9375 L 22.375 -63.9375 L 22.375 0 L 7.578125 0 Z M 7.578125 -63.9375 "/></g></g><g style="fill:#00ffff;fill-opacity:1;"><g transform="translate(495.297824, 113.906296)"><path style="stroke:none" d="M 20.828125 -51.890625 L 0.359375 -51.890625 L 0.359375 -63.9375 L 56.078125 -63.9375 L 56.078125 -51.890625 L 35.625 -51.890625 L 35.625 0 L 20.828125 0 Z M 20.828125 -51.890625 "/></g></g><g style="fill:#00ffff;fill-opacity:1;"><g transform="translate(550.560722, 113.906296)"><path style="stroke:none" d="M 38.265625 -22.65625 L 38.265625 0 L 23.46875 0 L 23.46875 -22.828125 L -1.28125 -63.9375 L 14.4375 -63.9375 L 31.515625 -35.53125 L 48.59375 -63.9375 L 63.125 -63.9375 Z M 38.265625 -22.65625 "/></g></g><g style="fill:#f4f6fc;fill-opacity:1;"><g transform="translate(253.374274, 113.906296)"><path style="stroke:none" d="M 57.09375 -11.875 L 57.09375 0 L 7.578125 0 L 7.578125 -63.9375 L 55.90625 -63.9375 L 55.90625 -52.0625 L 22.28125 -52.0625 L 22.28125 -38.1875 L 51.96875 -38.1875 L 51.96875 -26.671875 L 22.28125 -26.671875 L 22.28125 -11.875 Z M 57.09375 -11.875 "/></g></g><g style="fill:#f4f6fc;fill-opacity:1;"><g transform="translate(314.665892, 113.906296)"><path style="stroke:none" d="M 54.53125 -33.25 C 58.1875 -32.09375 61.046875 -30.160156 63.109375 -27.453125 C 65.179688 -24.742188 66.21875 -21.410156 66.21875 -17.453125 C 66.21875 -11.847656 64.039062 -7.535156 59.6875 -4.515625 C 55.332031 -1.503906 48.984375 0 40.640625 0 L 7.578125 0 L 7.578125 -63.9375 L 38.828125 -63.9375 C 46.617188 -63.9375 52.597656 -62.441406 56.765625 -59.453125 C 60.941406 -56.472656 63.03125 -52.425781 63.03125 -47.3125 C 63.03125 -44.207031 62.28125 -41.4375 60.78125 -39 C 59.289062 -36.5625 57.207031 -34.644531 54.53125 -33.25 Z M 22.28125 -52.796875 L 22.28125 -37.71875 L 37 -37.71875 C 40.644531 -37.71875 43.410156 -38.359375 45.296875 -39.640625 C 47.191406 -40.921875 48.140625 -42.8125 48.140625 -45.3125 C 48.140625 -47.800781 47.191406 -49.671875 45.296875 -50.921875 C 43.410156 -52.171875 40.644531 -52.796875 37 -52.796875 Z M 39.546875 -11.140625 C 43.441406 -11.140625 46.378906 -11.78125 48.359375 -13.0625 C 50.335938 -14.34375 51.328125 -16.320312 51.328125 -19 C 51.328125 -24.300781 47.398438 -26.953125 39.546875 -26.953125 L 22.28125 -26.953125 L 22.28125 -11.140625 Z M 39.546875 -11.140625 "/></g></g><g style="fill:#f4f6fc;fill-opacity:1;"><g transform="translate(384.54382, 113.906296)"><path style="stroke:none" d="M 7.578125 -63.9375 L 22.375 -63.9375 L 22.375 0 L 7.578125 0 Z M 7.578125 -63.9375 "/></g></g><g style="fill:#f4f6fc;fill-opacity:1;"><g transform="translate(414.504563, 113.906296)"><path style="stroke:none" d="M 7.578125 -63.9375 L 22.375 -63.9375 L 22.375 -12.0625 L 54.4375 -12.0625 L 54.4375 0 L 7.578125 0 Z M 7.578125 -63.9375 "/></g></g><g style="fill:#f4f6fc;fill-opacity:1;"><g transform="translate(469.676152, 113.906296)"><path style="stroke:none" d="M 7.578125 -63.9375 L 22.375 -63.9375 L 22.375 0 L 7.578125 0 Z M 7.578125 -63.9375 "/></g></g><g style="fill:#f4f6fc;fill-opacity:1;"><g transform="translate(499.636879, 113.906296)"><path style="stroke:none" d="M 20.828125 -51.890625 L 0.359375 -51.890625 L 0.359375 -63.9375 L 56.078125 -63.9375 L 56.078125 -51.890625 L 35.625 -51.890625 L 35.625 0 L 20.828125 0 Z M 20.828125 -51.890625 "/></g></g><g style="fill:#f4f6fc;fill-opacity:1;"><g transform="translate(554.899778, 113.906296)"><path style="stroke:none" d="M 38.265625 -22.65625 L 38.265625 0 L 23.46875 0 L 23.46875 -22.828125 L -1.28125 -63.9375 L 14.4375 -63.9375 L 31.515625 -35.53125 L 48.59375 -63.9375 L 63.125 -63.9375 Z M 38.265625 -22.65625 "/></g></g><g style="fill:#ff00ff;fill-opacity:1;"><g transform="translate(35.641099, 113.906296)"><path style="stroke:none" d="M 38.1875 1.09375 C 31.664062 1.09375 25.769531 -0.320312 20.5 -3.15625 C 15.238281 -5.988281 11.097656 -9.914062 8.078125 -14.9375 C 5.066406 -19.957031 3.5625 -25.632812 3.5625 -31.96875 C 3.5625 -38.300781 5.066406 -43.976562 8.078125 -49 C 11.097656 -54.03125 15.238281 -57.957031 20.5 -60.78125 C 25.769531 -63.613281 31.691406 -65.03125 38.265625 -65.03125 C 43.804688 -65.03125 48.816406 -64.054688 53.296875 -62.109375 C 57.773438 -60.160156 61.535156 -57.359375 64.578125 -53.703125 L 55.078125 -44.9375 C 50.753906 -49.9375 45.394531 -52.4375 39 -52.4375 C 35.039062 -52.4375 31.507812 -51.566406 28.40625 -49.828125 C 25.300781 -48.085938 22.878906 -45.664062 21.140625 -42.5625 C 19.410156 -39.457031 18.546875 -35.925781 18.546875 -31.96875 C 18.546875 -28.007812 19.410156 -24.476562 21.140625 -21.375 C 22.878906 -18.269531 25.300781 -15.847656 28.40625 -14.109375 C 31.507812 -12.378906 35.039062 -11.515625 39 -11.515625 C 45.394531 -11.515625 50.753906 -14.039062 55.078125 -19.09375 L 64.578125 -10.328125 C 61.535156 -6.609375 57.757812 -3.773438 53.25 -1.828125 C 48.75 0.117188 43.726562 1.09375 38.1875 1.09375 Z M 38.1875 1.09375 "/></g></g><g style="fill:#ff00ff;fill-opacity:1;"><g transform="translate(101.225834, 113.906296)"><path style="stroke:none" d="M 38.546875 1.09375 C 31.910156 1.09375 25.925781 -0.332031 20.59375 -3.1875 C 15.269531 -6.050781 11.097656 -9.992188 8.078125 -15.015625 C 5.066406 -20.046875 3.5625 -25.695312 3.5625 -31.96875 C 3.5625 -38.238281 5.066406 -43.882812 8.078125 -48.90625 C 11.097656 -53.9375 15.269531 -57.878906 20.59375 -60.734375 C 25.925781 -63.597656 31.910156 -65.03125 38.546875 -65.03125 C 45.179688 -65.03125 51.144531 -63.597656 56.4375 -60.734375 C 61.738281 -57.878906 65.910156 -53.9375 68.953125 -48.90625 C 72.003906 -43.882812 73.53125 -38.238281 73.53125 -31.96875 C 73.53125 -25.695312 72.003906 -20.046875 68.953125 -15.015625 C 65.910156 -9.992188 61.738281 -6.050781 56.4375 -3.1875 C 51.144531 -0.332031 45.179688 1.09375 38.546875 1.09375 Z M 38.546875 -11.515625 C 42.316406 -11.515625 45.722656 -12.378906 48.765625 -14.109375 C 51.816406 -15.847656 54.207031 -18.269531 55.9375 -21.375 C 57.675781 -24.476562 58.546875 -28.007812 58.546875 -31.96875 C 58.546875 -35.925781 57.675781 -39.457031 55.9375 -42.5625 C 54.207031 -45.664062 51.816406 -48.085938 48.765625 -49.828125 C 45.722656 -51.566406 42.316406 -52.4375 38.546875 -52.4375 C 34.773438 -52.4375 31.363281 -51.566406 28.3125 -49.828125 C 25.269531 -48.085938 22.878906 -45.664062 21.140625 -42.5625 C 19.410156 -39.457031 18.546875 -35.925781 18.546875 -31.96875 C 18.546875 -28.007812 19.410156 -24.476562 21.140625 -21.375 C 22.878906 -18.269531 25.269531 -15.847656 28.3125 -14.109375 C 31.363281 -12.378906 34.773438 -11.515625 38.546875 -11.515625 Z M 38.546875 -11.515625 "/></g></g><g style="fill:#00ffff;fill-opacity:1;"><g transform="translate(26.963005, 113.906296)"><path style="stroke:none" d="M 38.1875 1.09375 C 31.664062 1.09375 25.769531 -0.320312 20.5 -3.15625 C 15.238281 -5.988281 11.097656 -9.914062 8.078125 -14.9375 C 5.066406 -19.957031 3.5625 -25.632812 3.5625 -31.96875 C 3.5625 -38.300781 5.066406 -43.976562 8.078125 -49 C 11.097656 -54.03125 15.238281 -57.957031 20.5 -60.78125 C 25.769531 -63.613281 31.691406 -65.03125 38.265625 -65.03125 C 43.804688 -65.03125 48.816406 -64.054688 53.296875 -62.109375 C 57.773438 -60.160156 61.535156 -57.359375 64.578125 -53.703125 L 55.078125 -44.9375 C 50.753906 -49.9375 45.394531 -52.4375 39 -52.4375 C 35.039062 -52.4375 31.507812 -51.566406 28.40625 -49.828125 C 25.300781 -48.085938 22.878906 -45.664062 21.140625 -42.5625 C 19.410156 -39.457031 18.546875 -35.925781 18.546875 -31.96875 C 18.546875 -28.007812 19.410156 -24.476562 21.140625 -21.375 C 22.878906 -18.269531 25.300781 -15.847656 28.40625 -14.109375 C 31.507812 -12.378906 35.039062 -11.515625 39 -11.515625 C 45.394531 -11.515625 50.753906 -14.039062 55.078125 -19.09375 L 64.578125 -10.328125 C 61.535156 -6.609375 57.757812 -3.773438 53.25 -1.828125 C 48.75 0.117188 43.726562 1.09375 38.1875 1.09375 Z M 38.1875 1.09375 "/></g></g><g style="fill:#00ffff;fill-opacity:1;"><g transform="translate(92.54774, 113.906296)"><path style="stroke:none" d="M 38.546875 1.09375 C 31.910156 1.09375 25.925781 -0.332031 20.59375 -3.1875 C 15.269531 -6.050781 11.097656 -9.992188 8.078125 -15.015625 C 5.066406 -20.046875 3.5625 -25.695312 3.5625 -31.96875 C 3.5625 -38.238281 5.066406 -43.882812 8.078125 -48.90625 C 11.097656 -53.9375 15.269531 -57.878906 20.59375 -60.734375 C 25.925781 -63.597656 31.910156 -65.03125 38.546875 -65.03125 C 45.179688 -65.03125 51.144531 -63.597656 56.4375 -60.734375 C 61.738281 -57.878906 65.910156 -53.9375 68.953125 -48.90625 C 72.003906 -43.882812 73.53125 -38.238281 73.53125 -31.96875 C 73.53125 -25.695312 72.003906 -20.046875 68.953125 -15.015625 C 65.910156 -9.992188 61.738281 -6.050781 56.4375 -3.1875 C 51.144531 -0.332031 45.179688 1.09375 38.546875 1.09375 Z M 38.546875 -11.515625 C 42.316406 -11.515625 45.722656 -12.378906 48.765625 -14.109375 C 51.816406 -15.847656 54.207031 -18.269531 55.9375 -21.375 C 57.675781 -24.476562 58.546875 -28.007812 58.546875 -31.96875 C 58.546875 -35.925781 57.675781 -39.457031 55.9375 -42.5625 C 54.207031 -45.664062 51.816406 -48.085938 48.765625 -49.828125 C 45.722656 -51.566406 42.316406 -52.4375 38.546875 -52.4375 C 34.773438 -52.4375 31.363281 -51.566406 28.3125 -49.828125 C 25.269531 -48.085938 22.878906 -45.664062 21.140625 -42.5625 C 19.410156 -39.457031 18.546875 -35.925781 18.546875 -31.96875 C 18.546875 -28.007812 19.410156 -24.476562 21.140625 -21.375 C 22.878906 -18.269531 25.269531 -15.847656 28.3125 -14.109375 C 31.363281 -12.378906 34.773438 -11.515625 38.546875 -11.515625 Z M 38.546875 -11.515625 "/></g></g><g style="fill:#f4f6fc;fill-opacity:1;"><g transform="translate(31.302052, 113.906296)"><path style="stroke:none" d="M 38.1875 1.09375 C 31.664062 1.09375 25.769531 -0.320312 20.5 -3.15625 C 15.238281 -5.988281 11.097656 -9.914062 8.078125 -14.9375 C 5.066406 -19.957031 3.5625 -25.632812 3.5625 -31.96875 C 3.5625 -38.300781 5.066406 -43.976562 8.078125 -49 C 11.097656 -54.03125 15.238281 -57.957031 20.5 -60.78125 C 25.769531 -63.613281 31.691406 -65.03125 38.265625 -65.03125 C 43.804688 -65.03125 48.816406 -64.054688 53.296875 -62.109375 C 57.773438 -60.160156 61.535156 -57.359375 64.578125 -53.703125 L 55.078125 -44.9375 C 50.753906 -49.9375 45.394531 -52.4375 39 -52.4375 C 35.039062 -52.4375 31.507812 -51.566406 28.40625 -49.828125 C 25.300781 -48.085938 22.878906 -45.664062 21.140625 -42.5625 C 19.410156 -39.457031 18.546875 -35.925781 18.546875 -31.96875 C 18.546875 -28.007812 19.410156 -24.476562 21.140625 -21.375 C 22.878906 -18.269531 25.300781 -15.847656 28.40625 -14.109375 C 31.507812 -12.378906 35.039062 -11.515625 39 -11.515625 C 45.394531 -11.515625 50.753906 -14.039062 55.078125 -19.09375 L 64.578125 -10.328125 C 61.535156 -6.609375 57.757812 -3.773438 53.25 -1.828125 C 48.75 0.117188 43.726562 1.09375 38.1875 1.09375 Z M 38.1875 1.09375 "/></g></g><g style="fill:#f4f6fc;fill-opacity:1;"><g transform="translate(96.886788, 113.906296)"><path style="stroke:none" d="M 38.546875 1.09375 C 31.910156 1.09375 25.925781 -0.332031 20.59375 -3.1875 C 15.269531 -6.050781 11.097656 -9.992188 8.078125 -15.015625 C 5.066406 -20.046875 3.5625 -25.695312 3.5625 -31.96875 C 3.5625 -38.238281 5.066406 -43.882812 8.078125 -48.90625 C 11.097656 -53.9375 15.269531 -57.878906 20.59375 -60.734375 C 25.925781 -63.597656 31.910156 -65.03125 38.546875 -65.03125 C 45.179688 -65.03125 51.144531 -63.597656 56.4375 -60.734375 C 61.738281 -57.878906 65.910156 -53.9375 68.953125 -48.90625 C 72.003906 -43.882812 73.53125 -38.238281 73.53125 -31.96875 C 73.53125 -25.695312 72.003906 -20.046875 68.953125 -15.015625 C 65.910156 -9.992188 61.738281 -6.050781 56.4375 -3.1875 C 51.144531 -0.332031 45.179688 1.09375 38.546875 1.09375 Z M 38.546875 -11.515625 C 42.316406 -11.515625 45.722656 -12.378906 48.765625 -14.109375 C 51.816406 -15.847656 54.207031 -18.269531 55.9375 -21.375 C 57.675781 -24.476562 58.546875 -28.007812 58.546875 -31.96875 C 58.546875 -35.925781 57.675781 -39.457031 55.9375 -42.5625 C 54.207031 -45.664062 51.816406 -48.085938 48.765625 -49.828125 C 45.722656 -51.566406 42.316406 -52.4375 38.546875 -52.4375 C 34.773438 -52.4375 31.363281 -51.566406 28.3125 -49.828125 C 25.269531 -48.085938 22.878906 -45.664062 21.140625 -42.5625 C 19.410156 -39.457031 18.546875 -35.925781 18.546875 -31.96875 C 18.546875 -28.007812 19.410156 -24.476562 21.140625 -21.375 C 22.878906 -18.269531 25.269531 -15.847656 28.3125 -14.109375 C 31.363281 -12.378906 34.773438 -11.515625 38.546875 -11.515625 Z M 38.546875 -11.515625 "/></g></g></g></svg>