<svg xmlns="http://www.w3.org/2000/svg" xmlns:xlink="http://www.w3.org/1999/xlink" width="331" zoomAndPan="magnify" viewBox="0 0 248.25 248.249984" height="331" preserveAspectRatio="xMidYMid meet" version="1.2"><defs><filter x="0%" y="0%" width="100%" filterUnits="objectBoundingBox" id="52ff04689a" height="100%"><feColorMatrix values="0 0 0 0 1 0 0 0 0 1 0 0 0 0 1 0 0 0 1 0" type="matrix" in="SourceGraphic"/></filter><clipPath id="d5a66cd0a2"><path d="M 231 231 L 246.753906 231 L 246.753906 246.753906 L 231 246.753906 Z M 231 231 "/></clipPath><clipPath id="3f8e9ab03f"><rect x="0" width="247" y="0" height="247"/></clipPath><clipPath id="a90009ffa6"><path d="M 0 0.875 L 2.046875 0.875 L 2.046875 2.921875 L 0 2.921875 Z M 0 0.875 "/></clipPath><clipPath id="a42bf01252"><path d="M 1.023438 0.875 C 0.457031 0.875 0 1.332031 0 1.898438 C 0 2.464844 0.457031 2.921875 1.023438 2.921875 C 1.589844 2.921875 2.046875 2.464844 2.046875 1.898438 C 2.046875 1.332031 1.589844 0.875 1.023438 0.875 Z M 1.023438 0.875 "/></clipPath><clipPath id="747bbe48b3"><rect x="0" width="3" y="0" height="4"/></clipPath></defs><g id="bf77c45e39"><g mask="url(#1a1e378ab4)" transform="matrix(1,0,0,1,0,-0.000000000000079736)"><g clip-path="url(#3f8e9ab03f)"><g clip-rule="nonzero" clip-path="url(#d5a66cd0a2)"><path style=" stroke:none;fill-rule:nonzero;fill:#8c52ff;fill-opacity:1;" d="M 246.753906 238.878906 C 246.753906 243.230469 243.230469 246.753906 238.878906 246.753906 C 234.53125 246.753906 231.003906 243.230469 231.003906 238.878906 C 231.003906 234.53125 234.53125 231.003906 238.878906 231.003906 C 243.230469 231.003906 246.753906 234.53125 246.753906 238.878906 Z M 246.753906 238.878906 "/></g><path style=" stroke:none;fill-rule:nonzero;fill:#8c52ff;fill-opacity:1;" d="M 245.878906 209.128906 C 245.878906 212.996094 242.746094 216.128906 238.878906 216.128906 C 235.011719 216.128906 231.878906 212.996094 231.878906 209.128906 C 231.878906 205.261719 235.011719 202.128906 238.878906 202.128906 C 242.746094 202.128906 245.878906 205.261719 245.878906 209.128906 Z M 245.878906 209.128906 "/><path style=" stroke:none;fill-rule:nonzero;fill:#8c52ff;fill-opacity:1;" d="M 245.003906 179.378906 C 245.003906 182.761719 242.261719 185.503906 238.878906 185.503906 C 235.496094 185.503906 232.753906 182.761719 232.753906 179.378906 C 232.753906 175.996094 235.496094 173.253906 238.878906 173.253906 C 242.261719 173.253906 245.003906 175.996094 245.003906 179.378906 Z M 245.003906 179.378906 "/><path style=" stroke:none;fill-rule:nonzero;fill:#8c52ff;fill-opacity:1;" d="M 215.253906 179.378906 C 215.253906 182.761719 212.511719 185.503906 209.128906 185.503906 C 205.746094 185.503906 203.003906 182.761719 203.003906 179.378906 C 203.003906 175.996094 205.746094 173.253906 209.128906 173.253906 C 212.511719 173.253906 215.253906 175.996094 215.253906 179.378906 Z M 215.253906 179.378906 "/><path style=" stroke:none;fill-rule:nonzero;fill:#8c52ff;fill-opacity:1;" d="M 244.128906 149.628906 C 244.128906 152.527344 241.777344 154.878906 238.878906 154.878906 C 235.980469 154.878906 233.628906 152.527344 233.628906 149.628906 C 233.628906 146.726562 235.980469 144.378906 238.878906 144.378906 C 241.777344 144.378906 244.128906 146.726562 244.128906 149.628906 Z M 244.128906 149.628906 "/><path style=" stroke:none;fill-rule:nonzero;fill:#8c52ff;fill-opacity:1;" d="M 214.378906 149.628906 C 214.378906 152.527344 212.027344 154.878906 209.128906 154.878906 C 206.230469 154.878906 203.878906 152.527344 203.878906 149.628906 C 203.878906 146.726562 206.230469 144.378906 209.128906 144.378906 C 212.027344 144.378906 214.378906 146.726562 214.378906 149.628906 Z M 214.378906 149.628906 "/><path style=" stroke:none;fill-rule:nonzero;fill:#8c52ff;fill-opacity:1;" d="M 184.628906 149.628906 C 184.628906 152.527344 182.277344 154.878906 179.378906 154.878906 C 176.476562 154.878906 174.128906 152.527344 174.128906 149.628906 C 174.128906 146.726562 176.476562 144.378906 179.378906 144.378906 C 182.277344 144.378906 184.628906 146.726562 184.628906 149.628906 Z M 184.628906 149.628906 "/><path style=" stroke:none;fill-rule:nonzero;fill:#8c52ff;fill-opacity:1;" d="M 243.253906 119.878906 C 243.253906 122.292969 241.296875 124.253906 238.878906 124.253906 C 236.464844 124.253906 234.503906 122.292969 234.503906 119.878906 C 234.503906 117.460938 236.464844 115.503906 238.878906 115.503906 C 241.296875 115.503906 243.253906 117.460938 243.253906 119.878906 Z M 243.253906 119.878906 "/><path style=" stroke:none;fill-rule:nonzero;fill:#8c52ff;fill-opacity:1;" d="M 213.503906 119.878906 C 213.503906 122.292969 211.542969 124.253906 209.128906 124.253906 C 206.710938 124.253906 204.753906 122.292969 204.753906 119.878906 C 204.753906 117.460938 206.710938 115.503906 209.128906 115.503906 C 211.542969 115.503906 213.503906 117.460938 213.503906 119.878906 Z M 213.503906 119.878906 "/><path style=" stroke:none;fill-rule:nonzero;fill:#8c52ff;fill-opacity:1;" d="M 183.753906 119.878906 C 183.753906 122.292969 181.792969 124.253906 179.378906 124.253906 C 176.960938 124.253906 175.003906 122.292969 175.003906 119.878906 C 175.003906 117.460938 176.960938 115.503906 179.378906 115.503906 C 181.792969 115.503906 183.753906 117.460938 183.753906 119.878906 Z M 183.753906 119.878906 "/><path style=" stroke:none;fill-rule:nonzero;fill:#8c52ff;fill-opacity:1;" d="M 154.003906 119.878906 C 154.003906 122.292969 152.042969 124.253906 149.628906 124.253906 C 147.210938 124.253906 145.253906 122.292969 145.253906 119.878906 C 145.253906 117.460938 147.210938 115.503906 149.628906 115.503906 C 152.042969 115.503906 154.003906 117.460938 154.003906 119.878906 Z M 154.003906 119.878906 "/><path style=" stroke:none;fill-rule:nonzero;fill:#8c52ff;fill-opacity:1;" d="M 242.378906 90.125 C 242.378906 92.058594 240.8125 93.625 238.878906 93.625 C 236.945312 93.625 235.378906 92.058594 235.378906 90.125 C 235.378906 88.195312 236.945312 86.625 238.878906 86.625 C 240.8125 86.625 242.378906 88.195312 242.378906 90.125 Z M 242.378906 90.125 "/><path style=" stroke:none;fill-rule:nonzero;fill:#8c52ff;fill-opacity:1;" d="M 212.628906 90.125 C 212.628906 92.058594 211.0625 93.625 209.128906 93.625 C 207.195312 93.625 205.628906 92.058594 205.628906 90.125 C 205.628906 88.195312 207.195312 86.625 209.128906 86.625 C 211.0625 86.625 212.628906 88.195312 212.628906 90.125 Z M 212.628906 90.125 "/><path style=" stroke:none;fill-rule:nonzero;fill:#8c52ff;fill-opacity:1;" d="M 182.878906 90.125 C 182.878906 92.058594 181.3125 93.625 179.378906 93.625 C 177.445312 93.625 175.878906 92.058594 175.878906 90.125 C 175.878906 88.195312 177.445312 86.625 179.378906 86.625 C 181.3125 86.625 182.878906 88.195312 182.878906 90.125 Z M 182.878906 90.125 "/><path style=" stroke:none;fill-rule:nonzero;fill:#8c52ff;fill-opacity:1;" d="M 153.128906 90.125 C 153.128906 92.058594 151.5625 93.625 149.628906 93.625 C 147.695312 93.625 146.128906 92.058594 146.128906 90.125 C 146.128906 88.195312 147.695312 86.625 149.628906 86.625 C 151.5625 86.625 153.128906 88.195312 153.128906 90.125 Z M 153.128906 90.125 "/><path style=" stroke:none;fill-rule:nonzero;fill:#8c52ff;fill-opacity:1;" d="M 123.378906 90.125 C 123.378906 92.058594 121.808594 93.625 119.878906 93.625 C 117.945312 93.625 116.378906 92.058594 116.378906 90.125 C 116.378906 88.195312 117.945312 86.625 119.878906 86.625 C 121.808594 86.625 123.378906 88.195312 123.378906 90.125 Z M 123.378906 90.125 "/><path style=" stroke:none;fill-rule:nonzero;fill:#8c52ff;fill-opacity:1;" d="M 241.503906 60.375 C 241.503906 61.824219 240.328125 63 238.878906 63 C 237.429688 63 236.253906 61.824219 236.253906 60.375 C 236.253906 58.925781 237.429688 57.75 238.878906 57.75 C 240.328125 57.75 241.503906 58.925781 241.503906 60.375 Z M 241.503906 60.375 "/><path style=" stroke:none;fill-rule:nonzero;fill:#8c52ff;fill-opacity:1;" d="M 211.753906 60.375 C 211.753906 61.824219 210.578125 63 209.128906 63 C 207.679688 63 206.503906 61.824219 206.503906 60.375 C 206.503906 58.925781 207.679688 57.75 209.128906 57.75 C 210.578125 57.75 211.753906 58.925781 211.753906 60.375 Z M 211.753906 60.375 "/><path style=" stroke:none;fill-rule:nonzero;fill:#8c52ff;fill-opacity:1;" d="M 182.003906 60.375 C 182.003906 61.824219 180.828125 63 179.378906 63 C 177.929688 63 176.753906 61.824219 176.753906 60.375 C 176.753906 58.925781 177.929688 57.75 179.378906 57.75 C 180.828125 57.75 182.003906 58.925781 182.003906 60.375 Z M 182.003906 60.375 "/><path style=" stroke:none;fill-rule:nonzero;fill:#8c52ff;fill-opacity:1;" d="M 152.253906 60.375 C 152.253906 61.824219 151.078125 63 149.628906 63 C 148.179688 63 147.003906 61.824219 147.003906 60.375 C 147.003906 58.925781 148.179688 57.75 149.628906 57.75 C 151.078125 57.75 152.253906 58.925781 152.253906 60.375 Z M 152.253906 60.375 "/><path style=" stroke:none;fill-rule:nonzero;fill:#8c52ff;fill-opacity:1;" d="M 122.503906 60.375 C 122.503906 61.824219 121.328125 63 119.878906 63 C 118.425781 63 117.253906 61.824219 117.253906 60.375 C 117.253906 58.925781 118.425781 57.75 119.878906 57.75 C 121.328125 57.75 122.503906 58.925781 122.503906 60.375 Z M 122.503906 60.375 "/><path style=" stroke:none;fill-rule:nonzero;fill:#8c52ff;fill-opacity:1;" d="M 92.75 60.375 C 92.75 61.824219 91.578125 63 90.125 63 C 88.675781 63 87.5 61.824219 87.5 60.375 C 87.5 58.925781 88.675781 57.75 90.125 57.75 C 91.578125 57.75 92.75 58.925781 92.75 60.375 Z M 92.75 60.375 "/><path style=" stroke:none;fill-rule:nonzero;fill:#8c52ff;fill-opacity:1;" d="M 240.628906 30.625 C 240.628906 31.59375 239.847656 32.375 238.878906 32.375 C 237.914062 32.375 237.128906 31.59375 237.128906 30.625 C 237.128906 29.660156 237.914062 28.875 238.878906 28.875 C 239.847656 28.875 240.628906 29.660156 240.628906 30.625 Z M 240.628906 30.625 "/><path style=" stroke:none;fill-rule:nonzero;fill:#8c52ff;fill-opacity:1;" d="M 210.878906 30.625 C 210.878906 31.59375 210.09375 32.375 209.128906 32.375 C 208.160156 32.375 207.378906 31.59375 207.378906 30.625 C 207.378906 29.660156 208.160156 28.875 209.128906 28.875 C 210.09375 28.875 210.878906 29.660156 210.878906 30.625 Z M 210.878906 30.625 "/><path style=" stroke:none;fill-rule:nonzero;fill:#8c52ff;fill-opacity:1;" d="M 181.128906 30.625 C 181.128906 31.59375 180.34375 32.375 179.378906 32.375 C 178.410156 32.375 177.628906 31.59375 177.628906 30.625 C 177.628906 29.660156 178.410156 28.875 179.378906 28.875 C 180.34375 28.875 181.128906 29.660156 181.128906 30.625 Z M 181.128906 30.625 "/><path style=" stroke:none;fill-rule:nonzero;fill:#8c52ff;fill-opacity:1;" d="M 151.378906 30.625 C 151.378906 31.59375 150.59375 32.375 149.628906 32.375 C 148.660156 32.375 147.878906 31.59375 147.878906 30.625 C 147.878906 29.660156 148.660156 28.875 149.628906 28.875 C 150.59375 28.875 151.378906 29.660156 151.378906 30.625 Z M 151.378906 30.625 "/><path style=" stroke:none;fill-rule:nonzero;fill:#8c52ff;fill-opacity:1;" d="M 239.753906 0.875 C 239.753906 1.359375 239.363281 1.75 238.878906 1.75 C 238.394531 1.75 238.003906 1.359375 238.003906 0.875 C 238.003906 0.390625 238.394531 0 238.878906 0 C 239.363281 0 239.753906 0.390625 239.753906 0.875 Z M 239.753906 0.875 "/><path style=" stroke:none;fill-rule:nonzero;fill:#8c52ff;fill-opacity:1;" d="M 210.003906 0.875 C 210.003906 1.359375 209.613281 1.75 209.128906 1.75 C 208.644531 1.75 208.253906 1.359375 208.253906 0.875 C 208.253906 0.390625 208.644531 0 209.128906 0 C 209.613281 0 210.003906 0.390625 210.003906 0.875 Z M 210.003906 0.875 "/><path style=" stroke:none;fill-rule:nonzero;fill:#8c52ff;fill-opacity:1;" d="M 209.128906 231.878906 C 212.996094 231.878906 216.128906 235.011719 216.128906 238.878906 C 216.128906 242.746094 212.996094 245.878906 209.128906 245.878906 C 205.261719 245.878906 202.128906 242.746094 202.128906 238.878906 C 202.128906 235.011719 205.261719 231.878906 209.128906 231.878906 Z M 209.128906 231.878906 "/><path style=" stroke:none;fill-rule:nonzero;fill:#8c52ff;fill-opacity:1;" d="M 209.128906 202.128906 C 212.996094 202.128906 216.128906 205.261719 216.128906 209.128906 C 216.128906 212.996094 212.996094 216.128906 209.128906 216.128906 C 205.261719 216.128906 202.128906 212.996094 202.128906 209.128906 C 202.128906 205.261719 205.261719 202.128906 209.128906 202.128906 Z M 209.128906 202.128906 "/><path style=" stroke:none;fill-rule:nonzero;fill:#8c52ff;fill-opacity:1;" d="M 179.378906 232.753906 C 182.761719 232.753906 185.503906 235.496094 185.503906 238.878906 C 185.503906 242.261719 182.761719 245.003906 179.378906 245.003906 C 175.996094 245.003906 173.253906 242.261719 173.253906 238.878906 C 173.253906 235.496094 175.996094 232.753906 179.378906 232.753906 Z M 179.378906 232.753906 "/><path style=" stroke:none;fill-rule:nonzero;fill:#8c52ff;fill-opacity:1;" d="M 179.378906 203.003906 C 182.761719 203.003906 185.503906 205.746094 185.503906 209.128906 C 185.503906 212.511719 182.761719 215.253906 179.378906 215.253906 C 175.996094 215.253906 173.253906 212.511719 173.253906 209.128906 C 173.253906 205.746094 175.996094 203.003906 179.378906 203.003906 Z M 179.378906 203.003906 "/><path style=" stroke:none;fill-rule:nonzero;fill:#8c52ff;fill-opacity:1;" d="M 179.378906 173.253906 C 182.761719 173.253906 185.503906 175.996094 185.503906 179.378906 C 185.503906 182.761719 182.761719 185.503906 179.378906 185.503906 C 175.996094 185.503906 173.253906 182.761719 173.253906 179.378906 C 173.253906 175.996094 175.996094 173.253906 179.378906 173.253906 Z M 179.378906 173.253906 "/><path style=" stroke:none;fill-rule:nonzero;fill:#8c52ff;fill-opacity:1;" d="M 149.628906 233.628906 C 152.527344 233.628906 154.878906 235.980469 154.878906 238.878906 C 154.878906 241.777344 152.527344 244.128906 149.628906 244.128906 C 146.726562 244.128906 144.378906 241.777344 144.378906 238.878906 C 144.378906 235.980469 146.726562 233.628906 149.628906 233.628906 Z M 149.628906 233.628906 "/><path style=" stroke:none;fill-rule:nonzero;fill:#8c52ff;fill-opacity:1;" d="M 149.628906 203.878906 C 152.527344 203.878906 154.878906 206.230469 154.878906 209.128906 C 154.878906 212.027344 152.527344 214.378906 149.628906 214.378906 C 146.726562 214.378906 144.378906 212.027344 144.378906 209.128906 C 144.378906 206.230469 146.726562 203.878906 149.628906 203.878906 Z M 149.628906 203.878906 "/><path style=" stroke:none;fill-rule:nonzero;fill:#8c52ff;fill-opacity:1;" d="M 149.628906 174.128906 C 152.527344 174.128906 154.878906 176.476562 154.878906 179.378906 C 154.878906 182.277344 152.527344 184.628906 149.628906 184.628906 C 146.726562 184.628906 144.378906 182.277344 144.378906 179.378906 C 144.378906 176.476562 146.726562 174.128906 149.628906 174.128906 Z M 149.628906 174.128906 "/><path style=" stroke:none;fill-rule:nonzero;fill:#8c52ff;fill-opacity:1;" d="M 149.628906 144.378906 C 152.527344 144.378906 154.878906 146.726562 154.878906 149.628906 C 154.878906 152.527344 152.527344 154.878906 149.628906 154.878906 C 146.726562 154.878906 144.378906 152.527344 144.378906 149.628906 C 144.378906 146.726562 146.726562 144.378906 149.628906 144.378906 Z M 149.628906 144.378906 "/><path style=" stroke:none;fill-rule:nonzero;fill:#8c52ff;fill-opacity:1;" d="M 119.878906 234.503906 C 122.292969 234.503906 124.253906 236.464844 124.253906 238.878906 C 124.253906 241.296875 122.292969 243.253906 119.878906 243.253906 C 117.460938 243.253906 115.503906 241.296875 115.503906 238.878906 C 115.503906 236.464844 117.460938 234.503906 119.878906 234.503906 Z M 119.878906 234.503906 "/><path style=" stroke:none;fill-rule:nonzero;fill:#8c52ff;fill-opacity:1;" d="M 119.878906 204.753906 C 122.292969 204.753906 124.253906 206.710938 124.253906 209.128906 C 124.253906 211.542969 122.292969 213.503906 119.878906 213.503906 C 117.460938 213.503906 115.503906 211.542969 115.503906 209.128906 C 115.503906 206.710938 117.460938 204.753906 119.878906 204.753906 Z M 119.878906 204.753906 "/><path style=" stroke:none;fill-rule:nonzero;fill:#8c52ff;fill-opacity:1;" d="M 119.878906 175.003906 C 122.292969 175.003906 124.253906 176.960938 124.253906 179.378906 C 124.253906 181.792969 122.292969 183.753906 119.878906 183.753906 C 117.460938 183.753906 115.503906 181.792969 115.503906 179.378906 C 115.503906 176.960938 117.460938 175.003906 119.878906 175.003906 Z M 119.878906 175.003906 "/><path style=" stroke:none;fill-rule:nonzero;fill:#8c52ff;fill-opacity:1;" d="M 119.878906 145.253906 C 122.292969 145.253906 124.253906 147.210938 124.253906 149.628906 C 124.253906 152.042969 122.292969 154.003906 119.878906 154.003906 C 117.460938 154.003906 115.503906 152.042969 115.503906 149.628906 C 115.503906 147.210938 117.460938 145.253906 119.878906 145.253906 Z M 119.878906 145.253906 "/><path style=" stroke:none;fill-rule:nonzero;fill:#8c52ff;fill-opacity:1;" d="M 119.878906 115.503906 C 122.292969 115.503906 124.253906 117.460938 124.253906 119.878906 C 124.253906 122.292969 122.292969 124.253906 119.878906 124.253906 C 117.460938 124.253906 115.503906 122.292969 115.503906 119.878906 C 115.503906 117.460938 117.460938 115.503906 119.878906 115.503906 Z M 119.878906 115.503906 "/><path style=" stroke:none;fill-rule:nonzero;fill:#8c52ff;fill-opacity:1;" d="M 90.125 235.378906 C 92.058594 235.378906 93.625 236.945312 93.625 238.878906 C 93.625 240.8125 92.058594 242.378906 90.125 242.378906 C 88.195312 242.378906 86.625 240.8125 86.625 238.878906 C 86.625 236.945312 88.195312 235.378906 90.125 235.378906 Z M 90.125 235.378906 "/><path style=" stroke:none;fill-rule:nonzero;fill:#8c52ff;fill-opacity:1;" d="M 90.125 205.628906 C 92.058594 205.628906 93.625 207.195312 93.625 209.128906 C 93.625 211.0625 92.058594 212.628906 90.125 212.628906 C 88.195312 212.628906 86.625 211.0625 86.625 209.128906 C 86.625 207.195312 88.195312 205.628906 90.125 205.628906 Z M 90.125 205.628906 "/><path style=" stroke:none;fill-rule:nonzero;fill:#8c52ff;fill-opacity:1;" d="M 90.125 175.878906 C 92.058594 175.878906 93.625 177.445312 93.625 179.378906 C 93.625 181.3125 92.058594 182.878906 90.125 182.878906 C 88.195312 182.878906 86.625 181.3125 86.625 179.378906 C 86.625 177.445312 88.195312 175.878906 90.125 175.878906 Z M 90.125 175.878906 "/><path style=" stroke:none;fill-rule:nonzero;fill:#8c52ff;fill-opacity:1;" d="M 90.125 146.128906 C 92.058594 146.128906 93.625 147.695312 93.625 149.628906 C 93.625 151.5625 92.058594 153.128906 90.125 153.128906 C 88.195312 153.128906 86.625 151.5625 86.625 149.628906 C 86.625 147.695312 88.195312 146.128906 90.125 146.128906 Z M 90.125 146.128906 "/><path style=" stroke:none;fill-rule:nonzero;fill:#8c52ff;fill-opacity:1;" d="M 90.125 116.378906 C 92.058594 116.378906 93.625 117.945312 93.625 119.878906 C 93.625 121.808594 92.058594 123.378906 90.125 123.378906 C 88.195312 123.378906 86.625 121.808594 86.625 119.878906 C 86.625 117.945312 88.195312 116.378906 90.125 116.378906 Z M 90.125 116.378906 "/><path style=" stroke:none;fill-rule:nonzero;fill:#8c52ff;fill-opacity:1;" d="M 90.125 86.625 C 92.058594 86.625 93.625 88.195312 93.625 90.125 C 93.625 92.058594 92.058594 93.625 90.125 93.625 C 88.195312 93.625 86.625 92.058594 86.625 90.125 C 86.625 88.195312 88.195312 86.625 90.125 86.625 Z M 90.125 86.625 "/><path style=" stroke:none;fill-rule:nonzero;fill:#8c52ff;fill-opacity:1;" d="M 60.375 236.253906 C 61.824219 236.253906 63 237.429688 63 238.878906 C 63 240.328125 61.824219 241.503906 60.375 241.503906 C 58.925781 241.503906 57.75 240.328125 57.75 238.878906 C 57.75 237.429688 58.925781 236.253906 60.375 236.253906 Z M 60.375 236.253906 "/><path style=" stroke:none;fill-rule:nonzero;fill:#8c52ff;fill-opacity:1;" d="M 60.375 206.503906 C 61.824219 206.503906 63 207.679688 63 209.128906 C 63 210.578125 61.824219 211.753906 60.375 211.753906 C 58.925781 211.753906 57.75 210.578125 57.75 209.128906 C 57.75 207.679688 58.925781 206.503906 60.375 206.503906 Z M 60.375 206.503906 "/><path style=" stroke:none;fill-rule:nonzero;fill:#8c52ff;fill-opacity:1;" d="M 60.375 176.753906 C 61.824219 176.753906 63 177.929688 63 179.378906 C 63 180.828125 61.824219 182.003906 60.375 182.003906 C 58.925781 182.003906 57.75 180.828125 57.75 179.378906 C 57.75 177.929688 58.925781 176.753906 60.375 176.753906 Z M 60.375 176.753906 "/><path style=" stroke:none;fill-rule:nonzero;fill:#8c52ff;fill-opacity:1;" d="M 60.375 147.003906 C 61.824219 147.003906 63 148.179688 63 149.628906 C 63 151.078125 61.824219 152.253906 60.375 152.253906 C 58.925781 152.253906 57.75 151.078125 57.75 149.628906 C 57.75 148.179688 58.925781 147.003906 60.375 147.003906 Z M 60.375 147.003906 "/><path style=" stroke:none;fill-rule:nonzero;fill:#8c52ff;fill-opacity:1;" d="M 60.375 117.253906 C 61.824219 117.253906 63 118.425781 63 119.878906 C 63 121.328125 61.824219 122.503906 60.375 122.503906 C 58.925781 122.503906 57.75 121.328125 57.75 119.878906 C 57.75 118.425781 58.925781 117.253906 60.375 117.253906 Z M 60.375 117.253906 "/><path style=" stroke:none;fill-rule:nonzero;fill:#8c52ff;fill-opacity:1;" d="M 60.375 87.5 C 61.824219 87.5 63 88.675781 63 90.125 C 63 91.578125 61.824219 92.75 60.375 92.75 C 58.925781 92.75 57.75 91.578125 57.75 90.125 C 57.75 88.675781 58.925781 87.5 60.375 87.5 Z M 60.375 87.5 "/><path style=" stroke:none;fill-rule:nonzero;fill:#8c52ff;fill-opacity:1;" d="M 30.625 237.128906 C 31.59375 237.128906 32.375 237.914062 32.375 238.878906 C 32.375 239.847656 31.59375 240.628906 30.625 240.628906 C 29.660156 240.628906 28.875 239.847656 28.875 238.878906 C 28.875 237.914062 29.660156 237.128906 30.625 237.128906 Z M 30.625 237.128906 "/><path style=" stroke:none;fill-rule:nonzero;fill:#8c52ff;fill-opacity:1;" d="M 30.625 207.378906 C 31.59375 207.378906 32.375 208.160156 32.375 209.128906 C 32.375 210.09375 31.59375 210.878906 30.625 210.878906 C 29.660156 210.878906 28.875 210.09375 28.875 209.128906 C 28.875 208.160156 29.660156 207.378906 30.625 207.378906 Z M 30.625 207.378906 "/><path style=" stroke:none;fill-rule:nonzero;fill:#8c52ff;fill-opacity:1;" d="M 30.625 177.628906 C 31.59375 177.628906 32.375 178.410156 32.375 179.378906 C 32.375 180.34375 31.59375 181.128906 30.625 181.128906 C 29.660156 181.128906 28.875 180.34375 28.875 179.378906 C 28.875 178.410156 29.660156 177.628906 30.625 177.628906 Z M 30.625 177.628906 "/><path style=" stroke:none;fill-rule:nonzero;fill:#8c52ff;fill-opacity:1;" d="M 30.625 147.878906 C 31.59375 147.878906 32.375 148.660156 32.375 149.628906 C 32.375 150.59375 31.59375 151.378906 30.625 151.378906 C 29.660156 151.378906 28.875 150.59375 28.875 149.628906 C 28.875 148.660156 29.660156 147.878906 30.625 147.878906 Z M 30.625 147.878906 "/><path style=" stroke:none;fill-rule:nonzero;fill:#8c52ff;fill-opacity:1;" d="M 0.875 238.003906 C 1.359375 238.003906 1.75 238.394531 1.75 238.878906 C 1.75 239.363281 1.359375 239.753906 0.875 239.753906 C 0.390625 239.753906 0 239.363281 0 238.878906 C 0 238.394531 0.390625 238.003906 0.875 238.003906 Z M 0.875 238.003906 "/><path style=" stroke:none;fill-rule:nonzero;fill:#8c52ff;fill-opacity:1;" d="M 0.875 208.253906 C 1.359375 208.253906 1.75 208.644531 1.75 209.128906 C 1.75 209.613281 1.359375 210.003906 0.875 210.003906 C 0.390625 210.003906 0 209.613281 0 209.128906 C 0 208.644531 0.390625 208.253906 0.875 208.253906 Z M 0.875 208.253906 "/></g><mask id="1a1e378ab4"><g filter="url(#52ff04689a)"><rect x="0" width="248.25" y="0" height="248.249984" style="fill:#000000;fill-opacity:0.29;stroke:none;"/></g></mask></g><g mask="url(#5d9a68a65d)" transform="matrix(1,0,0,1,0,178)"><g clip-path="url(#747bbe48b3)"><g clip-rule="nonzero" clip-path="url(#a90009ffa6)"><g clip-rule="nonzero" clip-path="url(#a42bf01252)"><path style=" stroke:none;fill-rule:nonzero;fill:#8c52ff;fill-opacity:1;" d="M 0 0.875 L 2.046875 0.875 L 2.046875 2.921875 L 0 2.921875 Z M 0 0.875 "/></g></g></g><mask id="5d9a68a65d"><g filter="url(#52ff04689a)"><rect x="0" width="248.25" y="0" height="248.249984" style="fill:#000000;fill-opacity:0.33;stroke:none;"/></g></mask></g></g></svg>