<svg xmlns="http://www.w3.org/2000/svg" xmlns:xlink="http://www.w3.org/1999/xlink" width="108" zoomAndPan="magnify" viewBox="0 0 81 185.999996" height="248" preserveAspectRatio="xMidYMid meet" version="1.2"><defs><filter x="0%" y="0%" width="100%" filterUnits="objectBoundingBox" id="4bfca88a86" height="100%"><feColorMatrix values="0 0 0 0 1 0 0 0 0 1 0 0 0 0 1 0 0 0 1 0" type="matrix" in="SourceGraphic"/></filter><clipPath id="a3b1bb742c"><path d="M 70 0 L 80.25 0 L 80.25 10 L 70 10 Z M 70 0 "/></clipPath><clipPath id="e88f133a55"><path d="M 70 22 L 80.25 22 L 80.25 32 L 70 32 Z M 70 22 "/></clipPath><clipPath id="cebd6ad762"><path d="M 70 44 L 80.25 44 L 80.25 54 L 70 54 Z M 70 44 "/></clipPath><clipPath id="7253af8c69"><path d="M 70 66 L 80.25 66 L 80.25 76 L 70 76 Z M 70 66 "/></clipPath><clipPath id="3f6f5347b5"><path d="M 70 88 L 80.25 88 L 80.25 98 L 70 98 Z M 70 88 "/></clipPath><clipPath id="a2bca1ee10"><path d="M 70 110 L 80.25 110 L 80.25 121 L 70 121 Z M 70 110 "/></clipPath><clipPath id="da82777c1e"><path d="M 70 133 L 80.25 133 L 80.25 143 L 70 143 Z M 70 133 "/></clipPath><clipPath id="809e2da119"><path d="M 0 155 L 10 155 L 10 164.640625 L 0 164.640625 Z M 0 155 "/></clipPath><clipPath id="10115d8a35"><path d="M 23 155 L 33 155 L 33 164.640625 L 23 164.640625 Z M 23 155 "/></clipPath><clipPath id="edb7f7993d"><path d="M 47 155 L 57 155 L 57 164.640625 L 47 164.640625 Z M 47 155 "/></clipPath><clipPath id="2a7e6f866a"><path d="M 70 155 L 80.25 155 L 80.25 164.640625 L 70 164.640625 Z M 70 155 "/></clipPath><clipPath id="2d5f86b809"><rect x="0" width="81" y="0" height="165"/></clipPath><clipPath id="72b8945cac"><path d="M 0 0.570312 L 9.332031 0.570312 L 9.332031 9.902344 L 0 9.902344 Z M 0 0.570312 "/></clipPath><clipPath id="427594b933"><path d="M 4.664062 0.570312 C 2.089844 0.570312 0 2.660156 0 5.238281 C 0 7.8125 2.089844 9.902344 4.664062 9.902344 C 7.242188 9.902344 9.332031 7.8125 9.332031 5.238281 C 9.332031 2.660156 7.242188 0.570312 4.664062 0.570312 Z M 4.664062 0.570312 "/></clipPath><clipPath id="333a0600be"><rect x="0" width="10" y="0" height="10"/></clipPath><clipPath id="8fb6a873fc"><path d="M 0.40625 0.570312 L 9.738281 0.570312 L 9.738281 9.902344 L 0.40625 9.902344 Z M 0.40625 0.570312 "/></clipPath><clipPath id="21a60b0fbf"><path d="M 5.070312 0.570312 C 2.492188 0.570312 0.40625 2.660156 0.40625 5.238281 C 0.40625 7.8125 2.492188 9.902344 5.070312 9.902344 C 7.648438 9.902344 9.738281 7.8125 9.738281 5.238281 C 9.738281 2.660156 7.648438 0.570312 5.070312 0.570312 Z M 5.070312 0.570312 "/></clipPath><clipPath id="c0741a8af5"><rect x="0" width="10" y="0" height="10"/></clipPath><clipPath id="971bbcbc00"><path d="M 0.738281 0.570312 L 10.070312 0.570312 L 10.070312 9.902344 L 0.738281 9.902344 Z M 0.738281 0.570312 "/></clipPath><clipPath id="ea75a1d660"><path d="M 5.402344 0.570312 C 2.824219 0.570312 0.738281 2.660156 0.738281 5.238281 C 0.738281 7.8125 2.824219 9.902344 5.402344 9.902344 C 7.980469 9.902344 10.070312 7.8125 10.070312 5.238281 C 10.070312 2.660156 7.980469 0.570312 5.402344 0.570312 Z M 5.402344 0.570312 "/></clipPath><clipPath id="d9d4e5c7cc"><rect x="0" width="11" y="0" height="10"/></clipPath><clipPath id="db326e31bd"><path d="M 0.128906 0.570312 L 9.460938 0.570312 L 9.460938 9.902344 L 0.128906 9.902344 Z M 0.128906 0.570312 "/></clipPath><clipPath id="e42e25a17a"><path d="M 4.796875 0.570312 C 2.21875 0.570312 0.128906 2.660156 0.128906 5.238281 C 0.128906 7.8125 2.21875 9.902344 4.796875 9.902344 C 7.375 9.902344 9.460938 7.8125 9.460938 5.238281 C 9.460938 2.660156 7.375 0.570312 4.796875 0.570312 Z M 4.796875 0.570312 "/></clipPath><clipPath id="c16c26efe9"><rect x="0" width="10" y="0" height="10"/></clipPath></defs><g id="0bc1e130dc"><g mask="url(#3548aba935)" transform="matrix(1,0,0,1,0,0)"><g clip-path="url(#2d5f86b809)"><path style=" stroke:none;fill-rule:nonzero;fill:#8c52ff;fill-opacity:1;" d="M 4.640625 9.300781 C 7.203125 9.300781 9.28125 7.222656 9.28125 4.65625 C 9.28125 2.09375 7.203125 0.0117188 4.640625 0.0117188 C 2.074219 0.0117188 -0.00390625 2.09375 -0.00390625 4.65625 C -0.00390625 7.222656 2.074219 9.300781 4.640625 9.300781 Z M 4.640625 9.300781 "/><path style=" stroke:none;fill-rule:nonzero;fill:#8c52ff;fill-opacity:1;" d="M 28.296875 9.300781 C 30.859375 9.300781 32.941406 7.222656 32.941406 4.65625 C 32.941406 2.09375 30.859375 0.0117188 28.296875 0.0117188 C 25.730469 0.0117188 23.652344 2.09375 23.652344 4.65625 C 23.652344 7.222656 25.730469 9.300781 28.296875 9.300781 Z M 28.296875 9.300781 "/><path style=" stroke:none;fill-rule:nonzero;fill:#8c52ff;fill-opacity:1;" d="M 51.953125 9.300781 C 54.519531 9.300781 56.597656 7.222656 56.597656 4.65625 C 56.597656 2.09375 54.519531 0.0117188 51.953125 0.0117188 C 49.390625 0.0117188 47.308594 2.09375 47.308594 4.65625 C 47.308594 7.222656 49.390625 9.300781 51.953125 9.300781 Z M 51.953125 9.300781 "/><g clip-rule="nonzero" clip-path="url(#a3b1bb742c)"><path style=" stroke:none;fill-rule:nonzero;fill:#8c52ff;fill-opacity:1;" d="M 75.609375 9.300781 C 78.175781 9.300781 80.253906 7.222656 80.253906 4.65625 C 80.253906 2.09375 78.175781 0.0117188 75.609375 0.0117188 C 73.046875 0.0117188 70.96875 2.09375 70.96875 4.65625 C 70.96875 7.222656 73.046875 9.300781 75.609375 9.300781 Z M 75.609375 9.300781 "/></g><path style=" stroke:none;fill-rule:nonzero;fill:#8c52ff;fill-opacity:1;" d="M 4.640625 31.46875 C 7.203125 31.46875 9.28125 29.386719 9.28125 26.824219 C 9.28125 24.257812 7.203125 22.179688 4.640625 22.179688 C 2.074219 22.179688 -0.00390625 24.257812 -0.00390625 26.824219 C -0.00390625 29.386719 2.074219 31.46875 4.640625 31.46875 Z M 4.640625 31.46875 "/><path style=" stroke:none;fill-rule:nonzero;fill:#8c52ff;fill-opacity:1;" d="M 28.296875 31.46875 C 30.859375 31.46875 32.941406 29.386719 32.941406 26.824219 C 32.941406 24.257812 30.859375 22.179688 28.296875 22.179688 C 25.730469 22.179688 23.652344 24.257812 23.652344 26.824219 C 23.652344 29.386719 25.730469 31.46875 28.296875 31.46875 Z M 28.296875 31.46875 "/><path style=" stroke:none;fill-rule:nonzero;fill:#8c52ff;fill-opacity:1;" d="M 51.953125 31.46875 C 54.519531 31.46875 56.597656 29.386719 56.597656 26.824219 C 56.597656 24.257812 54.519531 22.179688 51.953125 22.179688 C 49.390625 22.179688 47.308594 24.257812 47.308594 26.824219 C 47.308594 29.386719 49.390625 31.46875 51.953125 31.46875 Z M 51.953125 31.46875 "/><g clip-rule="nonzero" clip-path="url(#e88f133a55)"><path style=" stroke:none;fill-rule:nonzero;fill:#8c52ff;fill-opacity:1;" d="M 75.609375 31.46875 C 78.175781 31.46875 80.253906 29.386719 80.253906 26.824219 C 80.253906 24.257812 78.175781 22.179688 75.609375 22.179688 C 73.046875 22.179688 70.96875 24.257812 70.96875 26.824219 C 70.96875 29.386719 73.046875 31.46875 75.609375 31.46875 Z M 75.609375 31.46875 "/></g><path style=" stroke:none;fill-rule:nonzero;fill:#8c52ff;fill-opacity:1;" d="M 4.640625 53.632812 C 7.203125 53.632812 9.28125 51.554688 9.28125 48.988281 C 9.28125 46.425781 7.203125 44.34375 4.640625 44.34375 C 2.074219 44.34375 -0.00390625 46.425781 -0.00390625 48.988281 C -0.00390625 51.554688 2.074219 53.632812 4.640625 53.632812 Z M 4.640625 53.632812 "/><path style=" stroke:none;fill-rule:nonzero;fill:#8c52ff;fill-opacity:1;" d="M 28.296875 53.632812 C 30.859375 53.632812 32.941406 51.554688 32.941406 48.988281 C 32.941406 46.425781 30.859375 44.34375 28.296875 44.34375 C 25.730469 44.34375 23.652344 46.425781 23.652344 48.988281 C 23.652344 51.554688 25.730469 53.632812 28.296875 53.632812 Z M 28.296875 53.632812 "/><path style=" stroke:none;fill-rule:nonzero;fill:#8c52ff;fill-opacity:1;" d="M 51.953125 53.632812 C 54.519531 53.632812 56.597656 51.554688 56.597656 48.988281 C 56.597656 46.425781 54.519531 44.34375 51.953125 44.34375 C 49.390625 44.34375 47.308594 46.425781 47.308594 48.988281 C 47.308594 51.554688 49.390625 53.632812 51.953125 53.632812 Z M 51.953125 53.632812 "/><g clip-rule="nonzero" clip-path="url(#cebd6ad762)"><path style=" stroke:none;fill-rule:nonzero;fill:#8c52ff;fill-opacity:1;" d="M 75.609375 53.632812 C 78.175781 53.632812 80.253906 51.554688 80.253906 48.988281 C 80.253906 46.425781 78.175781 44.34375 75.609375 44.34375 C 73.046875 44.34375 70.96875 46.425781 70.96875 48.988281 C 70.96875 51.554688 73.046875 53.632812 75.609375 53.632812 Z M 75.609375 53.632812 "/></g><path style=" stroke:none;fill-rule:nonzero;fill:#8c52ff;fill-opacity:1;" d="M 4.640625 75.800781 C 7.203125 75.800781 9.28125 73.71875 9.28125 71.15625 C 9.28125 68.589844 7.203125 66.511719 4.640625 66.511719 C 2.074219 66.511719 -0.00390625 68.589844 -0.00390625 71.15625 C -0.00390625 73.71875 2.074219 75.800781 4.640625 75.800781 Z M 4.640625 75.800781 "/><path style=" stroke:none;fill-rule:nonzero;fill:#8c52ff;fill-opacity:1;" d="M 28.296875 75.800781 C 30.859375 75.800781 32.941406 73.71875 32.941406 71.15625 C 32.941406 68.589844 30.859375 66.511719 28.296875 66.511719 C 25.730469 66.511719 23.652344 68.589844 23.652344 71.15625 C 23.652344 73.71875 25.730469 75.800781 28.296875 75.800781 Z M 28.296875 75.800781 "/><path style=" stroke:none;fill-rule:nonzero;fill:#8c52ff;fill-opacity:1;" d="M 51.953125 75.800781 C 54.519531 75.800781 56.597656 73.71875 56.597656 71.15625 C 56.597656 68.589844 54.519531 66.511719 51.953125 66.511719 C 49.390625 66.511719 47.308594 68.589844 47.308594 71.15625 C 47.308594 73.71875 49.390625 75.800781 51.953125 75.800781 Z M 51.953125 75.800781 "/><g clip-rule="nonzero" clip-path="url(#7253af8c69)"><path style=" stroke:none;fill-rule:nonzero;fill:#8c52ff;fill-opacity:1;" d="M 75.609375 75.800781 C 78.175781 75.800781 80.253906 73.71875 80.253906 71.15625 C 80.253906 68.589844 78.175781 66.511719 75.609375 66.511719 C 73.046875 66.511719 70.96875 68.589844 70.96875 71.15625 C 70.96875 73.71875 73.046875 75.800781 75.609375 75.800781 Z M 75.609375 75.800781 "/></g><path style=" stroke:none;fill-rule:nonzero;fill:#8c52ff;fill-opacity:1;" d="M 4.640625 97.964844 C 7.203125 97.964844 9.28125 95.882812 9.28125 93.320312 C 9.28125 90.753906 7.203125 88.675781 4.640625 88.675781 C 2.074219 88.675781 -0.00390625 90.753906 -0.00390625 93.320312 C -0.00390625 95.882812 2.074219 97.964844 4.640625 97.964844 Z M 4.640625 97.964844 "/><path style=" stroke:none;fill-rule:nonzero;fill:#8c52ff;fill-opacity:1;" d="M 28.296875 97.964844 C 30.859375 97.964844 32.941406 95.882812 32.941406 93.320312 C 32.941406 90.753906 30.859375 88.675781 28.296875 88.675781 C 25.730469 88.675781 23.652344 90.753906 23.652344 93.320312 C 23.652344 95.882812 25.730469 97.964844 28.296875 97.964844 Z M 28.296875 97.964844 "/><path style=" stroke:none;fill-rule:nonzero;fill:#8c52ff;fill-opacity:1;" d="M 51.953125 97.964844 C 54.519531 97.964844 56.597656 95.882812 56.597656 93.320312 C 56.597656 90.753906 54.519531 88.675781 51.953125 88.675781 C 49.390625 88.675781 47.308594 90.753906 47.308594 93.320312 C 47.308594 95.882812 49.390625 97.964844 51.953125 97.964844 Z M 51.953125 97.964844 "/><g clip-rule="nonzero" clip-path="url(#3f6f5347b5)"><path style=" stroke:none;fill-rule:nonzero;fill:#8c52ff;fill-opacity:1;" d="M 75.609375 97.964844 C 78.175781 97.964844 80.253906 95.882812 80.253906 93.320312 C 80.253906 90.753906 78.175781 88.675781 75.609375 88.675781 C 73.046875 88.675781 70.96875 90.753906 70.96875 93.320312 C 70.96875 95.882812 73.046875 97.964844 75.609375 97.964844 Z M 75.609375 97.964844 "/></g><path style=" stroke:none;fill-rule:nonzero;fill:#8c52ff;fill-opacity:1;" d="M 4.640625 120.128906 C 7.203125 120.128906 9.28125 118.050781 9.28125 115.484375 C 9.28125 112.921875 7.203125 110.839844 4.640625 110.839844 C 2.074219 110.839844 -0.00390625 112.921875 -0.00390625 115.484375 C -0.00390625 118.050781 2.074219 120.128906 4.640625 120.128906 Z M 4.640625 120.128906 "/><path style=" stroke:none;fill-rule:nonzero;fill:#8c52ff;fill-opacity:1;" d="M 28.296875 120.128906 C 30.859375 120.128906 32.941406 118.050781 32.941406 115.484375 C 32.941406 112.921875 30.859375 110.839844 28.296875 110.839844 C 25.730469 110.839844 23.652344 112.921875 23.652344 115.484375 C 23.652344 118.050781 25.730469 120.128906 28.296875 120.128906 Z M 28.296875 120.128906 "/><path style=" stroke:none;fill-rule:nonzero;fill:#8c52ff;fill-opacity:1;" d="M 51.953125 120.128906 C 54.519531 120.128906 56.597656 118.050781 56.597656 115.484375 C 56.597656 112.921875 54.519531 110.839844 51.953125 110.839844 C 49.390625 110.839844 47.308594 112.921875 47.308594 115.484375 C 47.308594 118.050781 49.390625 120.128906 51.953125 120.128906 Z M 51.953125 120.128906 "/><g clip-rule="nonzero" clip-path="url(#a2bca1ee10)"><path style=" stroke:none;fill-rule:nonzero;fill:#8c52ff;fill-opacity:1;" d="M 75.609375 120.128906 C 78.175781 120.128906 80.253906 118.050781 80.253906 115.484375 C 80.253906 112.921875 78.175781 110.839844 75.609375 110.839844 C 73.046875 110.839844 70.96875 112.921875 70.96875 115.484375 C 70.96875 118.050781 73.046875 120.128906 75.609375 120.128906 Z M 75.609375 120.128906 "/></g><path style=" stroke:none;fill-rule:nonzero;fill:#8c52ff;fill-opacity:1;" d="M 4.640625 142.292969 C 7.203125 142.292969 9.28125 140.214844 9.28125 137.652344 C 9.28125 135.085938 7.203125 133.007812 4.640625 133.007812 C 2.074219 133.007812 -0.00390625 135.085938 -0.00390625 137.652344 C -0.00390625 140.214844 2.074219 142.292969 4.640625 142.292969 Z M 4.640625 142.292969 "/><path style=" stroke:none;fill-rule:nonzero;fill:#8c52ff;fill-opacity:1;" d="M 28.296875 142.292969 C 30.859375 142.292969 32.941406 140.214844 32.941406 137.652344 C 32.941406 135.085938 30.859375 133.007812 28.296875 133.007812 C 25.730469 133.007812 23.652344 135.085938 23.652344 137.652344 C 23.652344 140.214844 25.730469 142.292969 28.296875 142.292969 Z M 28.296875 142.292969 "/><path style=" stroke:none;fill-rule:nonzero;fill:#8c52ff;fill-opacity:1;" d="M 51.953125 142.292969 C 54.519531 142.292969 56.597656 140.214844 56.597656 137.652344 C 56.597656 135.085938 54.519531 133.007812 51.953125 133.007812 C 49.390625 133.007812 47.308594 135.085938 47.308594 137.652344 C 47.308594 140.214844 49.390625 142.292969 51.953125 142.292969 Z M 51.953125 142.292969 "/><g clip-rule="nonzero" clip-path="url(#da82777c1e)"><path style=" stroke:none;fill-rule:nonzero;fill:#8c52ff;fill-opacity:1;" d="M 75.609375 142.292969 C 78.175781 142.292969 80.253906 140.214844 80.253906 137.652344 C 80.253906 135.085938 78.175781 133.007812 75.609375 133.007812 C 73.046875 133.007812 70.96875 135.085938 70.96875 137.652344 C 70.96875 140.214844 73.046875 142.292969 75.609375 142.292969 Z M 75.609375 142.292969 "/></g><g clip-rule="nonzero" clip-path="url(#809e2da119)"><path style=" stroke:none;fill-rule:nonzero;fill:#8c52ff;fill-opacity:1;" d="M 4.640625 164.460938 C 7.203125 164.460938 9.28125 162.382812 9.28125 159.816406 C 9.28125 157.25 7.203125 155.171875 4.640625 155.171875 C 2.074219 155.171875 -0.00390625 157.25 -0.00390625 159.816406 C -0.00390625 162.382812 2.074219 164.460938 4.640625 164.460938 Z M 4.640625 164.460938 "/></g><g clip-rule="nonzero" clip-path="url(#10115d8a35)"><path style=" stroke:none;fill-rule:nonzero;fill:#8c52ff;fill-opacity:1;" d="M 28.296875 164.460938 C 30.859375 164.460938 32.941406 162.382812 32.941406 159.816406 C 32.941406 157.25 30.859375 155.171875 28.296875 155.171875 C 25.730469 155.171875 23.652344 157.25 23.652344 159.816406 C 23.652344 162.382812 25.730469 164.460938 28.296875 164.460938 Z M 28.296875 164.460938 "/></g><g clip-rule="nonzero" clip-path="url(#edb7f7993d)"><path style=" stroke:none;fill-rule:nonzero;fill:#8c52ff;fill-opacity:1;" d="M 51.953125 164.460938 C 54.519531 164.460938 56.597656 162.382812 56.597656 159.816406 C 56.597656 157.25 54.519531 155.171875 51.953125 155.171875 C 49.390625 155.171875 47.308594 157.25 47.308594 159.816406 C 47.308594 162.382812 49.390625 164.460938 51.953125 164.460938 Z M 51.953125 164.460938 "/></g><g clip-rule="nonzero" clip-path="url(#2a7e6f866a)"><path style=" stroke:none;fill-rule:nonzero;fill:#8c52ff;fill-opacity:1;" d="M 75.609375 164.460938 C 78.175781 164.460938 80.253906 162.382812 80.253906 159.816406 C 80.253906 157.25 78.175781 155.171875 75.609375 155.171875 C 73.046875 155.171875 70.96875 157.25 70.96875 159.816406 C 70.96875 162.382812 73.046875 164.460938 75.609375 164.460938 Z M 75.609375 164.460938 "/></g></g><mask id="3548aba935"><g filter="url(#4bfca88a86)"><rect x="0" width="81" y="0" height="185.999996" style="fill:#000000;fill-opacity:0.29;stroke:none;"/></g></mask></g><g mask="url(#a4938fad5b)" transform="matrix(1,0,0,1,0,176)"><g clip-path="url(#333a0600be)"><g clip-rule="nonzero" clip-path="url(#72b8945cac)"><g clip-rule="nonzero" clip-path="url(#427594b933)"><path style=" stroke:none;fill-rule:nonzero;fill:#8c52ff;fill-opacity:1;" d="M 0 0.570312 L 9.332031 0.570312 L 9.332031 9.902344 L 0 9.902344 Z M 0 0.570312 "/></g></g></g><mask id="a4938fad5b"><g filter="url(#4bfca88a86)"><rect x="0" width="81" y="0" height="185.999996" style="fill:#000000;fill-opacity:0.33;stroke:none;"/></g></mask></g><g mask="url(#c895e4d92d)" transform="matrix(1,0,0,1,24,176)"><g clip-path="url(#c0741a8af5)"><g clip-rule="nonzero" clip-path="url(#8fb6a873fc)"><g clip-rule="nonzero" clip-path="url(#21a60b0fbf)"><path style=" stroke:none;fill-rule:nonzero;fill:#8c52ff;fill-opacity:1;" d="M 0.40625 0.570312 L 9.738281 0.570312 L 9.738281 9.902344 L 0.40625 9.902344 Z M 0.40625 0.570312 "/></g></g></g><mask id="c895e4d92d"><g filter="url(#4bfca88a86)"><rect x="0" width="81" y="0" height="185.999996" style="fill:#000000;fill-opacity:0.33;stroke:none;"/></g></mask></g><g mask="url(#8987618567)" transform="matrix(1,0,0,1,48,176)"><g clip-path="url(#d9d4e5c7cc)"><g clip-rule="nonzero" clip-path="url(#971bbcbc00)"><g clip-rule="nonzero" clip-path="url(#ea75a1d660)"><path style=" stroke:none;fill-rule:nonzero;fill:#8c52ff;fill-opacity:1;" d="M 0.738281 0.570312 L 10.070312 0.570312 L 10.070312 9.902344 L 0.738281 9.902344 Z M 0.738281 0.570312 "/></g></g></g><mask id="8987618567"><g filter="url(#4bfca88a86)"><rect x="0" width="81" y="0" height="185.999996" style="fill:#000000;fill-opacity:0.33;stroke:none;"/></g></mask></g><g mask="url(#7f56cbd321)" transform="matrix(1,0,0,1,71,176)"><g clip-path="url(#c16c26efe9)"><g clip-rule="nonzero" clip-path="url(#db326e31bd)"><g clip-rule="nonzero" clip-path="url(#e42e25a17a)"><path style=" stroke:none;fill-rule:nonzero;fill:#8c52ff;fill-opacity:1;" d="M 0.128906 0.570312 L 9.460938 0.570312 L 9.460938 9.902344 L 0.128906 9.902344 Z M 0.128906 0.570312 "/></g></g></g><mask id="7f56cbd321"><g filter="url(#4bfca88a86)"><rect x="0" width="81" y="0" height="185.999996" style="fill:#000000;fill-opacity:0.33;stroke:none;"/></g></mask></g></g></svg>