<svg width="190" height="90" viewBox="0 0 190 90" fill="none" xmlns="http://www.w3.org/2000/svg">
<path d="M110.263 21.1282L98.7414 1.19749C98.3126 0.45593 97.5263 0 96.6762 0H93.331C92.477 0 91.6876 0.460017 91.2605 1.20687L89.5258 4.2389C89.102 4.97938 89.0979 5.89093 89.5145 6.63545L91.2679 9.76836C91.6902 10.5229 91.6797 11.4481 91.2407 12.1928L85.9503 21.1604C85.5191 21.8916 84.7386 22.3395 83.8958 22.3395H80.3108C79.4496 22.3395 78.6552 22.807 78.2305 23.5636L66.9123 43.7281C66.4971 44.4676 66.4976 45.373 66.9135 46.112L68.5447 49.0116C68.9696 49.767 69.7636 50.2336 70.624 50.2336H74.3509C75.1824 50.2336 75.9541 49.7974 76.3891 49.0816L78.2176 46.0724C78.6526 45.3566 79.4243 44.9204 80.2558 44.9204H90.5024C91.3928 44.9204 92.2094 45.4199 92.6219 46.2166L94.03 48.9374C94.4426 49.7342 95.2592 50.2336 96.1496 50.2336H119.121C119.925 50.2336 120.675 49.8255 121.118 49.1476L123.07 46.1565C123.565 45.3979 123.597 44.4232 123.152 43.6337L121.097 39.9833C120.672 39.2283 119.878 38.762 119.018 38.762H115.353C114.488 38.762 113.69 38.2898 113.267 37.5276L108.519 28.9722C108.107 28.2289 108.113 27.3213 108.535 26.5835L110.268 23.5539C110.698 22.803 110.696 21.8771 110.263 21.1282Z" fill="#C3362B"/>
<path d="M96.6745 22.2187H93.2191C92.361 22.2187 91.5685 22.6831 91.1428 23.4356L86.2935 32.0058C85.8723 32.7501 85.8733 33.664 86.2961 34.4071L88.1526 37.6706C88.579 38.4205 89.3701 38.8827 90.2262 38.8827H99.9603C100.845 38.8827 101.657 38.3901 102.072 37.6018L103.761 34.3948C104.15 33.6565 104.133 32.7678 103.716 32.0452L98.7409 23.4183C98.3126 22.6756 97.5256 22.2187 96.6745 22.2187Z" fill="#1E1E1E"/>
<path d="M39.9072 64.5579H52.2231C54.0167 64.5579 55.5711 64.7543 56.8864 65.1467C58.2017 65.5392 59.2929 66.1077 60.1596 66.8522C61.0267 67.5869 61.6693 68.4875 62.0878 69.5542C62.5163 70.621 62.7304 71.8234 62.7304 73.1619C62.7304 74.4196 62.5214 75.5818 62.1029 76.6485C61.6844 77.7153 61.0415 78.641 60.1746 79.4259C59.3178 80.2006 58.2316 80.8094 56.9163 81.2524C55.601 81.6849 54.0466 81.9013 52.253 81.9013L44.6453 81.8861V88.1503H39.9072V64.5579ZM52.3427 77.7505C53.2395 77.7505 54.0217 77.6447 54.6894 77.4334C55.3669 77.212 55.9298 76.9052 56.3782 76.5126C56.8367 76.1102 57.1753 75.6272 57.3946 75.0635C57.6237 74.4902 57.7385 73.856 57.7385 73.1619C57.7385 71.7631 57.2851 70.6763 56.3782 69.9015C55.4814 69.1166 54.1362 68.7239 52.3427 68.7239H44.6453V77.7505H52.3427ZM67.9169 64.5579H80.2328C82.0264 64.5579 83.5809 64.7543 84.8962 65.1467C86.2115 65.5392 87.3024 66.1077 88.1696 66.8522C89.0362 67.5869 89.679 68.4875 90.0975 69.5542C90.5261 70.621 90.7404 71.8234 90.7404 73.1619C90.7404 74.4196 90.5309 75.5818 90.1124 76.6485C89.6939 77.7153 89.0513 78.641 88.1844 79.4259C87.3275 80.2006 86.2413 80.8094 84.9261 81.2524C83.6108 81.6849 82.0563 81.9013 80.2627 81.9013L72.6549 81.8861V88.1503H67.9169V64.5579ZM80.3524 77.7505C81.2492 77.7505 82.0315 77.6447 82.6989 77.4334C83.3766 77.212 83.9396 76.9052 84.388 76.5126C84.8464 76.1102 85.1851 75.6272 85.4043 75.0635C85.6334 74.4902 85.748 73.856 85.748 73.1619C85.748 71.7631 85.2948 70.6763 84.388 69.9015C83.4912 69.1166 82.146 68.7239 80.3524 68.7239H72.6549V77.7505H80.3524ZM95.9267 64.5579H100.665V83.9541H114.251V88.1503H95.9267V64.5579ZM118.855 64.5579H138.749V68.7543H123.593V73.4638H137.015V77.4032H123.593V83.9693H139.062V88.1503H118.855V64.5579ZM151.363 68.7543H142.739V64.5579H164.725V68.7543H156.101V88.1503H151.363V68.7543ZM169.792 64.5579H189.686V68.7543H174.53V73.4638H187.952V77.4032H174.53V83.9693H190V88.1503H169.792V64.5579Z" fill="white"/>
<path d="M11.9572 83.0787C11.9572 79.7441 9.28049 77.041 5.9786 77.041C2.67671 77.041 0 79.7441 0 83.0787C0 86.4132 2.67671 89.1164 5.9786 89.1164C9.28049 89.1164 11.9572 86.4132 11.9572 83.0787Z" fill="white"/>
<path d="M23.7948 87.9088L11.5985 68.9505C10.5622 67.0989 9.08759 63.275 13.1529 60.6184C17.2183 57.9619 20.128 60.5782 21.2838 61.9467L33.7193 81.0258C34.5563 82.5151 35.3694 86.1458 31.9257 88.7541C28.4821 91.3624 25.0703 89.2774 23.7948 87.9088Z" fill="white"/>
</svg>
