<svg width="204" height="40" viewBox="0 0 204 40" fill="none" xmlns="http://www.w3.org/2000/svg">
<path fill-rule="evenodd" clip-rule="evenodd" d="M8.43969 8.87223C12.2553 8.87223 16.0707 8.87223 19.8864 8.87223C19.8864 10.5765 19.8864 12.2807 19.8864 13.985C16.6717 13.9349 13.4585 13.9851 10.2471 14.1354C6.52842 15.2369 4.92187 17.7432 5.42739 21.6542C5.47761 22.7068 5.52779 23.7595 5.57801 24.8121C5.93078 25.231 6.38262 25.4819 6.93354 25.564C11.25 25.7143 15.5677 25.7646 19.8864 25.7143C19.8864 27.4187 19.8864 29.1228 19.8864 30.8271C14.664 30.8773 9.44281 30.8271 4.22247 30.6767C1.74586 29.7937 0.390324 28.0395 0.155877 25.4136C-0.177253 22.1634 0.0235771 18.9553 0.758336 15.7895C2.30132 12.3406 4.86177 10.0349 8.43969 8.87223Z" fill="#0E0E0E"/>
<path fill-rule="evenodd" clip-rule="evenodd" d="M27.4171 8.87213C31.7358 8.82202 36.0536 8.87216 40.3699 9.02251C42.4487 9.79493 43.8042 11.2486 44.4365 13.3834C44.6374 17.6942 44.6374 22.005 44.4365 26.3157C43.8042 28.4505 42.4487 29.9043 40.3699 30.6766C35.9518 30.8772 31.534 30.8772 27.1158 30.6766C24.6391 29.7936 23.2836 28.0393 23.0492 25.4135C22.8483 21.7042 22.8483 17.9949 23.0492 14.2857C23.4429 11.5802 24.8988 9.77571 27.4171 8.87213ZM29.5257 13.9849C32.3389 13.9348 35.1505 13.985 37.9601 14.1353C38.3415 14.2284 38.693 14.3787 39.0144 14.5864C39.3527 16.3091 39.5033 18.0635 39.4662 19.8496C40.6913 24.7413 38.834 26.6962 33.8935 25.7142C32.538 25.664 31.1824 25.6141 29.8269 25.5639C29.276 25.4818 28.8241 25.2309 28.4714 24.812C28.2705 21.5037 28.2705 18.1954 28.4714 14.8872C28.8163 14.5454 29.1678 14.2446 29.5257 13.9849Z" fill="#0E0E0E"/>
<path fill-rule="evenodd" clip-rule="evenodd" d="M80.1322 8.87223C85.2531 8.87223 90.374 8.87223 95.4949 8.87223C95.4949 10.5765 95.4949 12.2807 95.4949 13.985C91.0759 13.9349 86.6577 13.985 82.2408 14.1354C80.9868 14.6814 80.7355 15.5336 81.4877 16.6918C81.8091 16.8995 82.1607 17.0498 82.542 17.1429C86.8583 17.2933 91.1762 17.3434 95.4949 17.2933C95.4949 18.9976 95.4949 20.7018 95.4949 22.4061C90.3731 22.4562 85.2522 22.406 80.1322 22.2557C76.7033 20.8773 75.2474 18.3209 75.7644 14.5865C76.0716 11.7517 77.5278 9.84694 80.1322 8.87223Z" fill="#0E0E0E"/>
<path fill-rule="evenodd" clip-rule="evenodd" d="M98.5072 8.87213C104.332 8.82203 110.156 8.87213 115.979 9.02251C118.792 10.3294 120.298 12.5349 120.497 15.6391C120.323 17.1113 119.821 18.4647 118.991 19.6992C121.506 24.4099 120.402 28.0688 115.677 30.6766C109.955 30.827 104.232 30.8772 98.5072 30.827C98.5072 28.3209 98.5072 25.8144 98.5072 23.3082C100.315 23.3082 102.122 23.3082 103.929 23.3082C103.929 24.1103 103.929 24.9121 103.929 25.7142C107.244 25.7645 110.558 25.7142 113.87 25.5639C115.531 24.4153 115.431 23.4127 113.569 22.5563C109.954 22.4561 106.339 22.3558 102.724 22.2556C100.394 21.2641 99.0383 19.5097 98.6579 16.9924C98.5072 14.2875 98.4572 11.5808 98.5072 8.87213ZM103.929 13.9849C107.144 13.9348 110.357 13.985 113.569 14.1353C115.418 14.9621 115.518 15.9646 113.87 17.1428C111.059 17.3433 108.247 17.3433 105.436 17.1428C104.885 17.0606 104.433 16.8099 104.08 16.3909C103.93 15.5951 103.88 14.7931 103.929 13.9849Z" fill="#0E0E0E"/>
<path fill-rule="evenodd" clip-rule="evenodd" d="M123.208 8.87223C125.015 8.87223 126.823 8.87223 128.63 8.87223C128.63 12.6818 128.63 16.4913 128.63 20.3008C125.595 20.1284 123.838 18.5244 123.359 15.4888C123.208 13.2855 123.158 11.08 123.208 8.87223Z" fill="#0E0E0E"/>
<path fill-rule="evenodd" clip-rule="evenodd" d="M131.642 8.87223C133.45 8.87223 135.257 8.87223 137.065 8.87223C137.014 14.1865 137.065 19.4998 137.215 24.8121C137.568 25.231 138.02 25.4819 138.571 25.564C142.285 25.7143 146 25.7646 149.716 25.7143C149.716 27.4187 149.716 29.1228 149.716 30.8271C145.096 30.8773 140.477 30.8271 135.86 30.6767C133.383 29.7937 132.027 28.0395 131.793 25.4136C131.642 19.9007 131.592 14.3869 131.642 8.87223Z" fill="#0E0E0E"/>
<path fill-rule="evenodd" clip-rule="evenodd" d="M152.728 8.87223C154.536 8.87223 156.343 8.87223 158.151 8.87223C158.151 12.6818 158.151 16.4913 158.151 20.3008C155.115 20.1284 153.358 18.5244 152.879 15.4888C152.728 13.2855 152.678 11.08 152.728 8.87223Z" fill="#0E0E0E"/>
<path fill-rule="evenodd" clip-rule="evenodd" d="M161.163 8.87213C165.683 8.82202 170.201 8.87216 174.718 9.02251C177.291 9.98879 178.747 11.8434 179.086 14.5864C179.237 19.999 179.287 25.4126 179.237 30.827C177.429 30.827 175.622 30.827 173.815 30.827C173.865 25.5127 173.815 20.1995 173.664 14.8872C173.311 14.4682 172.859 14.2175 172.308 14.1353C168.595 13.9849 164.88 13.9348 161.163 13.9849C161.163 12.2806 161.163 10.5764 161.163 8.87213Z" fill="#0E0E0E"/>
<path fill-rule="evenodd" clip-rule="evenodd" d="M182.249 8.87223C184.056 8.87223 185.864 8.87223 187.671 8.87223C187.621 11.3805 187.671 13.8868 187.822 16.391C188.174 16.81 188.626 17.0607 189.177 17.1429C192.39 17.2432 195.603 17.3434 198.817 17.4437C201.961 18.5022 203.568 20.7077 203.636 24.0602C203.544 27.2569 202.038 29.4623 199.118 30.6767C193.496 30.8271 187.873 30.8773 182.249 30.8271C182.249 29.1228 182.249 27.4187 182.249 25.7143C187.07 25.7646 191.889 25.7143 196.708 25.564C198.173 25.0975 198.474 24.2455 197.612 23.0076C197.222 22.8276 196.82 22.6773 196.407 22.5564C193.093 22.4562 189.78 22.3559 186.466 22.2557C184.136 21.2642 182.78 19.5098 182.4 16.9925C182.249 14.2876 182.199 11.5809 182.249 8.87223Z" fill="#0E0E0E"/>
<path fill-rule="evenodd" clip-rule="evenodd" d="M198.214 8.87223C200.022 8.87223 201.829 8.87223 203.636 8.87223C203.636 11.3785 203.636 13.8848 203.636 16.391C201.829 16.391 200.022 16.391 198.214 16.391C198.214 13.8848 198.214 11.3785 198.214 8.87223Z" fill="#0E0E0E"/>
<path fill-rule="evenodd" clip-rule="evenodd" d="M123.208 21.203C125.015 21.203 126.823 21.203 128.63 21.203C128.63 24.4111 128.63 27.6189 128.63 30.827C126.823 30.827 125.015 30.827 123.208 30.827C123.208 27.6189 123.208 24.4111 123.208 21.203Z" fill="#0E0E0E"/>
<path fill-rule="evenodd" clip-rule="evenodd" d="M152.728 21.203C154.536 21.203 156.343 21.203 158.151 21.203C158.151 24.4111 158.151 27.6189 158.151 30.827C156.343 30.827 154.536 30.827 152.728 30.827C152.728 27.6189 152.728 24.4111 152.728 21.203Z" fill="#0E0E0E"/>
<path fill-rule="evenodd" clip-rule="evenodd" d="M75.6138 23.3084C77.4212 23.3084 79.2285 23.3084 81.0359 23.3084C80.9076 24.5111 81.4097 25.2629 82.5421 25.564C86.8584 25.7144 91.1762 25.7646 95.4949 25.7144C95.4949 27.4187 95.4949 29.1228 95.4949 30.8272C90.2725 30.8774 85.0513 30.8272 79.831 30.6768C76.7645 29.2199 75.3589 26.7637 75.6138 23.3084Z" fill="#0E0E0E"/>
<path d="M59.1101 34.4185C60.7032 32.9277 61.5981 30.9069 61.5981 28.8C61.5981 26.6931 60.7032 24.6723 59.1101 23.1815L53.1443 28.7569C52.3529 29.4944 51.725 30.3705 51.2965 31.3352C50.8681 32.2998 50.6476 33.334 50.6476 34.3785C50.6476 35.4229 50.8681 36.4571 51.2965 37.4217C51.725 38.3864 52.3529 39.2625 53.1443 40L59.1101 34.4185Z" fill="url(#paint0_linear_952_474)"/>
<path d="M49.0354 0C48.246 0.73723 47.6197 1.61262 47.1925 2.57613C46.7652 3.53965 46.5453 4.5724 46.5453 5.61538C46.5453 6.65836 46.7652 7.69112 47.1925 8.65464C47.6197 9.61815 48.246 10.4935 49.0354 11.2308L61.6387 23.0092C62.4281 23.7465 63.0544 24.6218 63.4816 25.5854C63.9089 26.5489 64.1288 27.5816 64.1288 28.6246C64.1288 29.6676 63.9089 30.7004 63.4816 31.6639C63.0544 32.6274 62.4281 33.5028 61.6387 34.24L73.6559 23.0092L49.0354 0Z" fill="url(#paint1_linear_952_474)"/>
<defs>
<linearGradient id="paint0_linear_952_474" x1="-3.5307" y1="34.8482" x2="0.188287" y2="-1.86731" gradientUnits="userSpaceOnUse">
<stop stop-color="#02FFE2"/>
<stop offset="1" stop-color="#0088D8"/>
</linearGradient>
<linearGradient id="paint1_linear_952_474" x1="59.5118" y1="32.7877" x2="60.3573" y2="2.32891" gradientUnits="userSpaceOnUse">
<stop stop-color="#02FFE2"/>
<stop offset="1" stop-color="#C108FE"/>
</linearGradient>
</defs>
</svg>
