<svg width="202" height="40" viewBox="0 0 202 40" fill="none" xmlns="http://www.w3.org/2000/svg">
<path fill-rule="evenodd" clip-rule="evenodd" d="M8.37187 8.87223C12.1568 8.87223 15.9416 8.87223 19.7266 8.87223C19.7266 10.5765 19.7266 12.2807 19.7266 13.985C16.5377 13.9349 13.3503 13.9851 10.1647 14.1354C6.47595 15.2369 4.88232 17.7432 5.38378 21.6542C5.43359 22.7068 5.48337 23.7595 5.53318 24.8121C5.88312 25.231 6.33133 25.4819 6.87782 25.564C11.1596 25.7143 15.4426 25.7646 19.7266 25.7143C19.7266 27.4187 19.7266 29.1228 19.7266 30.8271C14.5462 30.8773 9.36693 30.8271 4.18854 30.6767C1.73183 29.7937 0.387187 28.0395 0.154624 25.4136C-0.175828 22.1634 0.0233877 18.9553 0.752242 15.7895C2.28283 12.3406 4.82271 10.0349 8.37187 8.87223Z" fill="#EAEAEA"/>
<path fill-rule="evenodd" clip-rule="evenodd" d="M27.1968 8.87213C31.4808 8.82202 35.7639 8.87216 40.0455 9.0225C42.1076 9.79493 43.4522 11.2486 44.0794 13.3834C44.2788 17.6942 44.2788 22.005 44.0794 26.3157C43.4522 28.4505 42.1076 29.9043 40.0455 30.6766C35.6629 30.8772 31.2806 30.8772 26.8979 30.6766C24.4411 29.7936 23.0965 28.0393 22.864 25.4135C22.6647 21.7042 22.6647 17.9949 22.864 14.2857C23.2546 11.5802 24.6987 9.77571 27.1968 8.87213ZM29.2884 13.9849C32.079 13.9348 34.8681 13.985 37.6551 14.1353C38.0334 14.2284 38.3821 14.3787 38.7009 14.5864C39.0365 16.3091 39.1859 18.0635 39.1491 19.8496C40.3644 24.7413 38.5219 26.6962 33.6211 25.7142C32.2765 25.664 30.9319 25.6141 29.5872 25.5639C29.0407 25.4818 28.5925 25.2309 28.2426 24.812C28.0433 21.5037 28.0433 18.1954 28.2426 14.8872C28.5847 14.5454 28.9334 14.2446 29.2884 13.9849Z" fill="#EAEAEA"/>
<path fill-rule="evenodd" clip-rule="evenodd" d="M79.4883 8.87223C84.568 8.87223 89.6478 8.87223 94.7275 8.87223C94.7275 10.5765 94.7275 12.2807 94.7275 13.985C90.344 13.9349 85.9614 13.985 81.5799 14.1354C80.336 14.6814 80.0868 15.5336 80.8329 16.6918C81.1517 16.8995 81.5004 17.0498 81.8787 17.1429C86.1604 17.2933 90.4435 17.3434 94.7275 17.2933C94.7275 18.9976 94.7275 20.7018 94.7275 22.4061C89.6469 22.4562 84.5671 22.406 79.4883 22.2557C76.0869 20.8773 74.6428 18.3209 75.1555 14.5865C75.4603 11.7517 76.9048 9.84694 79.4883 8.87223Z" fill="#EAEAEA"/>
<path fill-rule="evenodd" clip-rule="evenodd" d="M97.7157 8.87213C103.493 8.82203 109.271 8.87213 115.047 9.02251C117.837 10.3294 119.332 12.5349 119.529 15.6391C119.357 17.1113 118.858 18.4647 118.035 19.6992C120.53 24.4099 119.435 28.0688 114.748 30.6766C109.071 30.827 103.394 30.8772 97.7157 30.827C97.7157 28.3209 97.7157 25.8144 97.7157 23.3082C99.5085 23.3082 101.301 23.3082 103.094 23.3082C103.094 24.1103 103.094 24.9121 103.094 25.7142C106.383 25.7645 109.67 25.7142 112.955 25.5639C114.603 24.4153 114.503 23.4127 112.656 22.5563C109.07 22.4561 105.485 22.3558 101.899 22.2556C99.5871 21.2641 98.2425 19.5097 97.8651 16.9924C97.7157 14.2875 97.6661 11.5808 97.7157 8.87213ZM103.094 13.9849C106.283 13.9348 109.471 13.985 112.656 14.1353C114.49 14.9621 114.59 15.9646 112.955 17.1428C110.166 17.3433 107.377 17.3433 104.588 17.1428C104.042 17.0606 103.594 16.8099 103.244 16.3909C103.095 15.5951 103.045 14.7931 103.094 13.9849Z" fill="#EAEAEA"/>
<path fill-rule="evenodd" clip-rule="evenodd" d="M122.218 8.87223C124.011 8.87223 125.804 8.87223 127.596 8.87223C127.596 12.6818 127.596 16.4913 127.596 20.3008C124.585 20.1284 122.842 18.5244 122.367 15.4888C122.218 13.2855 122.168 11.08 122.218 8.87223Z" fill="#EAEAEA"/>
<path fill-rule="evenodd" clip-rule="evenodd" d="M130.585 8.87223C132.377 8.87223 134.17 8.87223 135.963 8.87223C135.913 14.1865 135.963 19.4998 136.113 24.8121C136.462 25.231 136.911 25.4819 137.457 25.564C141.141 25.7143 144.826 25.7646 148.513 25.7143C148.513 27.4187 148.513 29.1228 148.513 30.8271C143.93 30.8773 139.349 30.8271 134.768 30.6767C132.311 29.7937 130.966 28.0395 130.734 25.4136C130.585 19.9007 130.535 14.3869 130.585 8.87223Z" fill="#EAEAEA"/>
<path fill-rule="evenodd" clip-rule="evenodd" d="M151.501 8.87223C153.294 8.87223 155.087 8.87223 156.88 8.87223C156.88 12.6818 156.88 16.4913 156.88 20.3008C153.869 20.1284 152.126 18.5244 151.651 15.4888C151.501 13.2855 151.452 11.08 151.501 8.87223Z" fill="#EAEAEA"/>
<path fill-rule="evenodd" clip-rule="evenodd" d="M159.868 8.87213C164.351 8.82202 168.833 8.87216 173.314 9.0225C175.866 9.98879 177.311 11.8434 177.647 14.5864C177.796 19.999 177.846 25.4126 177.796 30.827C176.004 30.827 174.211 30.827 172.418 30.827C172.468 25.5127 172.418 20.1995 172.268 14.8872C171.919 14.4682 171.47 14.2175 170.924 14.1353C167.24 13.9849 163.555 13.9348 159.868 13.9849C159.868 12.2806 159.868 10.5764 159.868 8.87213Z" fill="#EAEAEA"/>
<path fill-rule="evenodd" clip-rule="evenodd" d="M180.784 8.87223C182.577 8.87223 184.37 8.87223 186.163 8.87223C186.113 11.3805 186.163 13.8868 186.312 16.391C186.662 16.81 187.111 17.0607 187.657 17.1429C190.844 17.2432 194.032 17.3434 197.219 17.4437C200.338 18.5022 201.932 20.7077 202 24.0602C201.909 27.2569 200.415 29.4623 197.518 30.6767C191.941 30.8271 186.363 30.8773 180.784 30.8271C180.784 29.1228 180.784 27.4187 180.784 25.7143C185.566 25.7646 190.347 25.7143 195.127 25.564C196.581 25.0975 196.879 24.2455 196.024 23.0076C195.637 22.8276 195.238 22.6773 194.828 22.5564C191.542 22.4562 188.255 22.3559 184.968 22.2557C182.656 21.2642 181.311 19.5098 180.934 16.9925C180.784 14.2876 180.735 11.5809 180.784 8.87223Z" fill="#EAEAEA"/>
<path fill-rule="evenodd" clip-rule="evenodd" d="M196.621 8.87223C198.414 8.87223 200.207 8.87223 202 8.87223C202 11.3785 202 13.8848 202 16.391C200.207 16.391 198.414 16.391 196.621 16.391C196.621 13.8848 196.621 11.3785 196.621 8.87223Z" fill="#EAEAEA"/>
<path fill-rule="evenodd" clip-rule="evenodd" d="M122.218 21.203C124.011 21.203 125.804 21.203 127.597 21.203C127.597 24.4111 127.597 27.6189 127.597 30.827C125.804 30.827 124.011 30.827 122.218 30.827C122.218 27.6189 122.218 24.4111 122.218 21.203Z" fill="#EAEAEA"/>
<path fill-rule="evenodd" clip-rule="evenodd" d="M151.501 21.203C153.294 21.203 155.087 21.203 156.88 21.203C156.88 24.4111 156.88 27.6189 156.88 30.827C155.087 30.827 153.294 30.827 151.501 30.827C151.501 27.6189 151.501 24.4111 151.501 21.203Z" fill="#EAEAEA"/>
<path fill-rule="evenodd" clip-rule="evenodd" d="M75.0062 23.3084C76.799 23.3084 78.5919 23.3084 80.3847 23.3084C80.2574 24.5111 80.7556 25.263 81.8788 25.564C86.1604 25.7144 90.4435 25.7646 94.7276 25.7144C94.7276 27.4187 94.7276 29.1228 94.7276 30.8272C89.5471 30.8774 84.3679 30.8272 79.1895 30.6768C76.1476 29.2199 74.7534 26.7637 75.0062 23.3084Z" fill="#EAEAEA"/>
<path d="M58.6351 34.4185C60.2155 32.9277 61.1031 30.9069 61.1031 28.8C61.1031 26.6931 60.2155 24.6723 58.6351 23.1815L52.7173 28.7569C51.9322 29.4944 51.3093 30.3705 50.8843 31.3352C50.4593 32.2998 50.2406 33.334 50.2406 34.3785C50.2406 35.4229 50.4593 36.4571 50.8843 37.4217C51.3093 38.3864 51.9322 39.2625 52.7173 40L58.6351 34.4185Z" fill="url(#paint0_linear_949_584)"/>
<path d="M48.6414 0C47.8583 0.73723 47.2371 1.61262 46.8132 2.57613C46.3894 3.53965 46.1712 4.5724 46.1712 5.61538C46.1712 6.65836 46.3894 7.69112 46.8132 8.65464C47.2371 9.61815 47.8583 10.4935 48.6414 11.2308L61.1434 23.0092C61.9265 23.7465 62.5477 24.6218 62.9715 25.5854C63.3953 26.5489 63.6135 27.5816 63.6135 28.6246C63.6135 29.6676 63.3953 30.7004 62.9715 31.6639C62.5477 32.6274 61.9265 33.5028 61.1434 34.24L73.064 23.0092L48.6414 0Z" fill="url(#paint1_linear_949_584)"/>
<defs>
<linearGradient id="paint0_linear_949_584" x1="-3.50233" y1="34.8482" x2="0.246166" y2="-1.86124" gradientUnits="userSpaceOnUse">
<stop stop-color="#02FFE2"/>
<stop offset="1" stop-color="#0088D8"/>
</linearGradient>
<linearGradient id="paint1_linear_949_584" x1="59.0336" y1="32.7877" x2="59.8859" y2="2.32929" gradientUnits="userSpaceOnUse">
<stop stop-color="#02FFE2"/>
<stop offset="1" stop-color="#C108FE"/>
</linearGradient>
</defs>
</svg>
