<svg width="118" height="90" viewBox="0 0 118 90" fill="none" xmlns="http://www.w3.org/2000/svg">
<g clip-path="url(#clip0_925_632)">
<path d="M58.8652 42.2084L44.6191 53.4786H51.6077V89.839H58.8652V42.2084Z" fill="#EDEDED"/>
<path d="M58.8652 42.2084L73.1113 53.4786H66.1226V89.839H58.8652V42.2084Z" fill="#EDEDED"/>
<path d="M33.0615 40.5984V53.4788H43.1412L58.9999 40.5984H33.0615Z" fill="#EDEDED"/>
<path d="M84.8038 40.5984V53.4788H74.724L58.8652 40.5984H84.8038Z" fill="#EDEDED"/>
<path d="M94.4724 15.6787C94.4724 17.1234 94.2001 18.4831 93.6555 19.7578C93.1108 21.0203 92.3665 22.125 91.4225 23.0719C90.4785 24.0068 89.371 24.7473 88.1003 25.2935C86.8416 25.8399 85.4921 26.1131 84.0518 26.1131C82.6116 26.1131 81.2561 25.8399 79.9853 25.2935C78.7266 24.7473 77.6252 24.0068 76.6812 23.0719C75.7493 22.125 75.011 21.0203 74.4664 19.7578C73.9218 18.4831 73.6494 17.1234 73.6494 15.6787V0H78.8415V15.6787C78.8415 16.395 78.9748 17.0688 79.241 17.7001C79.5193 18.3314 79.8946 18.8837 80.3666 19.3572C80.8386 19.8306 81.3893 20.207 82.0186 20.4862C82.66 20.7532 83.3378 20.8868 84.0518 20.8868C84.766 20.8868 85.4376 20.7532 86.0669 20.4862C86.7085 20.207 87.2652 19.8306 87.7372 19.3572C88.2092 18.8837 88.5783 18.3314 88.8445 17.7001C89.1229 17.0688 89.2621 16.395 89.2621 15.6787V0H94.4724V15.6787Z" fill="#22C55E"/>
<path d="M103.096 33.5427H98.1035V6.61021H99.3017L101.28 8.95929C101.728 8.5344 102.218 8.13378 102.751 7.75744C103.283 7.3811 103.834 7.05939 104.403 6.79231C104.984 6.5131 105.583 6.29458 106.2 6.13676C106.817 5.97893 107.441 5.90002 108.07 5.90002C109.438 5.90002 110.721 6.14889 111.919 6.64664C113.129 7.13222 114.182 7.82421 115.078 8.72256C115.985 9.62092 116.699 10.7074 117.22 11.9821C117.74 13.2447 118 14.6469 118 16.1886C118 17.7911 117.74 19.2357 117.22 20.5226C116.699 21.7973 115.985 22.8838 115.078 23.7822C114.182 24.6684 113.129 25.3482 111.919 25.8216C110.721 26.2952 109.438 26.5319 108.07 26.5319C107.634 26.5319 107.199 26.4833 106.763 26.3861C106.339 26.2891 105.916 26.1616 105.492 26.0038C105.081 25.8338 104.669 25.6456 104.258 25.4393C103.858 25.2329 103.471 25.0205 103.096 24.802V33.5427ZM113.026 16.1886C113.026 15.3631 112.893 14.6225 112.627 13.967C112.373 13.3114 112.022 12.7592 111.574 12.3099C111.126 11.8486 110.6 11.4965 109.994 11.2537C109.389 11.0109 108.748 10.8895 108.07 10.8895C107.392 10.8895 106.751 11.0109 106.146 11.2537C105.553 11.4965 105.032 11.8486 104.585 12.3099C104.137 12.7592 103.78 13.3114 103.513 13.967C103.259 14.6225 103.132 15.3631 103.132 16.1886C103.132 16.9777 103.259 17.7001 103.513 18.3556C103.78 19.0112 104.137 19.5696 104.585 20.0309C105.032 20.4922 105.553 20.8503 106.146 21.1054C106.751 21.3603 107.392 21.4877 108.07 21.4877C108.748 21.4877 109.389 21.3603 109.994 21.1054C110.6 20.8503 111.126 20.4922 111.574 20.0309C112.022 19.5696 112.373 19.0112 112.627 18.3556C112.893 17.7001 113.026 16.9777 113.026 16.1886Z" fill="#22C55E"/>
<path d="M13.0385 26.1131H7.83768V5.22626H0V0H20.858V5.22626H13.0385V26.1131Z" fill="#EDEDED"/>
<path d="M38.8971 26.1131H37.697L35.7694 23.4362C35.2966 23.8611 34.7935 24.2617 34.2601 24.6381C33.7388 25.0022 33.1871 25.3239 32.6053 25.6031C32.0233 25.8703 31.4233 26.0827 30.8049 26.2405C30.1988 26.3983 29.5804 26.4772 28.9501 26.4772C27.5801 26.4772 26.289 26.2465 25.0766 25.7852C23.8764 25.3239 22.8218 24.6562 21.9125 23.7821C21.0154 22.8959 20.3061 21.8155 19.7849 20.5408C19.2636 19.2661 19.0029 17.8154 19.0029 16.1886C19.0029 14.6712 19.2636 13.2811 19.7849 12.0185C20.3061 10.7438 21.0154 9.65126 21.9125 8.74076C22.8218 7.83026 23.8764 7.12614 25.0766 6.62841C26.289 6.11853 27.5801 5.86359 28.9501 5.86359C29.5804 5.86359 30.2048 5.9425 30.8231 6.10032C31.4414 6.25814 32.0415 6.47666 32.6234 6.75587C33.2053 7.03509 33.7569 7.36288 34.2783 7.73922C34.8116 8.11555 35.3086 8.52224 35.7694 8.95928L37.697 6.64662H38.8971V26.1131ZM33.8963 16.1886C33.8963 15.5087 33.763 14.8532 33.4963 14.222C33.2416 13.5786 32.8901 13.0141 32.4416 12.5284C31.993 12.0307 31.4656 11.6361 30.8595 11.3448C30.2654 11.0413 29.6289 10.8895 28.9501 10.8895C28.2711 10.8895 27.6286 11.0049 27.0224 11.2355C26.4284 11.4662 25.9071 11.8061 25.4586 12.2553C25.0221 12.7045 24.6766 13.2629 24.4221 13.9306C24.1674 14.5861 24.0401 15.3389 24.0401 16.1886C24.0401 17.0384 24.1674 17.7971 24.4221 18.4648C24.6766 19.1204 25.0221 19.6728 25.4586 20.1219C25.9071 20.5711 26.4284 20.9111 27.0224 21.1417C27.6286 21.3724 28.2711 21.4877 28.9501 21.4877C29.6289 21.4877 30.2654 21.342 30.8595 21.0507C31.4656 20.7472 31.993 20.3526 32.4416 19.867C32.8901 19.3693 33.2416 18.8048 33.4963 18.1735C33.763 17.5301 33.8963 16.8685 33.8963 16.1886Z" fill="#EDEDED"/>
<path d="M47.6991 33.5427H42.6982V6.61021H43.8984L45.8806 8.95929C46.3292 8.5344 46.8202 8.13378 47.3536 7.75744C47.8871 7.3811 48.4386 7.05939 49.0084 6.79231C49.5903 6.5131 50.1904 6.29458 50.8087 6.13676C51.4271 5.97893 52.0514 5.90002 52.6818 5.90002C54.0517 5.90002 55.3368 6.14889 56.5369 6.64664C57.7493 7.13222 58.8039 7.82421 59.7011 8.72256C60.6104 9.62092 61.3256 10.7074 61.8469 11.9821C62.3683 13.2447 62.6289 14.6469 62.6289 16.1886C62.6289 17.7911 62.3683 19.2357 61.8469 20.5226C61.3256 21.7973 60.6104 22.8838 59.7011 23.7822C58.8039 24.6684 57.7493 25.3482 56.5369 25.8216C55.3368 26.2952 54.0517 26.5319 52.6818 26.5319C52.2453 26.5319 51.8089 26.4833 51.3724 26.3861C50.9481 26.2891 50.5238 26.1616 50.0996 26.0038C49.6873 25.8338 49.2751 25.6456 48.8629 25.4393C48.4629 25.2329 48.0749 25.0205 47.6991 24.802V33.5427ZM57.6462 16.1886C57.6462 15.3631 57.5129 14.6225 57.2461 13.967C56.9916 13.3114 56.6399 12.7592 56.1914 12.3099C55.7429 11.8486 55.2156 11.4965 54.6094 11.2537C54.0032 11.0109 53.3606 10.8895 52.6818 10.8895C52.0029 10.8895 51.3603 11.0109 50.7541 11.2537C50.1601 11.4965 49.6388 11.8486 49.1902 12.3099C48.7417 12.7592 48.3841 13.3114 48.1174 13.967C47.8628 14.6225 47.7354 15.3631 47.7354 16.1886C47.7354 16.9777 47.8628 17.7001 48.1174 18.3556C48.3841 19.0112 48.7417 19.5696 49.1902 20.0309C49.6388 20.4922 50.1601 20.8503 50.7541 21.1054C51.3603 21.3603 52.0029 21.4877 52.6818 21.4877C53.3606 21.4877 54.0032 21.3603 54.6094 21.1054C55.2156 20.8503 55.7429 20.4922 56.1914 20.0309C56.6399 19.5696 56.9916 19.0112 57.2461 18.3556C57.5129 17.7001 57.6462 16.9777 57.6462 16.1886Z" fill="#EDEDED"/>
</g>
<defs>
<clipPath id="clip0_925_632">
<rect width="118" height="90" fill="white"/>
</clipPath>
</defs>
</svg>
