<svg width="1000" height="764" viewBox="0 0 1000 764" fill="none" xmlns="http://www.w3.org/2000/svg">
<path d="M498.861 358.302L378.132 453.974H437.357V762.633H498.861V358.302Z" fill="#EDEDED"/>
<path d="M498.861 358.302L619.59 453.974H560.364V762.633H498.861V358.302Z" fill="#EDEDED"/>
<path d="M280.183 344.635V453.975H365.604L500 344.635H280.183Z" fill="#EDEDED"/>
<path d="M718.679 344.635V453.975H633.257L498.861 344.635H718.679Z" fill="#EDEDED"/>
<path d="M800.613 133.095C800.613 145.359 798.305 156.901 793.69 167.722C789.074 178.439 782.766 187.817 774.766 195.855C766.766 203.791 757.381 210.077 746.612 214.714C735.945 219.352 724.509 221.671 712.303 221.671C700.098 221.671 688.61 219.352 677.841 214.714C667.174 210.077 657.84 203.791 649.84 195.855C641.943 187.817 635.686 178.439 631.071 167.722C626.455 156.901 624.147 145.359 624.147 133.095V0H668.148V133.095C668.148 139.175 669.277 144.895 671.533 150.254C673.892 155.613 677.072 160.302 681.072 164.321C685.072 168.34 689.739 171.535 695.072 173.905C700.508 176.172 706.252 177.306 712.303 177.306C718.355 177.306 724.047 176.172 729.38 173.905C734.817 171.535 739.535 168.34 743.535 164.321C747.535 160.302 750.663 155.613 752.919 150.254C755.278 144.895 756.458 139.175 756.458 133.095V0H800.613V133.095Z" fill="#22C55E"/>
<path d="M873.691 284.74H831.383V56.1133H841.537L858.306 76.0544C862.101 72.4475 866.255 69.0467 870.768 65.852C875.281 62.6573 879.948 59.9263 884.768 57.6591C889.692 55.2889 894.769 53.4339 900 52.0942C905.23 50.7544 910.513 50.0846 915.846 50.0846C927.436 50.0846 938.308 52.1972 948.462 56.4225C958.719 60.5446 967.642 66.4188 975.232 74.0448C982.924 81.6709 988.976 90.8943 993.386 101.715C997.796 112.433 1000 124.336 1000 137.423C1000 151.027 997.796 163.29 993.386 174.214C988.976 185.035 982.924 194.258 975.232 201.884C967.642 209.407 958.719 215.178 948.462 219.197C938.308 223.217 927.436 225.226 915.846 225.226C912.154 225.226 908.461 224.814 904.769 223.989C901.179 223.165 897.589 222.083 893.999 220.743C890.512 219.3 887.025 217.703 883.538 215.951C880.153 214.199 876.871 212.396 873.691 210.541V284.74ZM957.847 137.423C957.847 130.416 956.719 124.129 954.462 118.564C952.308 112.999 949.334 108.311 945.539 104.497C941.744 100.581 937.282 97.5928 932.154 95.5317C927.026 93.4706 921.59 92.4401 915.846 92.4401C910.102 92.4401 904.666 93.4706 899.538 95.5317C894.512 97.5928 890.102 100.581 886.307 104.497C882.512 108.311 879.486 112.999 877.23 118.564C875.076 124.129 873.999 130.416 873.999 137.423C873.999 144.122 875.076 150.254 877.23 155.819C879.486 161.384 882.512 166.124 886.307 170.04C890.102 173.956 894.512 176.996 899.538 179.161C904.666 181.325 910.102 182.407 915.846 182.407C921.59 182.407 927.026 181.325 932.154 179.161C937.282 176.996 941.744 173.956 945.539 170.04C949.334 166.124 952.308 161.384 954.462 155.819C956.719 150.254 957.847 144.122 957.847 137.423Z" fill="#22C55E"/>
<path d="M110.496 221.671H66.421V44.3651H0V0H176.763V44.3651H110.496V221.671Z" fill="#EDEDED"/>
<path d="M329.639 221.671H319.468L303.133 198.947C299.126 202.554 294.862 205.955 290.342 209.15C285.924 212.241 281.249 214.972 276.318 217.342C271.386 219.61 266.301 221.413 261.061 222.753C255.924 224.092 250.684 224.762 245.342 224.762C233.732 224.762 222.79 222.804 212.516 218.888C202.345 214.972 193.407 209.304 185.701 201.884C178.099 194.361 172.088 185.189 167.671 174.369C163.253 163.548 161.044 151.233 161.044 137.423C161.044 124.542 163.253 112.742 167.671 102.024C172.088 91.2034 178.099 81.9285 185.701 74.1994C193.407 66.4703 202.345 60.4931 212.516 56.2679C222.79 51.9396 233.732 49.7754 245.342 49.7754C250.684 49.7754 255.975 50.4453 261.215 51.785C266.455 53.1247 271.54 54.9797 276.472 57.3499C281.403 59.7202 286.078 62.5027 290.496 65.6974C295.016 68.8921 299.228 72.3444 303.133 76.0544L319.468 56.4225H329.639V221.671ZM287.259 137.423C287.259 131.652 286.129 126.087 283.869 120.729C281.711 115.267 278.732 110.475 274.931 106.352C271.129 102.127 266.66 98.7779 261.523 96.3046C256.489 93.7283 251.095 92.4401 245.342 92.4401C239.588 92.4401 234.143 93.4191 229.006 95.3771C223.972 97.3352 219.554 100.221 215.753 104.034C212.054 107.847 209.126 112.587 206.969 118.255C204.811 123.82 203.732 130.21 203.732 137.423C203.732 144.637 204.811 151.078 206.969 156.746C209.126 162.311 212.054 167 215.753 170.813C219.554 174.626 223.972 177.512 229.006 179.47C234.143 181.428 239.588 182.407 245.342 182.407C251.095 182.407 256.489 181.17 261.523 178.697C266.66 176.121 271.129 172.771 274.931 168.649C278.732 164.424 281.711 159.632 283.869 154.273C286.129 148.811 287.259 143.195 287.259 137.423Z" fill="#EDEDED"/>
<path d="M404.228 284.74H361.848V56.1133H372.019L388.817 76.0544C392.619 72.4475 396.78 69.0467 401.3 65.852C405.821 62.6573 410.495 59.9263 415.324 57.6591C420.255 55.2889 425.341 53.4339 430.581 52.0942C435.821 50.7544 441.112 50.0846 446.454 50.0846C458.064 50.0846 468.954 52.1972 479.125 56.4225C489.399 60.5446 498.337 66.4188 505.94 74.0448C513.646 81.6709 519.707 90.8943 524.125 101.715C528.543 112.433 530.752 124.336 530.752 137.423C530.752 151.027 528.543 163.29 524.125 174.214C519.707 185.035 513.646 194.258 505.94 201.884C498.337 209.407 489.399 215.178 479.125 219.197C468.954 223.217 458.064 225.226 446.454 225.226C442.755 225.226 439.057 224.814 435.358 223.989C431.762 223.165 428.166 222.083 424.571 220.743C421.077 219.3 417.584 217.703 414.091 215.951C410.701 214.199 407.413 212.396 404.228 210.541V284.74ZM488.526 137.423C488.526 130.416 487.396 124.129 485.135 118.564C482.978 112.999 479.998 108.311 476.197 104.497C472.396 100.581 467.927 97.5928 462.79 95.5317C457.653 93.4706 452.207 92.4401 446.454 92.4401C440.701 92.4401 435.255 93.4706 430.118 95.5317C425.084 97.5928 420.666 100.581 416.865 104.497C413.064 108.311 410.033 112.999 407.773 118.564C405.615 124.129 404.536 130.416 404.536 137.423C404.536 144.122 405.615 150.254 407.773 155.819C410.033 161.384 413.064 166.124 416.865 170.04C420.666 173.956 425.084 176.996 430.118 179.161C435.255 181.325 440.701 182.407 446.454 182.407C452.207 182.407 457.653 181.325 462.79 179.161C467.927 176.996 472.396 173.956 476.197 170.04C479.998 166.124 482.978 161.384 485.135 155.819C487.396 150.254 488.526 144.122 488.526 137.423Z" fill="#EDEDED"/>
</svg>
