<svg width="1288" height="295" viewBox="0 0 1288 295" fill="none" xmlns="http://www.w3.org/2000/svg">
<path opacity="0.953" fill-rule="evenodd" clip-rule="evenodd" d="M80.4153 80.6895C103.44 80.6895 126.464 80.6895 149.489 80.6895C149.489 90.9984 149.489 101.307 149.489 111.616C130.09 111.313 110.7 111.616 91.3216 112.526C68.882 119.188 59.1875 134.348 62.238 158.006C62.5411 164.373 62.8439 170.74 63.1469 177.108C65.2756 179.642 68.0022 181.159 71.3267 181.656C97.3737 182.565 123.428 182.869 149.489 182.565C149.489 192.875 149.489 203.182 149.489 213.492C117.975 213.796 86.4685 213.492 54.9672 212.582C40.0224 207.241 31.8427 196.629 30.4279 180.746C28.4177 161.086 29.6296 141.681 34.0634 122.531C43.3743 101.669 58.8249 87.722 80.4153 80.6895Z" fill="#EAEAEA"/>
<path opacity="0.958" fill-rule="evenodd" clip-rule="evenodd" d="M194.931 80.6888C220.992 80.3857 247.047 80.689 273.093 81.5984C285.637 86.2707 293.817 95.0637 297.633 107.977C298.845 134.052 298.845 160.128 297.633 186.203C293.817 199.116 285.637 207.91 273.093 212.581C246.433 213.795 219.774 213.795 193.114 212.581C178.168 207.24 169.989 196.629 168.574 180.745C167.362 158.308 167.362 135.871 168.574 113.435C170.95 97.0697 179.735 86.1545 194.931 80.6888ZM207.655 111.615C224.631 111.312 241.598 111.616 258.552 112.525C260.853 113.088 262.974 113.998 264.914 115.254C266.955 125.674 267.864 136.286 267.64 147.09C275.033 176.679 263.825 188.504 234.012 182.565C225.833 182.261 217.653 181.959 209.473 181.655C206.148 181.158 203.422 179.641 201.293 177.107C200.081 157.096 200.081 137.084 201.293 117.073C203.375 115.006 205.496 113.186 207.655 111.615Z" fill="#EAEAEA"/>
<path opacity="0.963" fill-rule="evenodd" clip-rule="evenodd" d="M513.032 80.6895C543.934 80.6895 574.835 80.6895 605.736 80.6895C605.736 90.9984 605.736 101.307 605.736 111.616C579.07 111.313 552.41 111.616 525.756 112.526C518.189 115.828 516.673 120.983 521.212 127.989C523.152 129.245 525.273 130.155 527.574 130.718C553.62 131.627 579.676 131.93 605.736 131.627C605.736 141.936 605.736 152.245 605.736 162.554C574.83 162.857 543.928 162.554 513.032 161.644C492.341 153.306 483.556 137.843 486.675 115.254C488.53 98.1069 497.316 86.5853 513.032 80.6895Z" fill="#EAEAEA"/>
<path opacity="0.961" fill-rule="evenodd" clip-rule="evenodd" d="M623.914 80.6888C659.061 80.3858 694.205 80.6888 729.342 81.5984C746.319 89.5035 755.408 102.844 756.608 121.621C755.561 130.527 752.53 138.713 747.519 146.18C762.699 174.675 756.035 196.807 727.524 212.582C692.993 213.491 658.456 213.795 623.914 213.491C623.914 198.332 623.914 183.17 623.914 168.011C634.82 168.011 645.727 168.011 656.633 168.011C656.633 172.863 656.633 177.713 656.633 182.565C676.637 182.868 696.632 182.565 716.618 181.655C726.641 174.707 726.035 168.643 714.8 163.463C692.987 162.857 671.175 162.25 649.362 161.644C635.298 155.646 627.119 145.034 624.823 129.807C623.914 113.446 623.612 97.073 623.914 80.6888ZM656.633 111.615C676.032 111.313 695.421 111.616 714.8 112.525C725.957 117.526 726.564 123.59 716.618 130.717C699.653 131.93 682.686 131.93 665.721 130.717C662.397 130.22 659.67 128.704 657.542 126.169C656.638 121.355 656.335 116.504 656.633 111.615Z" fill="#EAEAEA"/>
<path opacity="0.917" fill-rule="evenodd" clip-rule="evenodd" d="M772.967 80.6895C783.873 80.6895 794.779 80.6895 805.686 80.6895C805.686 103.733 805.686 126.776 805.686 149.819C787.368 148.777 776.766 139.074 773.875 120.712C772.967 107.385 772.665 94.0441 772.967 80.6895Z" fill="#EAEAEA"/>
<path opacity="0.943" fill-rule="evenodd" clip-rule="evenodd" d="M823.863 80.6895C834.769 80.6895 845.676 80.6895 856.582 80.6895C856.278 112.835 856.582 144.974 857.491 177.108C859.619 179.642 862.346 181.159 865.67 181.656C888.081 182.565 910.499 182.869 932.926 182.565C932.926 192.875 932.926 203.182 932.926 213.492C905.048 213.796 877.177 213.492 849.311 212.582C834.366 207.241 826.186 196.629 824.772 180.746C823.863 147.399 823.559 114.047 823.863 80.6895Z" fill="#EAEAEA"/>
<path opacity="0.917" fill-rule="evenodd" clip-rule="evenodd" d="M951.103 80.6895C962.01 80.6895 972.916 80.6895 983.822 80.6895C983.822 103.733 983.822 126.776 983.822 149.819C965.505 148.777 954.902 139.074 952.012 120.712C951.103 107.385 950.802 94.0441 951.103 80.6895Z" fill="#EAEAEA"/>
<path opacity="0.945" fill-rule="evenodd" clip-rule="evenodd" d="M1002 80.6888C1029.27 80.3857 1056.54 80.689 1083.8 81.5984C1099.32 87.4434 1108.11 98.6619 1110.15 115.254C1111.06 147.994 1111.37 180.74 1111.06 213.491C1100.16 213.491 1089.25 213.491 1078.34 213.491C1078.65 181.346 1078.34 149.207 1077.44 117.073C1075.31 114.538 1072.58 113.023 1069.26 112.525C1046.85 111.616 1024.43 111.312 1002 111.615C1002 101.306 1002 90.9977 1002 80.6888Z" fill="#EAEAEA"/>
<path opacity="0.953" fill-rule="evenodd" clip-rule="evenodd" d="M1129.24 80.6895C1140.15 80.6895 1151.05 80.6895 1161.96 80.6895C1161.66 95.8617 1161.96 111.022 1162.87 126.17C1165 128.704 1167.72 130.22 1171.05 130.718C1190.44 131.324 1209.83 131.931 1229.21 132.537C1248.19 138.94 1257.88 152.281 1258.3 172.56C1257.74 191.896 1248.66 205.236 1231.03 212.582C1197.11 213.492 1163.18 213.796 1129.24 213.492C1129.24 203.182 1129.24 192.875 1129.24 182.565C1158.33 182.869 1187.41 182.565 1216.49 181.656C1225.33 178.834 1227.15 173.68 1221.94 166.192C1219.59 165.104 1217.17 164.194 1214.67 163.463C1194.68 162.857 1174.68 162.251 1154.69 161.644C1140.62 155.647 1132.44 145.035 1130.15 129.808C1129.24 113.446 1128.94 97.0736 1129.24 80.6895Z" fill="#EAEAEA"/>
<path opacity="0.929" fill-rule="evenodd" clip-rule="evenodd" d="M1225.58 80.6895C1236.49 80.6895 1247.39 80.6895 1258.3 80.6895C1258.3 95.8495 1258.3 111.01 1258.3 126.17C1247.39 126.17 1236.49 126.17 1225.58 126.17C1225.58 111.01 1225.58 95.8495 1225.58 80.6895Z" fill="#EAEAEA"/>
<path opacity="0.927" fill-rule="evenodd" clip-rule="evenodd" d="M772.967 155.276C783.873 155.276 794.779 155.276 805.686 155.276C805.686 174.682 805.686 194.086 805.686 213.491C794.779 213.491 783.873 213.491 772.967 213.491C772.967 194.086 772.967 174.682 772.967 155.276Z" fill="#EAEAEA"/>
<path opacity="0.927" fill-rule="evenodd" clip-rule="evenodd" d="M951.104 155.276C962.01 155.276 972.916 155.276 983.823 155.276C983.823 174.682 983.823 194.086 983.823 213.491C972.916 213.491 962.01 213.491 951.104 213.491C951.104 194.086 951.104 174.682 951.104 155.276Z" fill="#EAEAEA"/>
<path opacity="0.961" fill-rule="evenodd" clip-rule="evenodd" d="M485.767 168.012C496.673 168.012 507.58 168.012 518.486 168.012C517.711 175.287 520.742 179.835 527.574 181.656C553.621 182.565 579.676 182.869 605.736 182.565C605.736 192.875 605.736 203.182 605.736 213.492C574.223 213.796 542.716 213.492 511.215 212.582C492.711 203.77 484.229 188.913 485.767 168.012Z" fill="#EAEAEA"/>
<path d="M386.178 235.215C395.792 226.198 401.191 213.974 401.191 201.23C401.191 188.485 395.792 176.262 386.178 167.245L350.178 200.969C345.403 205.43 341.614 210.73 339.028 216.565C336.443 222.4 335.112 228.656 335.112 234.973C335.112 241.291 336.443 247.547 339.028 253.382C341.614 259.217 345.403 264.516 350.178 268.977L386.178 235.215Z" fill="url(#paint0_linear_9_6633)"/>
<path d="M325.384 27.0225C320.62 31.4819 316.841 36.777 314.263 42.6051C311.684 48.4333 310.357 54.6803 310.357 60.9892C310.357 67.298 311.684 73.5451 314.263 79.3732C316.841 85.2014 320.62 90.4965 325.384 94.9559L401.436 166.202C406.2 170.662 409.979 175.957 412.557 181.785C415.136 187.613 416.463 193.86 416.463 200.169C416.463 206.478 415.136 212.725 412.557 218.553C409.979 224.381 406.2 229.676 401.436 234.136L473.952 166.202L325.384 27.0225Z" fill="url(#paint1_linear_9_6633)"/>
<defs>
<linearGradient id="paint0_linear_9_6633" x1="307.521" y1="237.814" x2="415.709" y2="95.9601" gradientUnits="userSpaceOnUse">
<stop stop-color="#02FFE2"/>
<stop offset="1" stop-color="#0088D8"/>
</linearGradient>
<linearGradient id="paint1_linear_9_6633" x1="388.602" y1="225.351" x2="393.729" y2="41.1104" gradientUnits="userSpaceOnUse">
<stop stop-color="#02FFE2"/>
<stop offset="1" stop-color="#C108FE"/>
</linearGradient>
</defs>
</svg>
