<svg width="15" height="15" viewBox="0 0 15 15" fill="none" xmlns="http://www.w3.org/2000/svg">
<path d="M8.24583 5.25H12.3498L8.24583 1.125V5.25ZM3.02262 0H8.99201L13.469 4.5V13.5C13.469 13.8978 13.3118 14.2794 13.032 14.5607C12.7521 14.842 12.3725 15 11.9767 15H3.02262C2.62683 15 2.24724 14.842 1.96737 14.5607C1.6875 14.2794 1.53027 13.8978 1.53027 13.5V1.5C1.53027 0.6675 2.19437 0 3.02262 0ZM8.99201 13.5V12.75C8.99201 11.7525 6.99972 11.25 6.00731 11.25C5.0149 11.25 3.02262 11.7525 3.02262 12.75V13.5H8.99201ZM6.00731 7.5C5.61152 7.5 5.23194 7.65804 4.95207 7.93934C4.6722 8.22064 4.51497 8.60218 4.51497 9C4.51497 9.39783 4.6722 9.77936 4.95207 10.0607C5.23194 10.342 5.61152 10.5 6.00731 10.5C6.40311 10.5 6.78269 10.342 7.06256 10.0607C7.34243 9.77936 7.49966 9.39783 7.49966 9C7.49966 8.60218 7.34243 8.22064 7.06256 7.93934C6.78269 7.65804 6.40311 7.5 6.00731 7.5Z" fill="#EAEAEA"/>
</svg>
