<svg width="15" height="15" viewBox="0 0 15 15" fill="none" xmlns="http://www.w3.org/2000/svg">
<g clip-path="url(#clip0_20_2)">
<path d="M3.73826 3V0.749999C3.73826 0.551087 3.81752 0.360322 3.95861 0.21967C4.0997 0.0790175 4.29105 0 4.49058 0H13.5184C13.7179 0 13.9092 0.0790175 14.0503 0.21967C14.1914 0.360322 14.2707 0.551087 14.2707 0.749999V11.25C14.2707 11.4489 14.1914 11.6397 14.0503 11.7803C13.9092 11.921 13.7179 12 13.5184 12H11.2614V14.25C11.2614 14.664 10.9229 15 10.5038 15H1.48658C1.38737 15.0006 1.28902 14.9816 1.19719 14.9442C1.10535 14.9068 1.02183 14.8517 0.951432 14.782C0.881035 14.7123 0.825144 14.6294 0.786973 14.5381C0.748802 14.4468 0.729101 14.3489 0.729004 14.25L0.731261 3.75C0.731261 3.336 1.0698 3 1.48809 3H3.73826ZM5.24289 3H11.2614V10.5H12.766V1.5H5.24289V3Z" fill="#8E8E8E"/>
</g>
<defs>
<clipPath id="clip0_20_2">
<rect width="15" height="15" fill="white"/>
</clipPath>
</defs>
</svg>
