<svg width="15" height="15" viewBox="0 0 15 15" fill="none" xmlns="http://www.w3.org/2000/svg">
<g clip-path="url(#clip0_381_488)">
<path d="M4.32125 1.71312L14.0444 11.4356L11.3925 14.0875L1.67 4.36437L4.32125 1.71312ZM3.87937 1.27125L2.60875 0L0 2.65188L1.22813 3.92312L3.87937 1.27125ZM11.8925 14.4706L15 15L14.4263 11.9369L11.8925 14.4706ZM9.03813 4.66188L9.28125 4.41938L9.72313 4.86125L10.165 4.41938L9.72313 3.9775L10.165 3.53563L10.6069 3.9775L11.0494 3.535L10.6075 3.09375L11.9331 1.76812L13.2588 3.09375L10.3644 5.98813L11.235 6.85875L15 3.09375L11.9325 0L8.15437 3.77813L9.03813 4.66188ZM5.945 10.4075L3.09375 13.2581L1.76812 11.9325L2.21 11.49L2.65188 11.9319L3.09375 11.49L2.65188 11.0481L3.09375 10.6062L3.53563 11.0481L3.9775 10.6062L3.53563 10.1644L3.9775 9.7225L4.41938 10.1644L4.86125 9.7225L4.41938 9.28125L4.61875 9.08188L3.73437 8.1975L0 11.9325L3.09375 15L6.81562 11.2781L5.945 10.4075ZM12.1537 3.31437C12.2756 3.1925 12.2756 2.99438 12.1537 2.8725C12.0319 2.75063 11.8338 2.75063 11.7119 2.8725C11.59 2.99438 11.59 3.1925 11.7119 3.31437C11.8338 3.43625 12.0319 3.43687 12.1537 3.31437Z" fill="#5DFDE5"/>
</g>
<defs>
<clipPath id="clip0_381_488">
<rect width="15" height="15" fill="white"/>
</clipPath>
</defs>
</svg>
