<svg width="15" height="15" viewBox="0 0 15 15" fill="none" xmlns="http://www.w3.org/2000/svg">
<path d="M1.63636 7H14.3636C14.5324 7 14.6943 7.05268 14.8136 7.14645C14.933 7.24021 15 7.36739 15 7.5C15 7.63261 14.933 7.75979 14.8136 7.85355C14.6943 7.94732 14.5324 8 14.3636 8H1.63636C1.46759 8 1.30573 7.94732 1.18639 7.85355C1.06705 7.75979 1 7.63261 1 7.5C1 7.36739 1.06705 7.24021 1.18639 7.14645C1.30573 7.05268 1.46759 7 1.63636 7Z" fill="#EAEAEA"/>
<path d="M1.53689 7.5L6.81343 12.8891C6.93289 13.0112 7 13.1767 7 13.3493C7 13.5218 6.93289 13.6874 6.81343 13.8094C6.69397 13.9314 6.53195 14 6.36301 14C6.19407 14 6.03205 13.9314 5.91259 13.8094L0.186904 7.96014C0.127658 7.89977 0.080653 7.82805 0.0485809 7.74909C0.0165089 7.67013 0 7.58549 0 7.5C0 7.41451 0.0165089 7.32987 0.0485809 7.25091C0.080653 7.17195 0.127658 7.10023 0.186904 7.03986L5.91259 1.1906C6.03205 1.06856 6.19407 1 6.36301 1C6.53195 1 6.69397 1.06856 6.81343 1.1906C6.93289 1.31263 7 1.47815 7 1.65074C7 1.82333 6.93289 1.98884 6.81343 2.11088L1.53689 7.5Z" fill="#EAEAEA"/>
</svg>
