<svg width="15" height="15" viewBox="0 0 15 15" fill="none" xmlns="http://www.w3.org/2000/svg">
<g clip-path="url(#clip0_940_490)">
<path fill-rule="evenodd" clip-rule="evenodd" d="M5.49967 0C4.67049 0.000611621 3.99943 0.672171 4.00004 1.49969C3.99943 2.32722 4.67111 2.99878 5.50029 2.99939H7.00053V1.50031C7.00115 0.672783 6.32947 0.00122324 5.49967 0C5.50029 0 5.50029 0 5.49967 0ZM5.49967 4H1.50025C0.671067 4.00061 -0.00061117 4.67217 1.67483e-06 5.49969C-0.00122402 6.32722 0.670454 6.99878 1.49963 7H5.49967C6.32885 6.99939 7.00053 6.32783 6.99992 5.50031C7.00053 4.67217 6.32885 4.00061 5.49967 4Z" fill="#36C5F0"/>
<path fill-rule="evenodd" clip-rule="evenodd" d="M14.9999 5.49969C15.0005 4.67217 14.3289 4.00061 13.4997 4C12.6705 4.00061 11.9988 4.67217 11.9994 5.49969V7H13.4997C14.3289 6.99939 15.0005 6.32783 14.9999 5.49969ZM10.9999 5.49969V1.49969C11.0005 0.672783 10.3294 0.00122324 9.50025 0C8.67107 0.000611621 7.99939 0.672171 8 1.49969V5.49969C7.99878 6.32722 8.67045 6.99878 9.49963 7C10.3288 6.99939 11.0005 6.32783 10.9999 5.49969Z" fill="#2EB67D"/>
<path fill-rule="evenodd" clip-rule="evenodd" d="M9.50025 15C10.3294 14.9994 11.0011 14.3278 11.0005 13.5003C11.0011 12.6728 10.3294 12.0012 9.50025 12.0006H8V13.5003C7.99939 14.3272 8.67107 14.9988 9.50025 15ZM9.50025 10.9994H13.5003C14.3295 10.9988 15.0011 10.3272 15.0005 9.49969C15.0018 8.67217 14.3301 8.00061 13.5009 7.99939H9.50086C8.67168 8 8 8.67156 8.00061 9.49908C8 10.3272 8.67107 10.9988 9.50025 10.9994Z" fill="#ECB22E"/>
<path fill-rule="evenodd" clip-rule="evenodd" d="M4.1904e-07 9.49969C-0.000612426 10.3272 0.671066 10.9988 1.50025 10.9994C2.32943 10.9988 3.0011 10.3272 3.00049 9.49969V8H1.50025C0.671066 8.00061 -0.000612426 8.67217 4.1904e-07 9.49969ZM4.00004 9.49969V13.4997C3.99882 14.3272 4.67049 14.9988 5.49967 15C6.32885 14.9994 7.00053 14.3278 6.99992 13.5003V9.50092C7.00114 8.67339 6.32947 8.00183 5.50029 8.00061C4.67049 8.00061 3.99943 8.67217 4.00004 9.49969Z" fill="#E01E5A"/>
</g>
<defs>
<clipPath id="clip0_940_490">
<rect width="15" height="15" fill="white"/>
</clipPath>
</defs>
</svg>
