<svg width="15" height="15" viewBox="0 0 15 15" fill="none" xmlns="http://www.w3.org/2000/svg">
<g clip-path="url(#clip0_328_986)">
<path fill-rule="evenodd" clip-rule="evenodd" d="M15 14.375H2.5C1.12 14.375 0 13.255 0 11.875V2.06625C0.195625 1.39688 0.803125 0.625 1.875 0.625C3.03438 0.625 3.60562 1.46375 3.74687 2.07L3.75 3.125H15V14.375ZM13.75 4.375H3.75V11.25C3.75 11.25 3.38313 10.625 2.54875 10.625C1.85875 10.625 1.25 11.185 1.25 11.875C1.25 12.565 1.81 13.125 2.5 13.125H13.75V4.375ZM12.5 11.875H5V5.625H12.5V11.875ZM7.5 6.25H5.625V11.25H11.875V6.25H8.125V8.125H11.875V8.75H10.625V10.625H10V8.75H8.125V10.625H7.5V6.25Z" fill="#6A78F2"/>
</g>
<defs>
<clipPath id="clip0_328_986">
<rect width="15" height="15" fill="white"/>
</clipPath>
</defs>
</svg>
