<svg width="60" height="60" viewBox="0 0 60 60" fill="none" xmlns="http://www.w3.org/2000/svg">
<rect width="60" height="60" rx="30" fill="white" fill-opacity="0.05"/>
<path d="M21.4239 36.0433C21.3951 36.3735 21.4986 36.7017 21.7116 36.9556C21.9247 37.2095 22.2299 37.3684 22.5601 37.3973L32.5223 38.2689C32.6873 38.2862 32.8542 38.2705 33.0131 38.2227C33.1721 38.1748 33.3199 38.0958 33.448 37.9902C33.576 37.8847 33.6818 37.7546 33.7591 37.6077C33.8364 37.4608 33.8836 37.3 33.8981 37.1347C33.9125 36.9693 33.8939 36.8028 33.8433 36.6447C33.7927 36.4866 33.7112 36.3402 33.6034 36.214C33.4956 36.0878 33.3637 35.9843 33.2155 35.9096C33.0673 35.8348 32.9057 35.7904 32.7401 35.7788L25.784 35.1702L38.4649 24.5297C38.7189 24.3166 38.8778 24.0113 38.9067 23.6811C38.9356 23.3508 38.8321 23.0226 38.619 22.7686C38.4059 22.5147 38.1006 22.3558 37.7704 22.3269C37.4401 22.298 37.1119 22.4015 36.858 22.6146L24.177 33.2551L24.7856 26.299C24.8085 25.972 24.7021 25.6492 24.4892 25.3999C24.2764 25.1507 23.9741 24.995 23.6476 24.9665C23.3211 24.9379 22.9964 25.0387 22.7435 25.2472C22.4906 25.4557 22.3298 25.7552 22.2955 26.0811L21.4239 36.0433Z" fill="white"/>
</svg>
