<svg width="15" height="15" viewBox="0 0 15 15" fill="none" xmlns="http://www.w3.org/2000/svg">
<g clip-path="url(#clip0_328_992)">
<path fill-rule="evenodd" clip-rule="evenodd" d="M4.37482 12.5263C5.28159 13.0921 6.35291 13.4189 7.49999 13.4189C8.6447 13.4189 9.71424 13.0933 10.6204 12.5293L11.3544 13.4656C10.244 14.1848 8.92052 14.6026 7.49999 14.6026C6.07768 14.6026 4.75245 14.1836 3.64088 13.4627L4.37482 12.5263ZM8.16586 11.9391L7.81428 12.1706C7.7687 12.2114 7.70182 12.2351 7.63257 12.2351H7.368C7.29815 12.2351 7.23127 12.2114 7.1857 12.1706L6.83411 11.9391H8.16586ZM14.6026 11.6432H11.0513C11.0513 10.9892 11.5811 10.4594 12.2351 10.4594H13.4189C13.7326 10.4594 14.0338 10.5843 14.2558 10.8063C14.4777 11.0282 14.6026 11.3289 14.6026 11.6432ZM3.94866 11.6432H0.397339C0.397339 10.9892 0.927078 10.4594 1.58111 10.4594H2.76489C3.07859 10.4594 3.37986 10.5843 3.60182 10.8063C3.82378 11.0282 3.94866 11.3289 3.94866 11.6432ZM8.17829 11.3473C8.25997 11.3473 8.32626 11.4135 8.32626 11.4952C8.32626 11.5769 8.25997 11.6432 8.17829 11.6432H6.82938C6.7477 11.6432 6.68141 11.5769 6.68141 11.4952C6.68141 11.4135 6.7477 11.3473 6.82938 11.3473H8.17829ZM8.32449 11.0513C8.32449 9.86635 9.27565 9.37627 9.27565 8.32034C9.27565 7.21943 8.38723 6.61216 7.4994 6.61216C6.61156 6.61216 5.72433 7.21825 5.72433 8.32034C5.72433 9.37627 6.67549 9.88233 6.67549 11.0513H8.32449ZM12.827 7.49999C13.5621 7.49999 14.1587 8.09661 14.1587 8.83173C14.1587 9.56686 13.5621 10.1635 12.827 10.1635C12.0919 10.1635 11.4952 9.56686 11.4952 8.83173C11.4952 8.09661 12.0919 7.49999 12.827 7.49999ZM2.173 7.49999C2.90813 7.49999 3.50475 8.09661 3.50475 8.83173C3.50475 9.56686 2.90813 10.1635 2.173 10.1635C1.43788 10.1635 0.841254 9.56686 0.841254 8.83173C0.841254 8.09661 1.43788 7.49999 2.173 7.49999ZM9.79059 8.91164L10.589 9.27387L10.3446 9.81308L9.57633 9.46505C9.66511 9.28749 9.7391 9.10519 9.79059 8.91164ZM5.20998 8.91164C5.26147 9.10815 5.33309 9.28512 5.42306 9.46505L4.65597 9.81308L4.41093 9.27387L5.20998 8.91164ZM10.7554 7.79593V8.38782H9.86695C9.87286 8.18954 9.85511 7.99007 9.8119 7.79593H10.7554ZM5.18808 7.79593C5.14546 7.98948 5.1277 8.18835 5.13362 8.38604V8.38782H4.24461V7.79593H5.18808ZM9.28867 6.78144L10.0238 6.25939L10.3665 6.74237L9.62546 7.26797C9.53904 7.09573 9.42717 6.93296 9.28867 6.78144ZM5.7113 6.78084C5.57517 6.93 5.4639 7.09159 5.37452 7.26797L4.63407 6.74237L4.97618 6.25939L5.7113 6.78084ZM8.33632 6.16173L8.72875 5.36564L9.25967 5.62785L8.86666 6.42394C8.70211 6.31503 8.52336 6.22743 8.33632 6.16173ZM6.66365 6.16114C6.47721 6.22625 6.29786 6.31385 6.13273 6.42275L5.74031 5.62785L6.27123 5.36564L6.66365 6.16114ZM5.13244 0.80219V2.07416C3.39347 2.83473 2.08954 4.40738 1.70067 6.31089L0.496776 6.30911C0.930038 3.74742 2.73707 1.64977 5.13244 0.80219ZM9.86754 0.80219C12.2629 1.64977 14.0699 3.74742 14.5032 6.30911L13.2993 6.31089C12.9104 4.40738 11.6065 2.83473 9.86754 2.07416V0.80219ZM7.79593 6.03803C7.59824 6.01494 7.40884 6.01376 7.20404 6.03743V5.13244H7.79593V6.03803ZM9.27565 4.54055H5.72433C5.72433 3.88652 6.25406 3.35678 6.9081 3.35678H8.09188C8.40558 3.35678 8.70685 3.48166 8.9288 3.70362C9.15076 3.92558 9.27565 4.22685 9.27565 4.54055ZM7.49999 0.397339C8.23511 0.397339 8.83173 0.993961 8.83173 1.72909C8.83173 2.46421 8.23511 3.06083 7.49999 3.06083C6.76486 3.06083 6.16824 2.46421 6.16824 1.72909C6.16824 0.993961 6.76486 0.397339 7.49999 0.397339Z" fill="#6A78F2"/>
</g>
<defs>
<clipPath id="clip0_328_992">
<rect width="15" height="15" fill="white"/>
</clipPath>
</defs>
</svg>
