<svg width="15" height="15" viewBox="0 0 15 15" fill="none" xmlns="http://www.w3.org/2000/svg">
<g clip-path="url(#clip0_381_490)">
<path fill-rule="evenodd" clip-rule="evenodd" d="M3.65021 2.2144V3.37509L2.27694 3.48789C1.80515 3.52617 1.35972 3.72285 1.01186 4.04647C0.664005 4.37009 0.433809 4.80197 0.358082 5.27305C0.324844 5.48394 0.293228 5.69482 0.265665 5.90652C0.259103 5.95771 0.268836 6.00967 0.29346 6.05492C0.318083 6.10017 0.356325 6.13636 0.402669 6.15828L0.46509 6.1877C4.86622 8.28838 10.1364 8.28838 14.5367 6.1877L14.5991 6.15828C14.6453 6.13623 14.6834 6.09999 14.7079 6.05475C14.7323 6.00951 14.7419 5.95762 14.7353 5.90652C14.7078 5.69493 14.6773 5.48375 14.6437 5.27305C14.568 4.80197 14.3378 4.37009 13.9899 4.04647C13.6421 3.72285 13.1966 3.52617 12.7249 3.48789L11.3516 3.37591V2.21522C11.3517 1.87262 11.2298 1.54136 11.0081 1.2817C10.7864 1.02205 10.4797 0.851233 10.1437 0.800332L9.15466 0.650751C8.05829 0.484906 6.94351 0.484906 5.84713 0.650751L4.85811 0.800332C4.52223 0.851212 4.2156 1.02191 3.99395 1.28139C3.77229 1.54088 3.65033 1.87194 3.65021 2.2144ZM8.97388 1.86293C7.99735 1.71525 7.00444 1.71525 6.02791 1.86293L5.03889 2.01251C4.99091 2.01975 4.94709 2.04411 4.9154 2.08116C4.88372 2.1182 4.86627 2.16548 4.86622 2.2144V3.28926C6.62123 3.18789 8.38056 3.18789 10.1356 3.28926V2.2144C10.1355 2.16548 10.1181 2.1182 10.0864 2.08116C10.0547 2.04411 10.0109 2.01975 9.9629 2.01251L8.97388 1.86293Z" fill="currentColor"/>
<path d="M14.9685 7.5234C14.9668 7.49667 14.9588 7.47074 14.945 7.44783C14.9313 7.42493 14.9122 7.40573 14.8895 7.39191C14.8668 7.37808 14.8411 7.37003 14.8146 7.36845C14.7881 7.36687 14.7616 7.37181 14.7375 7.38284C10.1742 9.42263 4.82551 9.42263 0.26229 7.38284C0.238113 7.37181 0.211644 7.36687 0.185158 7.36845C0.158672 7.37003 0.132962 7.37808 0.110239 7.39191C0.0875165 7.40573 0.068461 7.42493 0.0547111 7.44783C0.0409612 7.47074 0.0329283 7.49667 0.0313035 7.5234C-0.0524072 9.10635 0.0318939 10.6938 0.282768 12.2587C0.359117 12.7353 0.591634 13.1724 0.943125 13.4999C1.29462 13.8274 1.74477 14.0265 2.22158 14.0653L3.75494 14.1893C6.24747 14.3927 8.75147 14.3927 11.2448 14.1893L12.7782 14.0653C13.255 14.0265 13.7051 13.8274 14.0566 13.4999C14.4081 13.1724 14.6406 12.7353 14.717 12.2587C14.9676 10.6918 15.0528 9.1043 14.9685 7.52423" fill="currentColor"/>
</g>
<defs>
<clipPath id="clip0_381_490">
<rect width="15" height="15" fill="white"/>
</clipPath>
</defs>
</svg>
