<svg width="15" height="15" viewBox="0 0 15 15" fill="none" xmlns="http://www.w3.org/2000/svg">
<path d="M13.125 1.875H1.875C1.18464 1.875 0.625 2.43464 0.625 3.125V5C1.31536 5 1.875 5.55964 1.875 6.25C1.875 6.94036 1.31536 7.5 0.625 7.5V9.375C0.625 10.0654 1.18464 10.625 1.875 10.625H13.125C13.8154 10.625 14.375 10.0654 14.375 9.375V7.5C13.6846 7.5 13.125 6.94036 13.125 6.25C13.125 5.55964 13.6846 5 14.375 5V3.125C14.375 2.43464 13.8154 1.875 13.125 1.875Z" stroke="#F4F4F4" stroke-width="1.2" stroke-linecap="round" stroke-linejoin="round"/>
<path d="M5.625 4.375V5.625" stroke="#F4F4F4" stroke-width="1.2" stroke-linecap="round"/>
<path d="M5.625 6.875V8.125" stroke="#F4F4F4" stroke-width="1.2" stroke-linecap="round"/>
</svg>
