<svg width="15" height="15" viewBox="0 0 15 15" fill="none" xmlns="http://www.w3.org/2000/svg">
<path d="M7.5 5.46222C6.95751 5.46222 6.43724 5.67773 6.05365 6.06132C5.67005 6.44492 5.45455 6.96519 5.45455 7.50768C5.45455 8.05017 5.67005 8.57044 6.05365 8.95403C6.43724 9.33763 6.95751 9.55313 7.5 9.55313C8.04249 9.55313 8.56276 9.33763 8.94636 8.95403C9.32995 8.57044 9.54545 8.05017 9.54545 7.50768C9.54545 6.96519 9.32995 6.44492 8.94636 6.06132C8.56276 5.67773 8.04249 5.46222 7.5 5.46222ZM7.5 10.9168C6.59585 10.9168 5.72874 10.5576 5.08941 9.91827C4.45008 9.27894 4.09091 8.41183 4.09091 7.50768C4.09091 6.60353 4.45008 5.73642 5.08941 5.09709C5.72874 4.45776 6.59585 4.09859 7.5 4.09859C8.40415 4.09859 9.27126 4.45776 9.91059 5.09709C10.5499 5.73642 10.9091 6.60353 10.9091 7.50768C10.9091 8.41183 10.5499 9.27894 9.91059 9.91827C9.27126 10.5576 8.40415 10.9168 7.5 10.9168ZM7.5 2.39404C4.09091 2.39404 1.17955 4.5145 0 7.50768C1.17955 10.5009 4.09091 12.6213 7.5 12.6213C10.9091 12.6213 13.8205 10.5009 15 7.50768C13.8205 4.5145 10.9091 2.39404 7.5 2.39404Z" fill="#EAEAEA"/>
</svg>
