<svg width="15" height="15" viewBox="0 0 15 15" fill="none" xmlns="http://www.w3.org/2000/svg">
<g clip-path="url(#clip0_328_990)">
<path d="M7.5 1.25C9.65813 1.25 11.1819 2.99812 10.9794 5.4875C12.07 5.45875 13.75 5.95687 13.75 7.8125C13.75 9.01875 12.7687 10 11.5625 10H3.4375C2.23125 10 1.25 9.01875 1.25 7.8125C1.25 6.06438 2.79938 5.41687 4.02063 5.4875C3.91625 2.85125 5.40063 1.25 7.5 1.25ZM7.5 0C4.99625 0 2.95812 1.96313 2.82562 4.4325C1.21937 4.72188 0 6.12375 0 7.8125C0 9.71062 1.53938 11.25 3.4375 11.25H11.5625C13.4606 11.25 15 9.71062 15 7.8125C15 6.12375 13.7806 4.72188 12.1744 4.4325C12.0419 1.96313 10.0038 0 7.5 0ZM5 15V13.75H6.875V12.5H8.125V13.75H10V15H5ZM10.625 13.75V15H12.5V13.75H10.625ZM4.375 13.75H2.5V15H4.375V13.75Z" fill="#6A78F2"/>
</g>
<defs>
<clipPath id="clip0_328_990">
<rect width="15" height="15" fill="white"/>
</clipPath>
</defs>
</svg>
