<svg width="15" height="15" viewBox="0 0 15 15" fill="none" xmlns="http://www.w3.org/2000/svg">
<path d="M7.5 0C3.35812 0 0 3.35812 0 7.5C0 11.6419 3.35812 15 7.5 15C11.6419 15 15 11.6419 15 7.5C15 3.35812 11.6419 0 7.5 0ZM12.3456 11.4406C12.1825 11.0744 11.8525 10.8212 11.1762 10.665C9.74312 10.3344 8.40875 10.0444 9.05563 8.82438C11.0213 5.11063 9.57625 3.125 7.5 3.125C5.3825 3.125 3.9725 5.18688 5.94437 8.82438C6.61062 10.0519 5.22687 10.3412 3.82375 10.665C3.14625 10.8212 2.81875 11.0762 2.65687 11.4437C1.77875 10.3669 1.25 8.99437 1.25 7.5C1.25 4.05375 4.05375 1.25 7.5 1.25C10.9462 1.25 13.75 4.05375 13.75 7.5C13.75 8.99312 13.2219 10.3644 12.3456 11.4406Z" fill="#EAEAEA"/>
</svg>
