<svg width="15" height="15" viewBox="0 0 15 15" fill="none" xmlns="http://www.w3.org/2000/svg">
<g clip-path="url(#clip0_383_476)">
<path d="M7.5 1.25C10.9462 1.25 13.75 4.05375 13.75 7.5C13.75 10.9462 10.9462 13.75 7.5 13.75C4.05375 13.75 1.25 10.9462 1.25 7.5C1.25 4.05375 4.05375 1.25 7.5 1.25ZM7.5 0C3.35813 0 0 3.35813 0 7.5C0 11.6419 3.35813 15 7.5 15C11.6419 15 15 11.6419 15 7.5C15 3.35813 11.6419 0 7.5 0ZM7.49937 3.59375C7.93062 3.59375 8.28125 3.94375 8.28125 4.375C8.28125 4.80625 7.93062 5.15625 7.49937 5.15625C7.06812 5.15625 6.71875 4.80625 6.71875 4.375C6.71875 3.94375 7.06812 3.59375 7.49937 3.59375ZM8.75 11.25H6.25V10.625C6.5525 10.5131 6.875 10.4994 6.875 10.1656V7.37375C6.875 7.04 6.5525 6.9875 6.25 6.87563V6.25063H8.125V10.1663C8.125 10.5006 8.44812 10.515 8.75 10.6256V11.25Z" fill="#5DFDE5"/>
</g>
<defs>
<clipPath id="clip0_383_476">
<rect width="15" height="15" fill="white"/>
</clipPath>
</defs>
</svg>
