<?xml version="1.0" encoding="UTF-8"?>
<svg xmlns="http://www.w3.org/2000/svg" xmlns:xlink="http://www.w3.org/1999/xlink" width="15px" height="15px" viewBox="0 0 15 15" version="1.1">
<g id="surface1">
<path style=" stroke:none;fill-rule:nonzero;fill:rgb(100%,100%,100%);fill-opacity:1;" d="M 11.875 1.875 C 12.207031 1.875 12.523438 2.007812 12.757812 2.242188 C 12.992188 2.476562 13.125 2.792969 13.125 3.125 L 13.125 11.875 C 13.125 12.207031 12.992188 12.523438 12.757812 12.757812 C 12.523438 12.992188 12.207031 13.125 11.875 13.125 L 3.125 13.125 C 2.792969 13.125 2.476562 12.992188 2.242188 12.757812 C 2.007812 12.523438 1.875 12.207031 1.875 11.875 L 1.875 3.125 C 1.875 2.792969 2.007812 2.476562 2.242188 2.242188 C 2.476562 2.007812 2.792969 1.875 3.125 1.875 Z M 11.5625 11.5625 L 11.5625 8.25 C 11.5625 7.710938 11.347656 7.191406 10.964844 6.808594 C 10.582031 6.425781 10.066406 6.210938 9.523438 6.210938 C 8.992188 6.210938 8.375 6.539062 8.074219 7.023438 L 8.074219 6.332031 L 6.332031 6.332031 L 6.332031 11.5625 L 8.074219 11.5625 L 8.074219 8.480469 C 8.074219 8 8.460938 7.605469 8.945312 7.605469 C 9.175781 7.605469 9.398438 7.699219 9.5625 7.863281 C 9.726562 8.027344 9.820312 8.25 9.820312 8.480469 L 9.820312 11.5625 Z M 4.300781 5.351562 C 4.578125 5.351562 4.84375 5.238281 5.042969 5.042969 C 5.238281 4.84375 5.351562 4.578125 5.351562 4.300781 C 5.351562 3.71875 4.882812 3.242188 4.300781 3.242188 C 4.019531 3.242188 3.75 3.355469 3.554688 3.554688 C 3.355469 3.75 3.242188 4.019531 3.242188 4.300781 C 3.242188 4.882812 3.71875 5.351562 4.300781 5.351562 Z M 5.167969 11.5625 L 5.167969 6.332031 L 3.4375 6.332031 L 3.4375 11.5625 Z M 5.167969 11.5625 "/>
</g>
</svg>
