<svg width="15" height="15" viewBox="0 0 15 15" fill="none" xmlns="http://www.w3.org/2000/svg">
<g clip-path="url(#clip0_328_994)">
<path d="M13.8175 7.4776C13.42 7.06956 13.3314 6.44964 13.5984 5.94494C13.789 5.58524 13.8024 5.15753 13.6341 4.78603C13.4663 4.41509 13.1363 4.14419 12.7417 4.05427C12.1893 3.92781 11.7818 3.45458 11.7367 2.88468C11.7038 2.47834 11.4853 2.11021 11.1447 1.88989C10.8053 1.66901 10.3828 1.62124 10.0021 1.76118C9.4692 1.95621 8.87279 1.77917 8.52943 1.32505C8.28418 1.00132 7.90292 0.810791 7.49825 0.810791C7.09413 0.810791 6.71287 1.00132 6.46762 1.32505C6.12593 1.77973 5.52952 1.95677 4.99664 1.76175C4.6165 1.62236 4.19399 1.67014 3.85398 1.89045C3.51397 2.11077 3.29491 2.4789 3.26258 2.88525C3.21687 3.45514 2.80997 3.92894 2.25759 4.05483C1.86295 4.14476 1.53298 4.41565 1.3652 4.78659C1.19742 5.15753 1.2108 5.5858 1.40143 5.94494C1.66842 6.44908 1.5798 7.06956 1.18293 7.4776C0.899214 7.76817 0.766553 8.17564 0.823965 8.57918C0.881377 8.98271 1.12273 9.33623 1.47612 9.53463C1.97109 9.81283 2.22972 10.3833 2.11378 10.9425C2.03185 11.3416 2.13831 11.7563 2.40307 12.0643C2.66839 12.3729 3.0608 12.5387 3.46324 12.5128C4.02956 12.4774 4.55184 12.8163 4.75473 13.3497C4.8991 13.7307 5.2118 14.0213 5.60031 14.136C5.9877 14.2506 6.40686 14.1764 6.73238 13.9353C7.18889 13.5964 7.8115 13.5964 8.26745 13.9353C8.59297 14.177 9.01214 14.2512 9.39953 14.136C9.78804 14.0213 10.1007 13.7302 10.2457 13.3497C10.448 12.8163 10.9708 12.4769 11.5366 12.5128C11.9401 12.5387 12.332 12.3729 12.5968 12.0643C12.8615 11.7563 12.9685 11.3416 12.8861 10.9425C12.7707 10.3833 13.0287 9.81283 13.5243 9.53463C13.8771 9.33567 14.1179 8.98271 14.1759 8.57918C14.2338 8.17564 14.1006 7.76817 13.8175 7.4776ZM6.80317 10.5294L4.29488 8.07672L5.32997 7.03303L6.80317 8.44148L9.94857 5.19069L10.9837 6.23439L6.80317 10.5294Z" fill="#6A78F2"/>
</g>
<defs>
<clipPath id="clip0_328_994">
<rect width="15" height="15" fill="white"/>
</clipPath>
</defs>
</svg>
