<svg width="28" height="24" viewBox="0 0 28 24" fill="none" xmlns="http://www.w3.org/2000/svg">
<path d="M14 0.00390625C13.4752 0.00390624 12.9556 0.107266 12.4708 0.308084C11.986 0.508901 11.5455 0.803244 11.1744 1.17431C10.8033 1.54537 10.509 1.98589 10.3082 2.4707C10.1074 2.95552 10.004 3.47514 10.004 3.99991C10.004 4.52467 10.1074 5.04429 10.3082 5.52911C10.509 6.01393 10.8033 6.45444 11.1744 6.8255C11.5455 7.19657 11.986 7.49091 12.4708 7.69173C12.9556 7.89255 13.4752 7.99591 14 7.99591C15.0598 7.99591 16.0762 7.5749 16.8256 6.8255C17.575 6.07611 17.996 5.05971 17.996 3.99991C17.996 2.9401 17.575 1.9237 16.8256 1.17431C16.0762 0.424912 15.0598 0.00390625 14 0.00390625ZM23 1.99991C22.2044 1.99991 21.4413 2.31598 20.8787 2.87859C20.3161 3.4412 20 4.20426 20 4.99991C20 5.79556 20.3161 6.55862 20.8787 7.12123C21.4413 7.68384 22.2044 7.99991 23 7.99991C23.7956 7.99991 24.5587 7.68384 25.1213 7.12123C25.6839 6.55862 26 5.79556 26 4.99991C26 4.20426 25.6839 3.4412 25.1213 2.87859C24.5587 2.31598 23.7956 1.99991 23 1.99991ZM5 1.99991C4.20435 1.99991 3.44129 2.31598 2.87868 2.87859C2.31607 3.4412 2 4.20426 2 4.99991C2 5.79556 2.31607 6.55862 2.87868 7.12123C3.44129 7.68384 4.20435 7.99991 5 7.99991C5.79565 7.99991 6.55871 7.68384 7.12132 7.12123C7.68393 6.55862 8 5.79556 8 4.99991C8 4.20426 7.68393 3.4412 7.12132 2.87859C6.55871 2.31598 5.79565 1.99991 5 1.99991ZM8 11.9859C8.0037 11.4579 8.21604 10.9528 8.59071 10.5807C8.96539 10.2087 9.47198 9.99989 10 9.99991H18C18.5304 9.99991 19.0391 10.2106 19.4142 10.5857C19.7893 10.9608 20 11.4695 20 11.9999V17.9999C20.0005 18.6294 19.902 19.2551 19.708 19.8539C19.2651 21.2113 18.3529 22.3664 17.135 23.1117C15.9172 23.857 14.4735 24.1438 13.0633 23.9205C11.653 23.6971 10.3686 22.9784 9.44056 21.8933C8.51256 20.8081 8.00181 19.4277 8 17.9999V11.9859ZM6 11.9999C6 11.2699 6.194 10.5879 6.536 9.99991H2C1.46957 9.99991 0.960859 10.2106 0.585787 10.5857C0.210714 10.9608 2.76826e-07 11.4695 2.76826e-07 11.9999V16.9999C-0.000272096 17.8185 0.200452 18.6247 0.584546 19.3476C0.968639 20.0705 1.52435 20.688 2.20288 21.146C2.88142 21.6039 3.66201 21.8883 4.47611 21.974C5.29022 22.0598 6.11293 21.9444 6.872 21.6379C6.29759 20.5106 5.99874 19.2631 6 17.9979V11.9999ZM22 11.9999V17.9999C22 19.3099 21.686 20.5459 21.128 21.6379C21.8871 21.9444 22.7098 22.0598 23.5239 21.974C24.338 21.8883 25.1186 21.6039 25.7971 21.146C26.4756 20.688 27.0314 20.0705 27.4155 19.3476C27.7995 18.6247 28.0003 17.8185 28 16.9999V11.9999C28 11.4695 27.7893 10.9608 27.4142 10.5857C27.0391 10.2106 26.5304 9.99991 26 9.99991H21.464C21.804 10.5879 22 11.2699 22 11.9999Z" fill="#02FFE2"/>
</svg>
