<svg width="15" height="15" viewBox="0 0 15 15" fill="none" xmlns="http://www.w3.org/2000/svg">
<path d="M11.1379 2.75867H13.2759V4.8966H11.1379V2.75867ZM11.1379 5.96556H13.2759V8.10349H11.1379V5.96556ZM7.93103 2.75867H10.069V4.8966H7.93103V2.75867ZM7.93103 5.96556H10.069V8.10349H7.93103V5.96556Z" fill="#6A78F2"/>
<path d="M6.63792 12.931C7.06642 12.931 7.41378 12.5451 7.41378 12.069C7.41378 11.5929 7.06642 11.2069 6.63792 11.2069C6.20943 11.2069 5.86206 11.5929 5.86206 12.069C5.86206 12.5451 6.20943 12.931 6.63792 12.931Z" fill="#6A78F2"/>
<path d="M10.1319 15H3.14402C2.85899 14.9997 2.58571 14.8867 2.38416 14.6859C2.18261 14.485 2.06925 14.2126 2.06897 13.9286V1.07143C2.06925 0.787355 2.18261 0.514998 2.38416 0.314127C2.58571 0.113257 2.85899 0.000283648 3.14402 0H10.1319V1.07143H3.14402V13.9286H10.1319V9.64286H11.2069V13.9286C11.2066 14.2126 11.0933 14.485 10.8917 14.6859C10.6902 14.8867 10.4169 14.9997 10.1319 15Z" fill="#6A78F2"/>
</svg>
