<svg width="10" height="10" viewBox="0 0 10 10" fill="none" xmlns="http://www.w3.org/2000/svg">
<g clip-path="url(#clip0_3874_2175)">
<circle cx="5" cy="5" r="5" transform="matrix(-1 0 0 1 10 0)" fill="#363636"/>
<path fill-rule="evenodd" clip-rule="evenodd" d="M4.99986 4.63077L6.98999 2.6403C7.0408 2.58949 7.10796 2.56409 7.17477 2.56409C7.31536 2.56409 7.43576 2.67683 7.43576 2.82473C7.43576 2.89189 7.41036 2.9587 7.35955 3.00986L5.36907 4.99998L7.3592 6.99011C7.41036 7.04127 7.43576 7.10808 7.43576 7.17489C7.43576 7.32348 7.31431 7.43588 7.17477 7.43588C7.10796 7.43588 7.0408 7.41048 6.98999 7.35967L4.99986 5.36955L3.00973 7.35967C2.95893 7.41048 2.89177 7.43588 2.82495 7.43588C2.68541 7.43588 2.56396 7.32348 2.56396 7.17489C2.56396 7.10808 2.58937 7.04127 2.64052 6.99011L4.63065 4.99998L2.64017 3.00986C2.58937 2.9587 2.56396 2.89189 2.56396 2.82473C2.56396 2.67683 2.68437 2.56409 2.82495 2.56409C2.89177 2.56409 2.95893 2.58949 3.00973 2.6403L4.99986 4.63077Z" fill="#9747FF"/>
</g>
<defs>
<clipPath id="clip0_3874_2175">
<rect width="10" height="10" fill="white"/>
</clipPath>
</defs>
</svg>
