<svg width="15" height="15" viewBox="0 0 15 15" fill="none" xmlns="http://www.w3.org/2000/svg">
<g clip-path="url(#clip0_2934_875)">
<path d="M9.375 13.125H8.125C7.79348 13.125 7.47554 12.9933 7.24112 12.7589C7.0067 12.5245 6.875 12.2065 6.875 11.875C6.875 11.5435 7.0067 11.2255 7.24112 10.9911C7.47554 10.7567 7.79348 10.625 8.125 10.625H9.375V9.375H8.125C7.46196 9.375 6.82607 9.63839 6.35723 10.1072C5.88839 10.5761 5.625 11.212 5.625 11.875C5.625 12.538 5.88839 13.1739 6.35723 13.6428C6.82607 14.1116 7.46196 14.375 8.125 14.375H9.375V13.125ZM14.375 11.875C14.375 12.538 14.1116 13.1739 13.6428 13.6428C13.1739 14.1116 12.538 14.375 11.875 14.375H10.625V13.125H11.875C12.2065 13.125 12.5245 12.9933 12.7589 12.7589C12.9933 12.5245 13.125 12.2065 13.125 11.875C13.125 11.5435 12.9933 11.2255 12.7589 10.9911C12.5245 10.7567 12.2065 10.625 11.875 10.625H10.625V9.375H11.875C12.538 9.375 13.1739 9.63839 13.6428 10.1072C14.1116 10.5761 14.375 11.212 14.375 11.875Z" fill="#EAEAEA"/>
<path d="M8.75 11.2501H11.25V12.5001H8.75V11.2501ZM4.375 11.8751C4.37626 11.6656 4.39507 11.4565 4.43125 11.2501H1.875V10.3751C1.875 9.12513 4.375 8.43763 5.625 8.43763C5.90787 8.44142 6.18999 8.46755 6.46875 8.51575C6.98322 8.25928 7.55015 8.12557 8.125 8.12513H11.25V2.50013C11.249 2.16891 11.117 1.85154 10.8828 1.61734C10.6486 1.38313 10.3312 1.25112 10 1.25013H7.3875C7.25952 0.884776 7.02117 0.568225 6.70542 0.344263C6.38967 0.120302 6.01212 0 5.625 0C5.23788 0 4.86033 0.120302 4.54458 0.344263C4.22883 0.568225 3.99048 0.884776 3.8625 1.25013H1.25C0.918784 1.25112 0.601416 1.38313 0.367209 1.61734C0.133003 1.85154 0.000989204 2.16891 0 2.50013L0 11.2501C0.000989204 11.5813 0.133003 11.8987 0.367209 12.1329C0.601416 12.3671 0.918784 12.4991 1.25 12.5001H4.43125C4.39507 12.2937 4.37626 12.0847 4.375 11.8751ZM5.625 1.25013C5.74861 1.25013 5.86945 1.28678 5.97223 1.35546C6.07501 1.42413 6.15512 1.52175 6.20242 1.63595C6.24973 1.75015 6.26211 1.87582 6.23799 1.99706C6.21388 2.1183 6.15435 2.22966 6.06694 2.31707C5.97953 2.40448 5.86817 2.464 5.74693 2.48812C5.62569 2.51223 5.50003 2.49986 5.38582 2.45255C5.27162 2.40525 5.17401 2.32514 5.10533 2.22236C5.03666 2.11958 5 1.99874 5 1.87513C5.00049 1.70952 5.0665 1.55083 5.1836 1.43373C5.30071 1.31663 5.45939 1.25062 5.625 1.25013ZM5.625 3.75013C5.99584 3.75013 6.35835 3.86009 6.66669 4.06612C6.97504 4.27215 7.21536 4.56498 7.35727 4.9076C7.49919 5.25021 7.53632 5.62721 7.46397 5.99092C7.39163 6.35464 7.21305 6.68873 6.95083 6.95095C6.6886 7.21318 6.35451 7.39175 5.99079 7.4641C5.62708 7.53645 5.25008 7.49931 4.90747 7.3574C4.56486 7.21549 4.27202 6.97516 4.06599 6.66682C3.85997 6.35848 3.75 5.99597 3.75 5.62513C3.74967 5.37881 3.79794 5.13484 3.89206 4.90721C3.98617 4.67957 4.12427 4.47274 4.29844 4.29857C4.47262 4.12439 4.67945 3.98629 4.90708 3.89218C5.13471 3.79807 5.37868 3.7498 5.625 3.75013Z" fill="#EAEAEA"/>
</g>
<defs>
<clipPath id="clip0_2934_875">
<rect width="15" height="15" fill="white"/>
</clipPath>
</defs>
</svg>
