<svg width="15" height="15" viewBox="0 0 15 15" fill="none" xmlns="http://www.w3.org/2000/svg">
<path d="M11.2481 11.25H3.75125L3.75 10.8606C3.75 10.0738 3.8125 9.61937 4.7425 9.40437C5.795 9.16125 6.8325 8.94438 6.33313 8.02375C4.85438 5.29688 5.91187 3.75 7.49937 3.75C9.05625 3.75 10.1406 5.23937 8.66562 8.02437C8.18125 8.93937 9.18187 9.15688 10.2562 9.405C11.1875 9.62 11.2494 10.075 11.2494 10.8631L11.2481 11.25ZM14.255 9.86625C13.4488 9.68 12.6988 9.51687 13.0619 8.83062C14.1675 6.74187 13.355 5.625 12.1869 5.625C11.3963 5.625 10.7819 6.13563 10.7819 7.0775C10.7819 9.51688 12.1994 8.18375 12.1856 11.25H14.9987L15 10.9606C15 10.3694 14.9538 10.0275 14.255 9.86625ZM0.00125 11.25H2.81437C2.80125 8.18375 4.21813 9.5175 4.21813 7.0775C4.21813 6.13563 3.60375 5.625 2.81312 5.625C1.645 5.625 0.8325 6.74187 1.93875 8.83062C2.30187 9.5175 1.55187 9.68 0.745625 9.86625C0.04625 10.0275 0 10.3694 0 10.9606L0.00125 11.25Z" fill="#F4F4F4"/>
</svg>