<svg width="256" height="256" viewBox="0 0 24 24" xmlns="http://www.w3.org/2000/svg"><rect x="0" y="0" width="24" height="24" rx="8" fill="none"/><svg xmlns="http://www.w3.org/2000/svg" viewBox="0 0 24 24" fill="#ffffff" x="0" y="0" width="24" height="24"><path fill="#ffffff" d="M6.05 12a.75.75 0 0 0 0 1.5h11.364a.75.75 0 0 0 0-1.5zm-.75 3.75a.75.75 0 0 1 .75-.75h7.36a.75.75 0 1 1 0 1.5H6.05a.75.75 0 0 1-.75-.75m.667-10.497A1.5 1.5 0 0 1 6.8 5a1.49 1.49 0 0 1 1.5 1.5a1.5 1.5 0 1 1-2.333-1.247M9.8 6.5a.75.75 0 0 1 .75-.75h6.86a.75.75 0 1 1 0 1.5h-6.86a.75.75 0 0 1-.75-.75"/><path fill="#ffffff" d="M2.74 4.457c-.49.963-.49 2.223-.49 4.743v5.6c0 2.52 0 3.78.49 4.743a4.5 4.5 0 0 0 1.967 1.967C5.67 22 6.93 22 9.45 22h5.1c2.52 0 3.78 0 4.743-.49a4.5 4.5 0 0 0 1.967-1.967c.49-.963.49-2.223.49-4.743V9.2c0-2.52 0-3.78-.49-4.743a4.5 4.5 0 0 0-1.967-1.967C18.33 2 17.07 2 14.55 2h-5.1c-2.52 0-3.78 0-4.743.49A4.5 4.5 0 0 0 2.74 4.457M20.25 10.5v2.8c0 1.82 0 2.73-.354 3.425a3.25 3.25 0 0 1-1.42 1.42c-.696.355-1.606.355-3.426.355h-6.1c-1.82 0-2.73 0-3.425-.354a3.25 3.25 0 0 1-1.42-1.42C3.75 16.03 3.75 15.12 3.75 13.3v-2.8zm-.871 8.965a3.3 3.3 0 0 1-.903.68c-.696.355-1.606.355-3.426.355h-6.1c-1.82 0-2.73 0-3.425-.354a3.3 3.3 0 0 1-.903-.681l.085.044C5.67 20 6.93 20 9.45 20h5.1c2.52 0 3.78 0 4.743-.49zM4.104 5.275a3.25 3.25 0 0 1 1.42-1.42C6.22 3.5 7.13 3.5 8.95 3.5h6.1c1.82 0 2.73 0 3.426.354a3.25 3.25 0 0 1 1.42 1.42c.354.696.354 1.606.354 3.426V9H3.75v-.3c0-1.82 0-2.73.354-3.425"/></svg></svg>