<svg width="52" height="52" viewBox="0 0 52 52" fill="none" xmlns="http://www.w3.org/2000/svg">
<path d="M25.8471 2.42321C25.8396 1.92695 25.8485 1.45121 25.8718 1C25.8718 1.48324 25.8635 1.95759 25.8471 2.42321C25.9726 10.7158 30.671 24.734 48.9203 25.6366C49.6558 25.619 50.3529 25.6361 51 25.6819C50.288 25.6854 49.5949 25.6699 48.9203 25.6366C40.4376 25.8391 26.8464 30.6471 25.9216 48.9883C25.9346 49.6986 25.9163 50.3726 25.8718 51C25.8718 50.312 25.8887 49.6416 25.9216 48.9883C25.7671 40.533 21.1786 26.942 3.51858 25.764C2.62028 25.7841 1.77401 25.7532 1 25.6819C1.8677 25.6819 2.70694 25.7099 3.51858 25.764C12.0266 25.5736 25.2014 20.8075 25.8471 2.42321Z" fill="#9747FF"/>
<path d="M25.8718 1C25.4444 9.26972 29.8718 25.7837 51 25.6819C42.6239 25.0882 25.8718 29.3206 25.8718 51C26.4701 42.5606 22.3333 25.6819 1 25.6819C9.2906 26.4453 25.8718 22.5776 25.8718 1Z" stroke="#9747FF"/>
</svg>
