<svg width="15" height="15" viewBox="0 0 15 15" fill="none" xmlns="http://www.w3.org/2000/svg">
<path d="M7.875 0C8.07391 0 8.26468 0.0790178 8.40533 0.21967C8.54598 0.360322 8.625 0.551088 8.625 0.75V6.375H14.25C14.4489 6.375 14.6397 6.45402 14.7803 6.59467C14.921 6.73532 15 6.92609 15 7.125V7.875C15 8.07391 14.921 8.26468 14.7803 8.40533C14.6397 8.54598 14.4489 8.625 14.25 8.625H8.625V14.25C8.625 14.4489 8.54598 14.6397 8.40533 14.7803C8.26468 14.921 8.07391 15 7.875 15H7.125C6.92609 15 6.73532 14.921 6.59467 14.7803C6.45402 14.6397 6.375 14.4489 6.375 14.25V8.625H0.75C0.551088 8.625 0.360322 8.54598 0.21967 8.40533C0.0790178 8.26468 0 8.07391 0 7.875V7.125C0 6.92609 0.0790178 6.73532 0.21967 6.59467C0.360322 6.45402 0.551088 6.375 0.75 6.375H6.375V0.75C6.375 0.551088 6.45402 0.360322 6.59467 0.21967C6.73532 0.0790178 6.92609 0 7.125 0H7.875Z" fill="#EAEAEA"/>
</svg>
