<svg width="15" height="15" viewBox="0 0 15 15" fill="none" xmlns="http://www.w3.org/2000/svg">
<g clip-path="url(#clip0_328_984)">
<path d="M14.0446 1.68262C14.0446 1.33503 13.769 0.955444 13.3174 0.955444H1.68259C1.23174 0.955444 0.955414 1.33285 0.955414 1.68262V13.3174C0.955414 13.769 1.33355 14.0446 1.68259 14.0446H13.3174C13.665 14.0446 14.0446 13.769 14.0446 13.3174V1.68262ZM2.04618 2.04621H12.9538V12.9539H2.04618V2.04621ZM6.95462 8.77259V11.1359C6.95462 11.5213 6.61285 11.8631 6.22744 11.8631H3.86412C3.47872 11.8631 3.13694 11.5213 3.13694 11.1359V8.77259C3.13694 8.38719 3.47872 8.04541 3.86412 8.04541H6.22744C6.61285 8.04541 6.95462 8.38719 6.95462 8.77259ZM6.95462 3.86415V6.22747C6.95462 6.61288 6.61285 6.95465 6.22744 6.95465H3.86412C3.47872 6.95465 3.13694 6.61288 3.13694 6.22747V3.86415C3.13694 3.47875 3.47872 3.13697 3.86412 3.13697H6.22744C6.61285 3.13697 6.95462 3.47875 6.95462 3.86415ZM11.8631 3.86415V6.22747C11.8631 6.61288 11.5213 6.95465 11.1359 6.95465H8.77256C8.38716 6.95465 8.04538 6.61288 8.04538 6.22747V3.86415C8.04538 3.47875 8.38716 3.13697 8.77256 3.13697H11.1359C11.5213 3.13697 11.8631 3.47875 11.8631 3.86415Z" fill="#6A78F2"/>
</g>
<defs>
<clipPath id="clip0_328_984">
<rect width="15" height="15" fill="white"/>
</clipPath>
</defs>
</svg>
