<svg width="15" height="15" viewBox="0 0 15 15" fill="none" xmlns="http://www.w3.org/2000/svg">
<g clip-path="url(#clip0_453_654)">
<path d="M13.7181 6.875C13.425 3.92188 11.0781 1.575 8.125 1.28125V0H6.875V1.28125C3.92188 1.575 1.575 3.92188 1.28188 6.875H0V8.125H1.28188C1.575 11.0781 3.92188 13.425 6.875 13.7188V15H8.125V13.7188C11.0781 13.4256 13.425 11.0781 13.7181 8.125H15V6.875H13.7181ZM9.91125 8.125C9.68375 8.99938 8.99938 9.68375 8.125 9.91125V8.75H6.875V9.91125C6.00062 9.68375 5.31625 8.99938 5.08875 8.125H6.25V6.875H5.08875C5.31625 6.00062 6.00062 5.31625 6.875 5.08875V6.25H8.125V5.08875C8.99938 5.31625 9.68375 6.00062 9.91125 6.875H8.75V8.125H9.91125ZM6.875 2.54312V3.80625C5.30563 4.07 4.07 5.30563 3.80625 6.875H2.54312C2.82625 4.61812 4.61812 2.82687 6.875 2.54312ZM2.54312 8.125H3.80625C4.07 9.69437 5.30563 10.93 6.875 11.1937V12.4569C4.61812 12.1731 2.82625 10.3819 2.54312 8.125ZM8.125 12.4569V11.1937C9.69437 10.93 10.93 9.69437 11.1937 8.125H12.4569C12.1737 10.3819 10.3819 12.1731 8.125 12.4569ZM11.1937 6.875C10.93 5.30563 9.69437 4.07 8.125 3.80625V2.54312C10.3819 2.82687 12.1737 4.6175 12.4569 6.875H11.1937Z" fill="#6A78F2"/>
</g>
<defs>
<clipPath id="clip0_453_654">
<rect width="15" height="15" fill="white"/>
</clipPath>
</defs>
</svg>
