<svg width="15" height="15" viewBox="0 0 15 15" fill="none" xmlns="http://www.w3.org/2000/svg">
<g clip-path="url(#clip0_453_656)">
<path fill-rule="evenodd" clip-rule="evenodd" d="M4.2 12.8075C5.1575 13.405 6.28875 13.75 7.5 13.75C8.70875 13.75 9.83812 13.4062 10.795 12.8106L11.57 13.7994C10.3975 14.5588 9 15 7.5 15C5.99812 15 4.59875 14.5575 3.425 13.7962L4.2 12.8075ZM7.63563 12.5H7.35625C7.28313 12.5 7.2125 12.475 7.16375 12.4319L6.79313 12.1875H8.19938L7.82812 12.4319C7.78 12.475 7.70938 12.5 7.63563 12.5ZM0.876875 11.9763H0C0 11.2863 0.559375 10.7263 1.25 10.7263H2.5C2.83125 10.7263 3.14938 10.8581 3.38375 11.0925C3.61813 11.3269 3.75 11.645 3.75 11.9763H2.87313C2.75063 11.5975 2.40125 11.5225 1.875 11.5225C1.34875 11.5225 1 11.5944 0.876875 11.9763ZM8.2125 11.875H6.78813C6.70188 11.875 6.63188 11.805 6.63188 11.7188C6.63188 11.6325 6.70188 11.5625 6.78813 11.5625H8.2125C8.29875 11.5625 8.36875 11.6325 8.36875 11.7188C8.36875 11.805 8.29875 11.875 8.2125 11.875ZM12.1269 11.875H11.25C11.25 11.1844 11.8094 10.625 12.5 10.625H13.75C14.0812 10.625 14.3994 10.7569 14.6337 10.9913C14.8681 11.2256 15 11.5431 15 11.875H14.1231C14.0006 11.4962 13.6513 11.4213 13.125 11.4213C12.5987 11.4213 12.25 11.4931 12.1269 11.875ZM7.38563 11.2587H6.50187C6.49375 9.6525 5.625 9.46 5.625 8.35437C5.625 7.295 6.45438 6.57188 7.5 6.57188H7.5125C8.55188 6.5775 9.375 7.29875 9.375 8.35437C9.375 9.46 8.50562 9.6525 8.4975 11.2587H7.61375C7.61375 9.54938 8.4375 9 8.4375 8.35187C8.4375 7.81687 8.00375 7.51875 7.5 7.50938H7.48812C6.98937 7.52313 6.5625 7.82125 6.5625 8.35187C6.5625 9 7.38563 9.54938 7.38563 11.2587ZM1.875 7.60125C2.65125 7.60125 3.28125 8.23125 3.28125 9.0075C3.28125 9.78375 2.65125 10.4138 1.875 10.4138C1.09875 10.4138 0.46875 9.78375 0.46875 9.0075C0.46875 8.23125 1.09875 7.60125 1.875 7.60125ZM13.125 7.5C13.9012 7.5 14.5312 8.13 14.5312 8.90625C14.5312 9.6825 13.9012 10.3125 13.125 10.3125C12.3488 10.3125 11.7188 9.6825 11.7188 8.90625C11.7188 8.13 12.3488 7.5 13.125 7.5ZM9.91875 8.99125L10.7619 9.37375L10.5037 9.9425L9.6925 9.575C9.78625 9.3875 9.86437 9.195 9.91875 8.99125ZM5.08187 8.99063C5.13625 9.19813 5.21188 9.385 5.30688 9.575L4.49688 9.9425L4.23813 9.37375L5.08187 8.99063ZM1.875 8.445C2.18563 8.445 2.4375 8.69687 2.4375 9.0075C2.4375 9.31812 2.18563 9.57 1.875 9.57C1.56437 9.57 1.3125 9.31812 1.3125 9.0075C1.3125 8.69687 1.56437 8.445 1.875 8.445ZM13.125 8.34375C13.4356 8.34375 13.6875 8.59562 13.6875 8.90625C13.6875 9.21688 13.4356 9.46875 13.125 9.46875C12.8144 9.46875 12.5625 9.21688 12.5625 8.90625C12.5625 8.59562 12.8144 8.34375 13.125 8.34375ZM10.9375 8.4375H9.99937C10.0056 8.22812 9.98688 8.01687 9.94125 7.8125H10.9375V8.4375ZM5.00125 8.4375H4.0625V7.8125H5.05875C5.01375 8.01687 4.995 8.22688 5.00125 8.43625V8.4375ZM9.38875 6.74125L10.165 6.19L10.5269 6.7L9.74437 7.255C9.65312 7.07312 9.535 6.90125 9.38875 6.74125ZM5.61125 6.74062C5.4675 6.89812 5.35 7.06875 5.25563 7.255L4.47375 6.7L4.835 6.19L5.61125 6.74062ZM8.38313 6.08688L8.7975 5.24625L9.35812 5.52312L8.94313 6.36375C8.76938 6.24875 8.58063 6.15625 8.38313 6.08688ZM6.61687 6.08625C6.42 6.155 6.23062 6.2475 6.05625 6.3625L5.64188 5.52312L6.2025 5.24625L6.61687 6.08625ZM5 0.4275V1.77062C3.16375 2.57375 1.78687 4.23438 1.37625 6.24438L0.105 6.2425C0.5625 3.5375 2.47063 1.3225 5 0.4275ZM10 0.4275C12.5294 1.3225 14.4375 3.5375 14.895 6.2425L13.6238 6.24438C13.2131 4.23438 11.8362 2.57375 10 1.77062V0.4275ZM7.8125 5.95688C7.60375 5.93188 7.40375 5.93063 7.1875 5.95563V5H7.8125V5.95688ZM6.50187 4.375H5.625C5.625 3.68437 6.18437 3.125 6.875 3.125H8.125C8.45625 3.125 8.77437 3.25687 9.00875 3.49125C9.24312 3.72562 9.375 4.04312 9.375 4.375H8.49813C8.37563 3.99625 8.02625 3.92125 7.5 3.92125C6.97375 3.92125 6.625 3.99312 6.50187 4.375ZM7.5 0C8.27625 0 8.90625 0.63 8.90625 1.40625C8.90625 2.1825 8.27625 2.8125 7.5 2.8125C6.72375 2.8125 6.09375 2.1825 6.09375 1.40625C6.09375 0.63 6.72375 0 7.5 0ZM7.5 0.84375C7.81063 0.84375 8.0625 1.09562 8.0625 1.40625C8.0625 1.71688 7.81063 1.96875 7.5 1.96875C7.18937 1.96875 6.9375 1.71688 6.9375 1.40625C6.9375 1.09562 7.18937 0.84375 7.5 0.84375Z" fill="#6A78F2"/>
</g>
<defs>
<clipPath id="clip0_453_656">
<rect width="15" height="15" fill="white"/>
</clipPath>
</defs>
</svg>
