<svg width="15" height="15" viewBox="0 0 15 15" fill="none" xmlns="http://www.w3.org/2000/svg">
<g clip-path="url(#clip0_4231_2119)">
<path d="M11.8528 14.0625C13.1053 14.0625 14.0625 12.9797 14.0625 11.7188V4.6875H0.9375V11.7188C0.9375 12.9797 1.89469 14.0625 3.14719 14.0625H11.8528ZM5.15625 6.5625H9.84375C9.96807 6.5625 10.0873 6.61189 10.1752 6.69979C10.2631 6.7877 10.3125 6.90693 10.3125 7.03125C10.3125 7.15557 10.2631 7.2748 10.1752 7.36271C10.0873 7.45061 9.96807 7.5 9.84375 7.5H5.15625C5.03193 7.5 4.9127 7.45061 4.82479 7.36271C4.73689 7.2748 4.6875 7.15557 4.6875 7.03125C4.6875 6.90693 4.73689 6.7877 4.82479 6.69979C4.9127 6.61189 5.03193 6.5625 5.15625 6.5625ZM0.75 0.9375C0.551088 0.9375 0.360322 1.01652 0.21967 1.15717C0.0790176 1.29782 0 1.48859 0 1.6875L0 2.8125C0 3.01141 0.0790176 3.20218 0.21967 3.34283C0.360322 3.48348 0.551088 3.5625 0.75 3.5625H14.25C14.4489 3.5625 14.6397 3.48348 14.7803 3.34283C14.921 3.20218 15 3.01141 15 2.8125V1.6875C15 1.48859 14.921 1.29782 14.7803 1.15717C14.6397 1.01652 14.4489 0.9375 14.25 0.9375H0.75Z" fill="#EAEAEA"/>
</g>
<defs>
<clipPath id="clip0_4231_2119">
<rect width="15" height="15" fill="white"/>
</clipPath>
</defs>
</svg>
