<svg width="200" height="200" viewBox="0 0 200 200" fill="none" xmlns="http://www.w3.org/2000/svg">
<path d="M97.81 151.906C103.745 146.54 107.079 139.265 107.079 131.68C107.079 124.095 103.745 116.82 97.81 111.454L75.5845 131.525C72.6362 134.18 70.2969 137.334 68.7008 140.807C67.1046 144.279 66.283 148.002 66.283 151.762C66.283 155.522 67.1046 159.246 68.7008 162.718C70.2969 166.191 72.6362 169.345 75.5845 172L97.81 151.906Z" fill="#373737"/>
<path d="M60.2769 28C57.3359 30.654 55.0029 33.8054 53.4111 37.2741C51.8193 40.7427 51 44.4607 51 48.2154C51 51.9701 51.8193 55.688 53.4111 59.1567C55.0029 62.6254 57.3359 65.7767 60.2769 68.4308L107.23 110.833C110.171 113.487 112.504 116.639 114.096 120.107C115.688 123.576 116.507 127.294 116.507 131.049C116.507 134.803 115.688 138.521 114.096 141.99C112.504 145.459 110.171 148.61 107.23 151.264L152 110.833L60.2769 28Z" fill="#373737"/>
</svg>
