<svg width="15" height="15" viewBox="0 0 15 15" fill="none" xmlns="http://www.w3.org/2000/svg">
<path d="M15 11.521V15H11.25V13.125H9.375V11.25H7.5V9.73389C7.13867 9.92432 6.76025 10.0684 6.36475 10.166C5.96924 10.2637 5.56641 10.3125 5.15625 10.3125C4.68262 10.3125 4.22607 10.2515 3.78662 10.1294C3.34717 10.0073 2.93701 9.83398 2.55615 9.60938C2.17529 9.38477 1.82861 9.11621 1.51611 8.80371C1.20361 8.49121 0.932617 8.14209 0.703125 7.75635C0.473633 7.37061 0.300293 6.96045 0.183105 6.52588C0.065918 6.09131 0.00488281 5.63477 0 5.15625C0 4.68262 0.0610352 4.22607 0.183105 3.78662C0.305176 3.34717 0.478516 2.93701 0.703125 2.55615C0.927734 2.17529 1.19629 1.82861 1.50879 1.51611C1.82129 1.20361 2.17041 0.932617 2.55615 0.703125C2.94189 0.473633 3.35205 0.300293 3.78662 0.183105C4.22119 0.065918 4.67773 0.00488281 5.15625 0C5.62988 0 6.08643 0.0610352 6.52588 0.183105C6.96533 0.305176 7.37549 0.478516 7.75635 0.703125C8.13721 0.927734 8.48389 1.19629 8.79639 1.50879C9.10889 1.82129 9.37988 2.17041 9.60938 2.55615C9.83887 2.94189 10.0122 3.35205 10.1294 3.78662C10.2466 4.22119 10.3076 4.67773 10.3125 5.15625C10.3125 5.40527 10.293 5.65186 10.2539 5.896C10.2148 6.14014 10.1587 6.37939 10.0854 6.61377L15 11.521ZM3.75 5.15625C3.94531 5.15625 4.12842 5.11963 4.29932 5.04639C4.47021 4.97314 4.61914 4.87305 4.74609 4.74609C4.87305 4.61914 4.97314 4.47021 5.04639 4.29932C5.11963 4.12842 5.15625 3.94531 5.15625 3.75C5.15625 3.55469 5.11963 3.37158 5.04639 3.20068C4.97314 3.02979 4.87305 2.88086 4.74609 2.75391C4.61914 2.62695 4.47021 2.52686 4.29932 2.45361C4.12842 2.38037 3.94531 2.34375 3.75 2.34375C3.55469 2.34375 3.37158 2.38037 3.20068 2.45361C3.02979 2.52686 2.88086 2.62695 2.75391 2.75391C2.62695 2.88086 2.52686 3.02979 2.45361 3.20068C2.38037 3.37158 2.34375 3.55469 2.34375 3.75C2.34375 3.94531 2.38037 4.12842 2.45361 4.29932C2.52686 4.47021 2.62695 4.61914 2.75391 4.74609C2.88086 4.87305 3.02979 4.97314 3.20068 5.04639C3.37158 5.11963 3.55469 5.15625 3.75 5.15625Z" fill="#EAEAEA"/>
</svg>
