<svg width="15" height="15" viewBox="0 0 15 15" fill="none" xmlns="http://www.w3.org/2000/svg">
<g clip-path="url(#clip0_328_980)">
<path fill-rule="evenodd" clip-rule="evenodd" d="M6.77312 12.4781C6.60062 12.4925 6.42625 12.5 6.25 12.5C2.80062 12.5 0 9.69938 0 6.25C0 2.80062 2.80062 0 6.25 0C9.69938 0 12.5 2.80062 12.5 6.25C12.5 6.41875 12.4931 6.58563 12.48 6.75125C13.0431 7.45 13.3806 8.33875 13.3806 9.30562C13.3806 10.0894 13.1594 10.8213 12.7762 11.4425L15 13.6713L13.6744 15L11.45 12.7706C10.83 13.155 10.1 13.3769 9.31813 13.3769C8.355 13.3769 7.47 13.04 6.77312 12.4781ZM9.31813 6.50312C10.8706 6.50312 12.1306 7.76562 12.1306 9.32125C12.1306 10.8769 10.8706 12.1394 9.31813 12.1394C7.76563 12.1394 6.50563 10.8769 6.50563 9.32125C6.50563 7.76562 7.76563 6.50312 9.31813 6.50312ZM2.23687 9.23125C3.05188 10.3263 4.30438 11.0769 5.73438 11.2238C5.42875 10.6519 5.25563 9.99875 5.25563 9.30562L5.25688 9.21375C4.71625 9.0325 4.24125 8.70687 3.87812 8.28375L2.23687 9.23125ZM8.38063 10.8712H7.75563V9.61875H8.38063V10.8712ZM9.63063 10.8712H9.00563V8.9925H9.63063V10.8712ZM10.8806 10.8712H10.2556V7.77125H10.8806V10.8712ZM5.625 1.28875C3.16 1.59688 1.25 3.70187 1.25 6.25C1.25 6.92125 1.3825 7.56187 1.62312 8.14687L3.27062 7.19562C3.17625 6.89687 3.125 6.57938 3.125 6.25C3.125 4.73937 4.19938 3.4775 5.625 3.1875V1.28875ZM7.955 5.47C7.65937 4.82437 7.00687 4.375 6.25 4.375C5.215 4.375 4.375 5.215 4.375 6.25C4.375 7.01187 4.83 7.6675 5.48312 7.96125C5.88812 6.8025 6.80187 5.88187 7.955 5.47ZM6.875 1.28875V3.1875C7.96625 3.40937 8.85125 4.20063 9.20687 5.23625L9.31813 5.235C10.0056 5.235 10.6531 5.40625 11.2213 5.70875C10.9731 3.40937 9.16313 1.57438 6.875 1.28875Z" fill="#6A78F2"/>
</g>
<defs>
<clipPath id="clip0_328_980">
<rect width="15" height="15" fill="white"/>
</clipPath>
</defs>
</svg>
