<svg width="12" height="16" viewBox="0 0 12 16" fill="none" xmlns="http://www.w3.org/2000/svg">
<path d="M0.322479 1.34901C0.219469 1.27268 0.138939 1.18288 0.0854845 1.08476C0.0320311 0.986633 0.00670052 0.882096 0.0109415 0.777116C0.0151834 0.672136 0.048912 0.568769 0.110202 0.472916C0.171492 0.377064 0.259143 0.290603 0.368152 0.218471C0.47716 0.146339 0.605391 0.0899478 0.745522 0.0525173C0.885653 0.0150869 1.03494 -0.00264992 1.18486 0.000319814C1.33478 0.00328955 1.4824 0.0269075 1.61928 0.0698253C1.75617 0.112743 1.87964 0.17412 1.98265 0.250452L11.6879 7.44623C11.8883 7.59468 12 7.79122 12 7.99551C12 8.1998 11.8883 8.39634 11.6879 8.54478L1.98265 15.7414C1.88032 15.8194 1.75687 15.8824 1.61948 15.9267C1.4821 15.971 1.3335 15.9957 1.18234 15.9995C1.03117 16.0033 0.880441 15.9859 0.738908 15.9486C0.597374 15.9112 0.467856 15.8545 0.357879 15.7818C0.2479 15.7091 0.159653 15.6218 0.0982628 15.525C0.0368729 15.4282 0.00356388 15.3238 0.000270844 15.2179C-0.00302315 15.112 0.0237646 15.0067 0.0790777 14.9081C0.134391 14.8095 0.217127 14.7196 0.322479 14.6436L9.28785 7.99551L0.322479 1.34901Z" fill="#30353C"/>
</svg>
