<svg width="16" height="15" viewBox="0 0 16 15" fill="none" xmlns="http://www.w3.org/2000/svg">
<path d="M7.99992 1.25C7.12444 1.25 6.25753 1.41166 5.4487 1.72575C4.63986 2.03984 3.90493 2.50022 3.28587 3.08058C2.03563 4.25269 1.33325 5.8424 1.33325 7.5C1.33325 9.1576 2.03563 10.7473 3.28587 11.9194C3.90493 12.4998 4.63986 12.9602 5.4487 13.2742C6.25753 13.5883 7.12444 13.75 7.99992 13.75C9.76803 13.75 11.4637 13.0915 12.714 11.9194C13.9642 10.7473 14.6666 9.1576 14.6666 7.5C14.6666 6.67924 14.4941 5.86651 14.1591 5.10823C13.8241 4.34994 13.333 3.66095 12.714 3.08058C12.0949 2.50022 11.36 2.03984 10.5511 1.72575C9.7423 1.41166 8.8754 1.25 7.99992 1.25ZM10.7999 10.125L7.33325 8.125V4.375H8.33325V7.625L11.3333 9.3125L10.7999 10.125Z" fill="#FF8B45"/>
</svg>
