<svg width="19" height="20" viewBox="0 0 19 20" fill="none" xmlns="http://www.w3.org/2000/svg">
<path d="M9.5 11.0969C8.70435 11.0969 7.94129 11.4425 7.37868 12.0576C6.81607 12.6727 6.5 13.507 6.5 14.377C6.5 15.2469 6.81607 16.0812 7.37868 16.6963C7.94129 17.3115 8.70435 17.657 9.5 17.657C10.2956 17.657 11.0587 17.3115 11.6213 16.6963C12.1839 16.0812 12.5 15.2469 12.5 14.377C12.5 13.507 12.1839 12.6727 11.6213 12.0576C11.0587 11.4425 10.2956 11.0969 9.5 11.0969ZM8.21429 14.377C8.21429 14.0041 8.34974 13.6466 8.59086 13.383C8.83198 13.1193 9.15901 12.9712 9.5 12.9712C9.84099 12.9712 10.168 13.1193 10.4091 13.383C10.6503 13.6466 10.7857 14.0041 10.7857 14.377C10.7857 14.7498 10.6503 15.1074 10.4091 15.371C10.168 15.6346 9.84099 15.7827 9.5 15.7827C9.15901 15.7827 8.83198 15.6346 8.59086 15.371C8.34974 15.1074 8.21429 14.7498 8.21429 14.377Z" fill="#30353C"/>
<path d="M14.2366 4.17694L11.5117 0L1.49257 8.75123L0.937143 8.74467V8.75404H0.5V20H18.5V8.75404H17.6754L16.0349 3.50687L14.2366 4.17694ZM15.8643 8.75404H7.26886L13.6709 6.36802L14.9754 5.91163L15.8643 8.75404ZM12.5429 4.80858L5.93429 7.27145L11.168 2.69997L12.5429 4.80858ZM2.21429 16.4097V12.3424C2.57591 12.2023 2.90438 11.9757 3.17574 11.6792C3.4471 11.3827 3.65451 11.0237 3.78286 10.6284H15.2171C15.3454 11.0238 15.5528 11.383 15.8242 11.6797C16.0955 11.9764 16.424 12.2031 16.7857 12.3434V16.4107C16.424 16.5509 16.0955 16.7777 15.8242 17.0744C15.5528 17.3711 15.3454 17.7302 15.2171 18.1257H3.78457C3.65616 17.7299 3.44854 17.3705 3.17687 17.0736C2.90521 16.7767 2.57634 16.5499 2.21429 16.4097Z" fill="#30353C"/>
</svg>
