<svg width="24" height="24" viewBox="0 0 24 24" fill="none" xmlns="http://www.w3.org/2000/svg">
<path d="M9 5C9 5.53043 9.21071 6.03914 9.58579 6.41421C9.96086 6.78929 10.4696 7 11 7C11.5304 7 12.0391 6.78929 12.4142 6.41421C12.7893 6.03914 13 5.53043 13 5C13 4.46957 12.7893 3.96086 12.4142 3.58579C12.0391 3.21071 11.5304 3 11 3C10.4696 3 9.96086 3.21071 9.58579 3.58579C9.21071 3.96086 9 4.46957 9 5Z" stroke="#645656" stroke-width="2" stroke-linecap="round" stroke-linejoin="round"/>
<path d="M11 7V15H15L19 20M11 11H16M7.00001 11.5C6.2835 11.7967 5.64584 12.2561 5.13743 12.8417C4.62902 13.4273 4.26381 14.1231 4.07065 14.8742C3.8775 15.6253 3.8617 16.411 4.02451 17.1692C4.18733 17.9275 4.52428 18.6374 5.00874 19.243C5.4932 19.8486 6.11189 20.3332 6.81589 20.6585C7.51989 20.9837 8.28991 21.1408 9.06507 21.1172C9.84022 21.0937 10.5993 20.8901 11.2822 20.5226C11.9651 20.1552 12.5532 19.6339 13 19" stroke="#645656" stroke-width="2" stroke-linecap="round" stroke-linejoin="round"/>
</svg>
