<svg width="17" height="15" viewBox="0 0 17 15" fill="none" xmlns="http://www.w3.org/2000/svg">
<path d="M8.71275 1.25C7.83727 1.25 6.97036 1.41166 6.16152 1.72575C5.35269 2.03984 4.61776 2.50022 3.9987 3.08058C2.74846 4.25269 2.04608 5.8424 2.04608 7.5C2.04608 9.1576 2.74846 10.7473 3.9987 11.9194C4.61776 12.4998 5.35269 12.9602 6.16152 13.2742C6.97036 13.5883 7.83727 13.75 8.71275 13.75C10.4809 13.75 12.1765 13.0915 13.4268 11.9194C14.677 10.7473 15.3794 9.1576 15.3794 7.5C15.3794 6.67924 15.207 5.86651 14.8719 5.10823C14.5369 4.34994 14.0458 3.66095 13.4268 3.08058C12.8077 2.50022 12.0728 2.03984 11.264 1.72575C10.4551 1.41166 9.58823 1.25 8.71275 1.25ZM11.5127 10.125L8.04608 8.125V4.375H9.04608V7.625L12.0461 9.3125L11.5127 10.125Z" fill="#FF8B45"/>
</svg>
