<svg width="7" height="8" viewBox="0 0 7 8" fill="none" xmlns="http://www.w3.org/2000/svg">
<path d="M0.815336 2.01922H1.43072V3.00922H4.50764V2.01922H5.12303V3.66922H5.73841V2.01922C5.73841 1.65622 5.46149 1.35922 5.12303 1.35922H3.83687C3.70764 0.976419 3.36918 0.699219 2.96918 0.699219C2.56918 0.699219 2.23072 0.976419 2.10149 1.35922H0.815336C0.476874 1.35922 0.199951 1.65622 0.199951 2.01922V6.63922C0.199951 7.00222 0.476874 7.29922 0.815336 7.29922H2.66149V6.63922H0.815336V2.01922ZM2.96918 1.35922C3.13841 1.35922 3.27687 1.50772 3.27687 1.68922C3.27687 1.87072 3.13841 2.01922 2.96918 2.01922C2.79995 2.01922 2.66149 1.87072 2.66149 1.68922C2.66149 1.50772 2.79995 1.35922 2.96918 1.35922Z" fill="#091E42"/>
<path d="M5.73841 4.16422L4.04918 5.97922L3.12303 4.98922L2.66149 5.48422L4.04918 6.96922L6.19995 4.65922L5.73841 4.16422Z" fill="#091E42"/>
</svg>
