<svg width="32" height="32" viewBox="0 0 32 32" fill="none" xmlns="http://www.w3.org/2000/svg">
<g clip-path="url(#clip0_2768_886)">
<path d="M11.1477 1.05323C7.95043 2.1624 5.19309 4.26764 3.28071 7.05973C1.36833 9.85182 0.401709 13.1836 0.522836 16.5656C0.643964 19.9477 1.84645 23.2018 3.95367 25.8499C6.06089 28.498 8.96178 30.4006 12.2302 31.2782C14.88 31.962 17.6563 31.992 20.3202 31.3657C22.7335 30.8237 24.9647 29.6641 26.7952 28.0007C28.7004 26.2166 30.0833 23.9469 30.7952 21.4357C31.569 18.7049 31.7067 15.8331 31.1977 13.0407H16.3177V19.2132H24.9352C24.763 20.1977 24.3939 21.1373 23.8501 21.9758C23.3063 22.8143 22.5989 23.5345 21.7702 24.0932C20.7179 24.7893 19.5317 25.2577 18.2877 25.4682C17.0401 25.7002 15.7604 25.7002 14.5127 25.4682C13.2482 25.2068 12.052 24.6849 11.0002 23.9357C9.3106 22.7397 8.04192 21.0405 7.37523 19.0807C6.69727 17.0842 6.69727 14.9197 7.37523 12.9232C7.8498 11.5238 8.63431 10.2496 9.67023 9.19573C10.8557 7.9676 12.3566 7.08972 14.0081 6.65842C15.6597 6.22712 17.3981 6.25905 19.0327 6.75073C20.3097 7.14271 21.4773 7.82757 22.4427 8.75073C23.4144 7.78406 24.3844 6.81489 25.3527 5.84323C25.8527 5.32073 26.3977 4.82323 26.8902 4.28823C25.4166 2.91692 23.6869 1.84987 21.8002 1.14823C18.3645 -0.0992977 14.6052 -0.132824 11.1477 1.05323Z" fill="white"/>
<path d="M11.1479 1.05249C14.6051 -0.134368 18.3644 -0.101725 21.8004 1.14499C23.6875 1.8514 25.4164 2.92358 26.8879 4.29999C26.3879 4.83499 25.8604 5.33499 25.3504 5.85499C24.3804 6.82332 23.4113 7.78832 22.4429 8.74999C21.4775 7.82683 20.3099 7.14197 19.0329 6.74999C17.3989 6.25659 15.6605 6.22281 14.0085 6.65235C12.3565 7.08188 10.8547 7.95814 9.66793 9.18499C8.63201 10.2388 7.8475 11.513 7.37293 12.9125L2.19043 8.89999C4.04545 5.22139 7.2573 2.40755 11.1479 1.05249Z" fill="#E33629"/>
<path d="M0.814876 12.8754C1.09343 11.4949 1.55588 10.158 2.18988 8.90039L7.37238 12.9229C6.69441 14.9194 6.69441 17.0839 7.37238 19.0804C5.64571 20.4137 3.91821 21.7537 2.18988 23.1004C0.602752 19.9412 0.118707 16.3416 0.814876 12.8754Z" fill="#F8BD00"/>
<path d="M16.3175 13.0371H31.1975C31.7065 15.8294 31.5688 18.7013 30.795 21.4321C30.0831 23.9433 28.7002 26.213 26.795 27.9971C25.1225 26.6921 23.4425 25.3971 21.77 24.0921C22.5992 23.5328 23.3069 22.8118 23.8508 21.9724C24.3946 21.133 24.7634 20.1925 24.935 19.2071H16.3175C16.315 17.1521 16.3175 15.0946 16.3175 13.0371Z" fill="#587DBD"/>
<path d="M2.1875 23.1001C3.91583 21.7667 5.64333 20.4267 7.37 19.0801C8.03802 21.0406 9.30851 22.7398 11 23.9351C12.055 24.6807 13.2538 25.1984 14.52 25.4551C15.7676 25.6871 17.0474 25.6871 18.295 25.4551C19.539 25.2445 20.7252 24.7762 21.7775 24.0801C23.45 25.3851 25.13 26.6801 26.8025 27.9851C24.9722 29.6494 22.741 30.8098 20.3275 31.3526C17.6635 31.9788 14.8873 31.9488 12.2375 31.2651C10.1418 30.7055 8.18419 29.7191 6.4875 28.3676C4.69165 26.9418 3.22489 25.145 2.1875 23.1001Z" fill="#319F43"/>
</g>
<defs>
<clipPath id="clip0_2768_886">
<rect width="32" height="32" fill="white"/>
</clipPath>
</defs>
</svg>
