<svg width="16" height="30" viewBox="0 0 16 30" fill="none" xmlns="http://www.w3.org/2000/svg">
<ellipse cx="8" cy="10.5" rx="8" ry="7.5" fill="#B34909"/>
<path d="M6.14653 12.42C6.78653 11.8867 7.29653 11.4433 7.67653 11.09C8.05653 10.73 8.37319 10.3567 8.62653 9.97C8.87986 9.58333 9.00653 9.20333 9.00653 8.83C9.00653 8.49 8.92653 8.22333 8.76653 8.03C8.60653 7.83667 8.35986 7.74 8.02653 7.74C7.69319 7.74 7.43653 7.85333 7.25653 8.08C7.07653 8.3 6.98319 8.60333 6.97653 8.99H5.61653C5.64319 8.19 5.87986 7.58333 6.32653 7.17C6.77986 6.75667 7.35319 6.55 8.04653 6.55C8.80653 6.55 9.38986 6.75333 9.79653 7.16C10.2032 7.56 10.4065 8.09 10.4065 8.75C10.4065 9.27 10.2665 9.76667 9.98653 10.24C9.70653 10.7133 9.38653 11.1267 9.02653 11.48C8.66653 11.8267 8.19653 12.2467 7.61653 12.74H10.5665V13.9H5.62653V12.86L6.14653 12.42Z" fill="white"/>
</svg>
