<svg width="16" height="16" viewBox="0 0 16 16" fill="none" xmlns="http://www.w3.org/2000/svg">
<path d="M15.6673 8C15.6673 3.58172 12.2348 0 8.00066 0C3.76647 0 0.333984 3.58172 0.333984 8C0.333984 11.993 3.13758 15.3027 6.80274 15.9028V10.3125H4.85612V8H6.80274V6.2375C6.80274 4.2325 7.94732 3.125 9.69855 3.125C10.5374 3.125 11.4147 3.28125 11.4147 3.28125V5.25H10.448C9.49558 5.25 9.19857 5.86667 9.19857 6.49933V8H11.3249L10.985 10.3125H9.19857V15.9028C12.8637 15.3027 15.6673 11.993 15.6673 8Z" fill="white"/>
<path d="M10.9853 10.3125L11.3252 8H9.1989V6.49933C9.1989 5.86667 9.4959 5.25 10.4483 5.25H11.415V3.28125C11.415 3.28125 10.5377 3.125 9.69888 3.125C7.94764 3.125 6.80306 4.2325 6.80306 6.2375V8H4.85645V10.3125H6.80306V15.9028C7.19339 15.9667 7.59345 16 8.00098 16C8.40851 16 8.80857 15.9667 9.1989 15.9028V10.3125H10.9853Z" fill="#1877F2"/>
</svg>
