<svg width="1000" height="764" viewBox="0 0 1000 764" fill="none" xmlns="http://www.w3.org/2000/svg">
<path d="M498.861 358.465L378.132 454.181H437.357V762.98H498.861V358.465Z" fill="#1E1E1E"/>
<path d="M498.861 358.465L619.59 454.181H560.364V762.98H498.861V358.465Z" fill="#1E1E1E"/>
<path d="M280.183 344.792V454.181H365.604L500 344.792H280.183Z" fill="#1E1E1E"/>
<path d="M718.679 344.792V454.181H633.257L498.861 344.792H718.679Z" fill="#1E1E1E"/>
<path d="M800.613 133.156C800.613 145.425 798.305 156.972 793.69 167.798C789.074 178.52 782.766 187.903 774.766 195.945C766.766 203.883 757.381 210.173 746.612 214.812C735.945 219.452 724.509 221.772 712.303 221.772C700.098 221.772 688.61 219.452 677.841 214.812C667.174 210.173 657.84 203.883 649.84 195.945C641.943 187.903 635.686 178.52 631.071 167.798C626.455 156.972 624.147 145.425 624.147 133.156V0H668.148V133.156C668.148 139.239 669.277 144.961 671.533 150.322C673.892 155.683 677.072 160.375 681.072 164.395C685.072 168.416 689.739 171.613 695.072 173.984C700.508 176.252 706.252 177.386 712.303 177.386C718.355 177.386 724.047 176.252 729.38 173.984C734.817 171.613 739.535 168.416 743.535 164.395C747.535 160.375 750.663 155.683 752.919 150.322C755.278 144.961 756.458 139.239 756.458 133.156V0H800.613V133.156Z" fill="#22C55E"/>
<path d="M873.691 284.87H831.383V56.1388H841.537L858.306 76.089C862.101 72.4804 866.255 69.0781 870.768 65.8819C875.281 62.6858 879.948 59.9536 884.768 57.6853C889.692 55.314 894.769 53.4582 900 52.1178C905.23 50.7775 910.513 50.1074 915.846 50.1074C927.436 50.1074 938.308 52.221 948.462 56.4481C958.719 60.5722 967.642 66.449 975.232 74.0785C982.924 81.708 988.976 90.9356 993.386 101.761C997.796 112.484 1000 124.392 1000 137.486C1000 151.095 997.796 163.364 993.386 174.293C988.976 185.119 982.924 194.346 975.232 201.976C967.642 209.502 958.719 215.276 948.462 219.297C938.308 223.318 927.436 225.329 915.846 225.329C912.154 225.329 908.461 224.916 904.769 224.091C901.179 223.266 897.589 222.184 893.999 220.844C890.512 219.4 887.025 217.802 883.538 216.049C880.153 214.297 876.871 212.492 873.691 210.637V284.87ZM957.847 137.486C957.847 130.475 956.719 124.186 954.462 118.618C952.308 113.051 949.334 108.36 945.539 104.545C941.744 100.627 937.282 97.6372 932.154 95.5752C927.026 93.5131 921.59 92.4821 915.846 92.4821C910.102 92.4821 904.666 93.5131 899.538 95.5752C894.512 97.6372 890.102 100.627 886.307 104.545C882.512 108.36 879.486 113.051 877.23 118.618C875.076 124.186 873.999 130.475 873.999 137.486C873.999 144.188 875.076 150.322 877.23 155.89C879.486 161.457 882.512 166.2 886.307 170.118C890.102 174.035 894.512 177.077 899.538 179.242C904.666 181.407 910.102 182.49 915.846 182.49C921.59 182.49 927.026 181.407 932.154 179.242C937.282 177.077 941.744 174.035 945.539 170.118C949.334 166.2 952.308 161.457 954.462 155.89C956.719 150.322 957.847 144.188 957.847 137.486Z" fill="#22C55E"/>
<path d="M110.496 221.772H66.421V44.3852H0V0H176.763V44.3852H110.496V221.772Z" fill="#1E1E1E"/>
<path d="M329.639 221.772H319.468L303.133 199.038C299.126 202.646 294.862 206.049 290.342 209.245C285.924 212.338 281.249 215.07 276.318 217.441C271.386 219.709 266.301 221.514 261.061 222.854C255.924 224.194 250.684 224.865 245.342 224.865C233.732 224.865 222.79 222.906 212.516 218.988C202.345 215.07 193.407 209.399 185.701 201.976C178.099 194.45 172.088 185.274 167.671 174.448C163.253 163.622 161.044 151.302 161.044 137.486C161.044 124.598 163.253 112.793 167.671 102.071C172.088 91.2449 178.099 81.9658 185.701 74.2331C193.407 66.5005 202.345 60.5206 212.516 56.2935C222.79 51.9632 233.732 49.7981 245.342 49.7981C250.684 49.7981 255.975 50.4682 261.215 51.8085C266.455 53.1489 271.54 55.0047 276.472 57.376C281.403 59.7474 286.078 62.5311 290.496 65.7273C295.016 68.9234 299.228 72.3773 303.133 76.089L319.468 56.4481H329.639V221.772ZM287.259 137.486C287.259 131.712 286.129 126.145 283.869 120.784C281.711 115.319 278.732 110.525 274.931 106.401C271.129 102.174 266.66 98.8229 261.523 96.3484C256.489 93.7709 251.095 92.4821 245.342 92.4821C239.588 92.4821 234.143 93.4616 229.006 95.4205C223.972 97.3794 219.554 100.266 215.753 104.081C212.054 107.896 209.126 112.638 206.969 118.309C204.811 123.877 203.732 130.269 203.732 137.486C203.732 144.703 204.811 151.147 206.969 156.818C209.126 162.385 212.054 167.076 215.753 170.891C219.554 174.706 223.972 177.592 229.006 179.551C234.143 181.51 239.588 182.49 245.342 182.49C251.095 182.49 256.489 181.253 261.523 178.778C266.66 176.201 271.129 172.85 274.931 168.726C278.732 164.499 281.711 159.704 283.869 154.343C286.129 148.879 287.259 143.26 287.259 137.486Z" fill="#1E1E1E"/>
<path d="M404.228 284.87H361.848V56.1388H372.019L388.817 76.089C392.619 72.4804 396.78 69.0781 401.3 65.8819C405.821 62.6858 410.495 59.9536 415.324 57.6853C420.255 55.314 425.341 53.4582 430.581 52.1178C435.821 50.7775 441.112 50.1074 446.454 50.1074C458.064 50.1074 468.954 52.221 479.125 56.4481C489.399 60.5722 498.337 66.449 505.94 74.0785C513.646 81.708 519.707 90.9356 524.125 101.761C528.543 112.484 530.752 124.392 530.752 137.486C530.752 151.095 528.543 163.364 524.125 174.293C519.707 185.119 513.646 194.346 505.94 201.976C498.337 209.502 489.399 215.276 479.125 219.297C468.954 223.318 458.064 225.329 446.454 225.329C442.755 225.329 439.057 224.916 435.358 224.091C431.762 223.266 428.166 222.184 424.571 220.844C421.077 219.4 417.584 217.802 414.091 216.049C410.701 214.297 407.413 212.492 404.228 210.637V284.87ZM488.526 137.486C488.526 130.475 487.396 124.186 485.135 118.618C482.978 113.051 479.998 108.36 476.197 104.545C472.396 100.627 467.927 97.6372 462.79 95.5752C457.653 93.5131 452.207 92.4821 446.454 92.4821C440.701 92.4821 435.255 93.5131 430.118 95.5752C425.084 97.6372 420.666 100.627 416.865 104.545C413.064 108.36 410.033 113.051 407.773 118.618C405.615 124.186 404.536 130.475 404.536 137.486C404.536 144.188 405.615 150.322 407.773 155.89C410.033 161.457 413.064 166.2 416.865 170.118C420.666 174.035 425.084 177.077 430.118 179.242C435.255 181.407 440.701 182.49 446.454 182.49C452.207 182.49 457.653 181.407 462.79 179.242C467.927 177.077 472.396 174.035 476.197 170.118C479.998 166.2 482.978 161.457 485.135 155.89C487.396 150.322 488.526 144.188 488.526 137.486Z" fill="#1E1E1E"/>
</svg>
