<svg width="32" height="24" viewBox="0 0 32 24" fill="none" xmlns="http://www.w3.org/2000/svg">
<g clip-path="url(#clip0_898_1102)">
<path d="M5.81749 23.8805V22.2921C5.81749 21.683 5.43324 21.286 4.77461 21.286C4.44536 21.286 4.08861 21.3919 3.84161 21.7361C3.64961 21.4448 3.37524 21.286 2.96361 21.286C2.68911 21.286 2.41486 21.3654 2.19524 21.6566V21.339H1.61899V23.8805H2.19524V22.4773C2.19524 22.0274 2.44224 21.8155 2.82649 21.8155C3.21049 21.8155 3.40274 22.0538 3.40274 22.4773V23.8805H3.97899V22.4773C3.97899 22.0274 4.25324 21.8155 4.60999 21.8155C4.99424 21.8155 5.18624 22.0538 5.18624 22.4773V23.8805H5.81749ZM14.3514 21.339H13.4185V20.5712H12.8422V21.339H12.3209V21.8419H12.8421V23.0069C12.8421 23.5894 13.0891 23.9335 13.7477 23.9335C13.9947 23.9335 14.269 23.8541 14.4612 23.7482L14.2965 23.2716C14.1319 23.3775 13.9399 23.404 13.8026 23.404C13.5282 23.404 13.4185 23.2452 13.4185 22.9804V21.8419H14.3514V21.339ZM19.2359 21.2859C18.9066 21.2859 18.6871 21.4448 18.5499 21.6566V21.339H17.9736V23.8805H18.5499V22.4509C18.5499 22.0274 18.7419 21.789 19.0986 21.789C19.2084 21.789 19.3456 21.8156 19.4554 21.842L19.62 21.3125C19.5102 21.286 19.3456 21.286 19.2359 21.286M11.8544 21.5509C11.5799 21.3655 11.1957 21.2861 10.7841 21.2861C10.1256 21.2861 9.68661 21.6038 9.68661 22.1068C9.68661 22.5305 10.0159 22.7687 10.5921 22.8482L10.8665 22.8747C11.1684 22.9275 11.333 23.007 11.333 23.1394C11.333 23.3247 11.1135 23.4571 10.7292 23.4571C10.3451 23.4571 10.0432 23.3247 9.85111 23.1924L9.57674 23.6159C9.87861 23.8277 10.2902 23.9336 10.7017 23.9336C11.4701 23.9336 11.9092 23.5895 11.9092 23.1129C11.9092 22.6628 11.5525 22.4245 11.0036 22.3451L10.7292 22.3186C10.4822 22.2921 10.2902 22.2393 10.2902 22.0804C10.2902 21.8951 10.4822 21.7892 10.7841 21.7892C11.1135 21.7892 11.4427 21.9215 11.6074 22.0009L11.8544 21.5509ZM27.1662 21.2861C26.8369 21.2861 26.6174 21.445 26.4801 21.6567V21.3391H25.9039V23.8807H26.4801V22.451C26.4801 22.0275 26.6722 21.7892 27.0289 21.7892C27.1387 21.7892 27.276 21.8157 27.3857 21.8421L27.5504 21.3127C27.4406 21.2861 27.276 21.2861 27.1662 21.2861ZM19.8121 22.6099C19.8121 23.3776 20.3609 23.9336 21.2116 23.9336C21.5957 23.9336 21.8701 23.8543 22.1445 23.6425L21.8701 23.1924C21.6506 23.3512 21.4311 23.4306 21.1841 23.4306C20.7176 23.4306 20.3884 23.1129 20.3884 22.6099C20.3884 22.1334 20.7176 21.8156 21.1841 21.7892C21.4311 21.7892 21.6506 21.8685 21.8701 22.0275L22.1445 21.5774C21.8701 21.3655 21.5957 21.2861 21.2116 21.2861C20.3609 21.2861 19.8121 21.8421 19.8121 22.6099ZM25.1356 22.6099V21.3391H24.5594V21.6567C24.3672 21.4186 24.0929 21.2861 23.7361 21.2861C22.9952 21.2861 22.419 21.8421 22.419 22.6099C22.419 23.3776 22.9952 23.9336 23.7361 23.9336C24.1202 23.9336 24.3947 23.8013 24.5594 23.563V23.8807H25.1356V22.6099ZM23.0226 22.6099C23.0226 22.1598 23.3245 21.7892 23.8184 21.7892C24.2849 21.7892 24.6142 22.1334 24.6142 22.6099C24.6142 23.06 24.2849 23.4306 23.8184 23.4306C23.3245 23.404 23.0226 23.06 23.0226 22.6099ZM16.1351 21.2861C15.3667 21.2861 14.8179 21.8156 14.8179 22.6099C14.8179 23.4042 15.3666 23.9336 16.1625 23.9336C16.5466 23.9336 16.9309 23.8277 17.2327 23.5895L16.9582 23.1924C16.7387 23.3512 16.4644 23.4571 16.19 23.4571C15.8332 23.4571 15.4765 23.2983 15.3941 22.8481H17.3425V22.6364C17.37 21.8156 16.8761 21.2861 16.1351 21.2861ZM16.135 21.7626C16.4916 21.7626 16.7387 21.9745 16.7935 22.3717H15.4215C15.4764 22.0275 15.7234 21.7626 16.135 21.7626ZM30.4315 22.6099V20.333H29.8552V21.6567C29.6631 21.4186 29.3887 21.2861 29.032 21.2861C28.2911 21.2861 27.7149 21.8421 27.7149 22.6099C27.7149 23.3776 28.2911 23.9336 29.032 23.9336C29.4162 23.9336 29.6906 23.8013 29.8552 23.563V23.8807H30.4315V22.6099ZM28.3186 22.6099C28.3186 22.1598 28.6204 21.7892 29.1144 21.7892C29.5809 21.7892 29.9101 22.1334 29.9101 22.6099C29.9101 23.06 29.5809 23.4306 29.1144 23.4306C28.6204 23.404 28.3186 23.06 28.3186 22.6099ZM9.05524 22.6099V21.3391H8.47899V21.6567C8.28686 21.4186 8.01249 21.2861 7.65574 21.2861C6.91486 21.2861 6.33861 21.8421 6.33861 22.6099C6.33861 23.3776 6.91486 23.9336 7.65574 23.9336C8.03999 23.9336 8.31436 23.8013 8.47899 23.563V23.8807H9.05524V22.6099ZM6.91486 22.6099C6.91486 22.1598 7.21674 21.7892 7.71061 21.7892C8.17711 21.7892 8.50649 22.1334 8.50649 22.6099C8.50649 23.06 8.17711 23.4306 7.71061 23.4306C7.21674 23.404 6.91486 23.06 6.91486 22.6099Z" fill="black"/>
<path d="M11.6623 2.03809H20.306V17.0231H11.6623V2.03809Z" fill="#FF5F00"/>
<path d="M12.2111 9.53114C12.2111 6.48651 13.6929 3.78597 15.9704 2.03855C14.2966 0.767759 12.1838 0 9.87875 0C4.41788 0 0 4.26247 0 9.53114C0 14.7997 4.41788 19.0623 9.87863 19.0623C12.1836 19.0623 14.2965 18.2945 15.9704 17.0236C13.6929 15.3027 12.2111 12.5758 12.2111 9.53114Z" fill="#EB001B"/>
<path d="M31.9682 9.53114C31.9682 14.7997 27.5504 19.0623 22.0896 19.0623C19.7846 19.0623 17.6717 18.2945 15.9979 17.0236C18.3029 15.2763 19.7572 12.5758 19.7572 9.53114C19.7572 6.48651 18.2754 3.78597 15.9979 2.03855C17.6716 0.767759 19.7846 0 22.0896 0C27.5504 0 31.9682 4.28901 31.9682 9.53114Z" fill="#F79E1B"/>
</g>
<defs>
<clipPath id="clip0_898_1102">
<rect width="32" height="24" fill="white"/>
</clipPath>
</defs>
</svg>
