<svg width="32" height="22" viewBox="0 0 32 22" fill="none" xmlns="http://www.w3.org/2000/svg">
<g clip-path="url(#clip0_898_1109)">
<path d="M12.1496 0.281754L7.96 15.7122H5.22675L3.165 3.39726C3.04 2.64058 2.93138 2.36211 2.551 2.04214C1.92925 1.5207 0.9025 1.03304 0 0.729667L0.060875 0.281754H4.46138C5.02138 0.281754 5.52562 0.857421 5.65387 1.85418L6.74325 10.7841L9.43275 0.281754H12.1496ZM15.8446 0.281754L13.7067 15.7122H11.1208L13.2589 0.281754H15.8446ZM22.8591 10.6742C22.8699 6.60251 19.2124 6.37653 19.2362 4.55728C19.245 4.00419 19.5863 3.4154 20.3333 3.26488C20.7033 3.19096 21.7255 3.1321 22.8834 3.95575L23.3364 0.681614C22.7142 0.334246 21.9136 0 20.9177 0C18.3615 0 16.5634 2.09618 16.549 5.10014C16.5322 7.32214 17.8334 8.56051 18.8119 9.3006C19.8197 10.0563 20.1578 10.5421 20.1531 11.2175C20.1459 12.2528 19.3481 12.7112 18.6065 12.7282C17.306 12.76 16.5521 12.1855 15.9508 11.753L15.4814 15.1356C16.0864 15.5636 17.2014 15.9355 18.3563 15.9544C21.0738 15.9544 22.8511 13.8822 22.8591 10.6742ZM29.6091 15.7124H32L29.9112 0.281754H27.7054C27.2079 0.281754 26.7897 0.727544 26.6042 1.41282L22.7243 15.7122H25.4396L25.9783 13.4073H29.2957L29.6091 15.7124ZM26.7229 10.2454L28.0844 4.45075L28.8665 10.2454H26.7229ZM19.1541 19.9598H18.1034V21.4695H19.2786V21.9234H17.7494V17.7351H19.2184V18.189H18.1034V19.5123H19.154L19.1541 19.9598ZM19.8215 17.5116H20.1755V21.9232H19.8215V17.5116ZM21.0688 20.5189C21.0767 21.2586 21.3787 21.5629 21.7367 21.5629C21.9905 21.5629 22.1474 21.4946 22.2764 21.4077L22.3406 21.7993C22.2159 21.8861 21.9986 21.9917 21.6885 21.9917C21.089 21.9917 20.7309 21.3767 20.7309 20.4693C20.7309 19.5622 21.0767 18.8536 21.6444 18.8536C22.2844 18.8536 22.4494 19.7114 22.4494 20.2643C22.4494 20.3761 22.4452 20.4567 22.4371 20.5191L21.0688 20.5189ZM22.1071 20.1275C22.1112 19.7859 22.0146 19.2452 21.6161 19.2452C21.2539 19.2452 21.1009 19.7485 21.0726 20.1275H22.1071ZM24.3764 21.8176C24.2839 21.8861 24.0785 21.9919 23.817 21.9919C23.2294 21.9919 22.847 21.3767 22.847 20.4569C22.847 19.531 23.2574 18.8538 23.8934 18.8538C24.1026 18.8538 24.2878 18.9343 24.3844 19.0153L24.3041 19.4316C24.2192 19.3633 24.0865 19.2884 23.8934 19.2884C23.4465 19.2884 23.2052 19.8042 23.2052 20.426C23.2052 21.1217 23.495 21.5505 23.8814 21.5505C24.0826 21.5505 24.2154 21.4761 24.316 21.4077L24.3764 21.8176ZM25.3699 18.195V18.9158H25.8769V19.3318H25.3699V20.9538C25.3699 21.3271 25.4384 21.538 25.6355 21.538C25.732 21.538 25.7885 21.5258 25.8409 21.5006L25.857 21.9174C25.7885 21.9545 25.6799 21.9917 25.543 21.9917C25.3779 21.9917 25.245 21.9047 25.1606 21.7621C25.064 21.594 25.0238 21.3271 25.0238 20.9728V19.3318H24.7218V18.9158H25.0238V18.3565L25.3699 18.195ZM26.3715 19.8542C26.3715 19.4999 26.3673 19.1956 26.3554 18.9158H26.6654L26.6816 19.5121H26.6934C26.7821 19.1085 26.9993 18.8536 27.2366 18.8536C27.273 18.8536 27.3013 18.86 27.3335 18.866V19.382C27.2973 19.3693 27.2611 19.3693 27.2125 19.3693C26.9632 19.3693 26.7859 19.6551 26.7377 20.0655C26.7294 20.1498 26.7254 20.235 26.7256 20.3203V21.9236H26.3715V19.8542ZM29.5104 20.3946C29.5104 21.5069 29.0071 21.9917 28.5404 21.9917C28.017 21.9917 27.6066 21.395 27.6066 20.4446C27.6066 19.4439 28.0372 18.8538 28.5726 18.8538C29.132 18.8538 29.5104 19.4808 29.5104 20.3946ZM27.9688 20.426C27.9688 21.0847 28.2103 21.582 28.5564 21.582C28.8946 21.582 29.148 21.0907 29.148 20.4135C29.148 19.904 28.983 19.2637 28.5644 19.2637C28.15 19.2637 27.9688 19.8606 27.9688 20.426ZM30.0531 19.7299C30.0531 19.4133 30.0489 19.1645 30.0369 18.9161H30.3509L30.371 19.4133H30.379C30.4756 19.1334 30.701 18.854 31.023 18.854C31.2925 18.854 31.7113 19.1026 31.7113 20.1337V21.9236H31.3571V20.1898C31.3571 19.7054 31.2404 19.3011 30.9064 19.3011C30.6769 19.3011 30.4956 19.5561 30.4315 19.8604C30.4152 19.9289 30.4072 20.0219 30.4072 20.1153V21.9236H30.0531V19.7299Z" fill="#1A1F71"/>
</g>
<defs>
<clipPath id="clip0_898_1109">
<rect width="32" height="22" fill="white"/>
</clipPath>
</defs>
</svg>
