<svg width="9" height="9" viewBox="0 0 9 9" fill="none" xmlns="http://www.w3.org/2000/svg">
<path d="M3.21888 2.13078C3.78902 1.22198 4.07386 0.767578 4.5 0.767578C4.92614 0.767578 5.21098 1.22198 5.78112 2.13078L5.92872 2.36598C6.09071 2.62438 6.17171 2.75358 6.29771 2.83878C6.4237 2.92398 6.5812 2.95558 6.89619 3.01878L7.18239 3.07639C8.28936 3.29919 8.8424 3.41039 8.97425 3.78679C9.10564 4.16279 8.72855 4.55519 7.97392 5.33959L7.77862 5.54239C7.56443 5.76519 7.45688 5.87679 7.40873 6.01439C7.36058 6.15239 7.37678 6.3012 7.40918 6.5984L7.43888 6.8692C7.55273 7.916 7.60988 8.4392 7.26518 8.6716C6.92049 8.9044 6.4021 8.692 5.36623 8.268L5.09759 8.1584C4.80329 8.0376 4.65615 7.9776 4.5 7.9776C4.34385 7.9776 4.19671 8.0376 3.90241 8.1584L3.63422 8.268C2.59789 8.692 2.07951 8.904 1.73526 8.672C1.39012 8.4392 1.44727 7.916 1.56112 6.8692L1.59082 6.5988C1.62322 6.30119 1.63942 6.15239 1.59082 6.01479C1.54312 5.87679 1.43557 5.76519 1.22138 5.54279L1.02608 5.33959C0.271449 4.55559 -0.105642 4.16319 0.0257551 3.78679C0.157602 3.41039 0.711089 3.29879 1.81806 3.07639L2.10426 3.01878C2.4188 2.95558 2.57585 2.92398 2.70229 2.83878C2.82829 2.75358 2.90929 2.62438 3.07128 2.36598L3.21888 2.13078Z" fill="#F7C668"/>
</svg>
